<?xml version="1.0" encoding="utf-8"?>
<!-- Generator: Adobe Illustrator 26.0.1, SVG Export Plug-In . SVG Version: 6.00 Build 0)  -->
<svg version="1.1" xmlns="http://www.w3.org/2000/svg" xmlns:xlink="http://www.w3.org/1999/xlink" x="0px" y="0px"
	 viewBox="0 0 876.3 661.5" style="enable-background:new 0 0 876.3 661.5;" xml:space="preserve">
<style type="text/css">
	.st0{fill:url(#SVGID_1_);}
	.st1{fill:url(#SVGID_00000078751733586511354010000006920235669273754789_);}
	.st2{fill:#FFFFFF;}
	.st3{fill-rule:evenodd;clip-rule:evenodd;fill:#FFFFFF;}
	.st4{fill-rule:evenodd;clip-rule:evenodd;fill:#FFD700;}
	.st5{fill-rule:evenodd;clip-rule:evenodd;fill:#F6F6F7;}
	.st6{fill:#FFCD00;}
	.st7{fill:#FFD700;}
	.st8{fill:#951E81;}
	.st9{fill:#E73351;}
	.st10{fill-rule:evenodd;clip-rule:evenodd;fill:#951E81;}
	.st11{fill-rule:evenodd;clip-rule:evenodd;fill:#E73351;}
	.st12{fill:#EC6077;}
	.st13{fill:#FFE34A;}
	.st14{fill:#A94999;}
	.st15{fill:#1D1D1B;}
	.st16{fill:#F6A600;}
	.st17{fill-rule:evenodd;clip-rule:evenodd;fill:#1D1D1B;}
	.st18{display:none;}
</style>
<g id="Calque_2">
	<g>
		
			<image style="overflow:visible;" width="611" height="611" xlink:href="A2130454.png"  transform="matrix(1 0 0 1 132.9921 17.4649)">
		</image>
		<g>
			<linearGradient id="SVGID_1_" gradientUnits="userSpaceOnUse" x1="217.4176" y1="489.3956" x2="658.4045" y2="119.3637">
				<stop  offset="0" style="stop-color:#EF8300"/>
				<stop  offset="5.691928e-02" style="stop-color:#EE760B"/>
				<stop  offset="0.4535" style="stop-color:#E82252"/>
				<stop  offset="0.6341" style="stop-color:#E5006E"/>
				<stop  offset="1" style="stop-color:#B62785"/>
			</linearGradient>
			<path class="st0" d="M438.4,20.9c-159,0-287.8,128.9-287.8,287.8c0,159,128.9,287.8,287.8,287.8c22.7,0,44.9-2.6,66.1-7.6
				c-4-7.2-7.2-14.9-9.3-23c-18.3,4-37.3,6.1-56.8,6.1C292.9,572.1,175,454.2,175,308.7c0-145.4,117.9-263.4,263.4-263.4
				s263.4,117.9,263.4,263.4c0,58.4-19,112.3-51.1,155.9c6.5,5.2,12.3,11.1,17.3,17.8c36.6-48.3,58.3-108.4,58.3-173.7
				C726.2,149.8,597.3,20.9,438.4,20.9z"/>
		</g>
	</g>
	<g>
		
			<image style="overflow:visible;" width="198" height="198" xlink:href="A2130455.png"  transform="matrix(1 0 0 1 490.9921 456.4649)">
		</image>
		<g>
			
				<linearGradient id="SVGID_00000075856511341882659870000016182947670812998299_" gradientUnits="userSpaceOnUse" x1="527.8806" y1="593.158" x2="652.7604" y2="488.3714">
				<stop  offset="0" style="stop-color:#EF8300"/>
				<stop  offset="5.691928e-02" style="stop-color:#EE760B"/>
				<stop  offset="0.4535" style="stop-color:#E82252"/>
				<stop  offset="0.6341" style="stop-color:#E5006E"/>
				<stop  offset="1" style="stop-color:#B62785"/>
			</linearGradient>
			<circle style="fill:url(#SVGID_00000075856511341882659870000016182947670812998299_);" cx="589.8" cy="541.2" r="81.5"/>
		</g>
	</g>
	<path class="st2" d="M645.1,541.2c0,6.6-5.3,11.9-11.9,11.9h-31.5v31.5c0,3.3-1.3,6.3-3.5,8.4c-2.2,2.2-5.1,3.5-8.4,3.5
		c-6.6,0-11.9-5.3-11.9-11.9v-31.5h-31.5c-3.3,0-6.3-1.3-8.4-3.5c-2.2-2.1-3.5-5.1-3.5-8.4c0-6.6,5.3-11.9,11.9-11.9h31.5v-31.5
		c0-6.6,5.3-11.9,11.9-11.9c6.6,0,11.9,5.3,11.9,11.9v31.5h31.5C639.8,529.3,645.1,534.6,645.1,541.2z"/>
	<g>
		<g>
			<polygon class="st3" points="371.6,316.2 372.5,316.5 373.4,316.8 373.6,317.7 373.8,318.7 373.1,319.3 372.4,320 371.5,319.7 
				370.6,319.4 370.4,318.5 370.2,317.5 370.9,316.9 			"/>
			<path class="st3" d="M332.2,211.1l-3,0.7l1.4,6.1l3-0.7l3-0.7l-1.4-6.1L332.2,211.1z M335.2,215.7l-1.9,0.5l-1.9,0.5l-0.9-4
				l1.9-0.5l1.9-0.5L335.2,215.7z"/>
			<polygon class="st2" points="375.1,355.6 378.7,354.7 377.9,351 374.2,351.8 			"/>
			<polygon class="st2" points="418,187.4 420.5,186.8 420,184.1 417.4,184.8 			"/>
			<polygon class="st2" points="302.2,257.5 307.7,256.2 306.5,250.4 300.9,251.8 			"/>
			<polygon class="st2" points="239.6,249.4 245.2,248.1 243.9,242.3 238.3,243.7 			"/>
			<polygon class="st2" points="336.5,152.8 340.5,151.9 339.6,147.7 335.5,148.6 			"/>
			<polygon class="st2" points="259.9,173.2 263.9,172.2 263,168.1 258.9,169 			"/>
			<polygon class="st2" points="242.2,217.8 243.5,219.2 244.8,220.7 243,221.1 241.1,221.5 241.7,219.7 			"/>
			<polygon class="st2" points="250.8,187.7 253.3,190.6 255.9,193.5 252.2,194.3 248.5,195.2 249.6,191.5 			"/>
			<polygon class="st2" points="399,165.7 400.7,167.5 402.4,169.4 400,169.9 397.6,170.5 398.3,168.1 			"/>
			<polygon class="st2" points="319.7,297.1 321.7,299.3 323.6,301.4 320.8,302.1 318.1,302.7 318.9,299.9 			"/>
			<polygon class="st2" points="253,319.5 254.5,321.2 255.9,322.8 253.8,323.3 251.7,323.8 252.3,321.7 			"/>
			<polygon class="st2" points="294.2,358.3 296.1,360.4 298.1,362.6 295.3,363.2 292.6,363.9 293.4,361.1 			"/>
			<path class="st2" d="M296.4,247.1c0.4,1.7-0.6,3.3-2.3,3.7c-1.6,0.4-3.2-0.7-3.6-2.3c-0.4-1.7,0.6-3.3,2.3-3.7
				C294.5,244.4,296.1,245.4,296.4,247.1z"/>
			<ellipse class="st2" cx="297.2" cy="162.1" rx="3.5" ry="3.6"/>
			<path class="st2" d="M361.7,141.3c0.4,1.7-0.7,3.5-2.4,3.9c-1.7,0.4-3.4-0.7-3.8-2.4c-0.4-1.7,0.7-3.5,2.4-3.9
				C359.6,138.4,361.3,139.5,361.7,141.3z"/>
			<path class="st2" d="M386.8,155.2c0.4,2-0.7,3.9-2.6,4.4c-1.9,0.4-3.8-0.8-4.2-2.7c-0.4-2,0.7-3.9,2.6-4.4
				C384.5,152,386.3,153.2,386.8,155.2z"/>
			<path class="st2" d="M385.1,173.5c0.1,0.4-0.1,0.8-0.5,0.9c-0.4,0.1-0.8-0.2-0.8-0.5c-0.1-0.4,0.1-0.8,0.5-0.9
				C384.6,172.9,385,173.1,385.1,173.5z"/>
			<ellipse class="st2" cx="397.6" cy="189.5" rx="3.1" ry="3.2"/>
			<path class="st2" d="M393.6,211.7c0.2,1-0.4,2-1.4,2.3s-2-0.4-2.2-1.4s0.4-2,1.4-2.3C392.4,210.1,393.4,210.7,393.6,211.7z"/>
			<path class="st2" d="M234,237.1c0.2,0.8-0.3,1.7-1.1,1.9c-0.8,0.2-1.6-0.3-1.8-1.2c-0.2-0.8,0.3-1.7,1.1-1.9
				C233,235.8,233.8,236.3,234,237.1z"/>
			<ellipse class="st2" cx="271.5" cy="332.8" rx="1.7" ry="1.7"/>
			<ellipse class="st2" cx="244.7" cy="313.4" rx="1.4" ry="1.5"/>
			<path class="st2" d="M303.4,279.6c0.2,1.1-0.4,2.2-1.5,2.5c-1.1,0.3-2.2-0.4-2.4-1.6c-0.2-1.1,0.4-2.2,1.5-2.5
				C302.1,277.8,303.2,278.5,303.4,279.6z"/>
			<path class="st2" d="M332.7,323.8c0.2,0.9-0.3,1.7-1.2,1.9c-0.8,0.2-1.7-0.3-1.9-1.2c-0.2-0.9,0.3-1.7,1.2-1.9
				C331.7,322.4,332.5,322.9,332.7,323.8z"/>
			<path class="st2" d="M344.1,332.3c0.2,0.8-0.3,1.6-1.1,1.8c-0.8,0.2-1.5-0.3-1.7-1.1c-0.2-0.8,0.3-1.6,1.1-1.8
				C343.2,331,344,331.5,344.1,332.3z"/>
			<path class="st2" d="M379.5,326.3c0.3,1.3-0.5,2.5-1.7,2.8c-1.2,0.3-2.4-0.5-2.7-1.7c-0.3-1.3,0.5-2.5,1.7-2.8
				C378,324.3,379.2,325.1,379.5,326.3z"/>
			<path class="st2" d="M316.5,359.7c0.2,0.8-0.3,1.6-1.1,1.7c-0.8,0.2-1.5-0.3-1.7-1.1c-0.2-0.8,0.3-1.6,1.1-1.7
				C315.5,358.4,316.3,358.9,316.5,359.7z"/>
			<path class="st3" d="M395.3,327c-1.2,1-7.8,8.6-24.5,5.5c-16.7-3.1-18.6-13.3-22.2-10.2c-3.6,3.2-0.3,7.3,2.6,10.2
				c2.9,2.9,10.3,5.1,1.9,5.3c-8.4,0.2-15.3,2.3-29.6-9.7c-14.3-12-14.4-23.2-18-22c-3.6,1.2,2.7,8.8-0.7,10.2
				c-2.3,1-6.5-7.4-10.8-16.3c-10.9-22.8,3.9-34.9-1.2-38.4c-5.1-3.5-6.4,9.8-8.9,9.5c-2.5-0.3-5.2-12.5,3.5-28.4
				c8.7-15.9,20.2-22.7,35.8-23.2c15.6-0.5,34.7,15.1,40.1,9.4s1.3-21-12.4-27.1c-13.6-6.2-83.6,6.6-82.8,44
				c0.8,37.4,9.1,71.3,30.4,85.9c21.3,14.6,53.5,17.9,71.7,12.8C388.5,339.5,395.3,327,395.3,327L395.3,327z"/>
			<path class="st3" d="M358.5,190.8c3.1,2-21.2-8.1-21-13.1c0.2-5,45.9,5.3,42.2-1.2c-3.7-6.5-25.4-10.9-23-12.2
				c2.4-1.3,22,3.9,14.8-3.3c-7.2-7.2-36.7-5.6-63.1,6.3c-26.5,11.9-33.9,24.3-33.6,18c0.4-6.3,12.6-16.7,5.9-17.3
				c-6.7-0.6-26.6,37-31.2,63.9c-4.6,26.8,2.5,44.7-1.1,42.3c-3.6-2.3-2.8-19.9-8.9-15.1c-12,12,16,67.3,53.8,86.4
				c4,2-7.5,0.2-7.5,4.3c0,4.1,10.6,4.8,42.7,6.7c32,1.9,55.5-16.5,55.5-16.5s-42,11.2-66.6,3c-24.5-8.1-38.3-25-50.9-59.9
				c-12.6-35,6.5-73.8,32.2-84.1C324.5,188.6,358.5,190.8,358.5,190.8L358.5,190.8z"/>
			<path class="st3" d="M395.3,327c-36.3,26.3-89.5,16.8-112.4-27.1c-21.2-40.7-5.8-112.2,83.8-81.5c14.9,5.2,18.2,0.3,11.5-8.5
				c-6.7-8.9,17.5,2.7,17.6-7c0-9.7-3.6-15.7-30.5-24.8C281.1,149.6,229,234.9,264.6,310C288.5,360.4,369.2,370,395.3,327L395.3,327
				z"/>
			<path class="st3" d="M395.3,327c-29.3,12.1-31.5,4.4-33.7,6c-2.2,1.6-2.4,4.6,0.9,6.2c3.3,1.6-14.9,2.8-21.6,1.7
				c-6.7-1.2-17.9-4.8-23.5-11.8c-5.6-7.1-3.7-11.6-8.2-9.2c-4.4,2.5,3.7,7-2.2,7.8c-5.9,0.9-12.1-4.6-19.2-18.6
				c-7.1-14,1.8-28.7-3.9-31.7c-5.7-3-3.8,15.7-8.3,8c-4.5-7.7-5.9-24,0-36c5.9-12,17.3-11.1,15.3-16.6s-4.7-0.7-6.2-0.1
				c-1.5,0.6,2.9-7.9,12.1-12.9c9.2-4.9,13.9-4.1,26.7-2.4c12.9,1.7,19-6.6,8.5-10.7c-10.5-4.1-47-3.6-59.3,12.9
				c-12.3,16.5-12.8,35.7-7.3,59.7c5.5,24,25.4,49.2,41.2,57c15.8,7.9,34.3,11.9,52.2,10.1C376.8,344.6,395.3,327,395.3,327
				L395.3,327z"/>
			<path class="st3" d="M362.4,351.3c0,0-16.2,3.5-33.5-2.8c-9-3.3-8-9.8-12.2-9.6c-4.3,0.2-3.1,5.2-0.4,8.6
				c2.7,3.4-17.2,0.2-27-12.3c-9.8-12.5-2.1-17.3-8.2-21c-6.1-3.7,2.3,16.2-4.1,9.6c-6.4-6.6-14.2-22.1-17.2-39.6
				c-2.9-17.4,12.6-25.6,5.3-32.2c-7.3-6.6-6.2,15.1-9.8,14.1c-3.7-0.9-3.1-23.2,7.7-39.6c10.8-16.4,26.4-13.2,22.1-23.5
				c-4.4-10.3-14-9-20.8,1.4c-6.8,10.4-9.9,20.5-11.6,34.7c-1.7,14.2-2.7,25.7,0.9,43.3s6.4,26.3,14.6,37.3
				c8.3,11,18.6,20.5,26.5,24.4C323.7,358.4,345.1,356.7,362.4,351.3L362.4,351.3z"/>
			<path class="st2" d="M305.6,205.9c6.2-0.5,12.5,0.3,18.7,1.3c1.9,0.3,3.9,0.6,5.6-0.1c1.8-0.7,3.2-2.8,2.4-4.6
				c-0.7-1.8-3-2.5-3.5-4.3c-0.4-1.4,0.7-2.9,1.9-3.5c1.3-0.6,2.8-0.5,4.2-0.4c13.9,1.5,27.1,9.6,41,8c1.6-0.2,3.3-0.5,4.5-1.7
				c1.6-1.6,1.6-4.5,0.5-6.5c-1.1-2.1-3-3.5-4.9-4.7c-13.6-8.7-31.2-10.3-46.1-4.1c-1,0.4-2.5,0.7-2.9-0.4c-0.4-1.1,1-1.8,1.6-2.8
				c0.9-1.5-0.3-3.6-1.9-4.1c-1.6-0.5-3.3,0-4.9,0.8c-3.6,1.7-6.9,4.3-9.4,7.5c-1.2,1.5-2.2,3.1-3.7,4.2c-1.5,1.1-3.6,1.6-5.1,0.6
				c-0.6-0.4-1.2-1.1-1.9-1.2c-1.2-0.3-2.3,1-3,2c-3,4.4-5.9,8.8-8.9,13.2c-1,1.5-2,3.1-2.3,4.8c-0.1,0.6-0.4,1.7,0.1,2.1
				c0.4,0.4,1.2,0.1,1.6-0.1c1.6-0.9,3-2.1,4.7-2.9c1.7-0.8,3.5-1.5,5.3-2C301.4,206.5,303.4,206.1,305.6,205.9z"/>
			<path class="st2" d="M273.5,289.9c0.5,1.6,1.7,3.6,3.3,3.2c0.7-0.2,1.2-0.7,1.8-1c1.5-0.5,3,0.8,3.4,2.4c0.3,1.6-0.2,3.2-0.8,4.6
				c-1.2,3.1-2.5,6.1-3.9,9.1c-0.4,0.7-0.8,1.6-1.6,1.8c-1.3,0.4-2.4-1.1-3-2.5c-5.7-13.2-7.6-28-5.5-42.3c0.2-1.6,1-4.7,3.3-4
				c1.5,0.5,0.3,3.2,0.2,4.3c-0.6,5.1-0.1,10.6,0.8,15.7C271.9,284.1,272.6,287,273.5,289.9z"/>
			<path class="st2" d="M307.6,337c0.8,1.2,0.9,3-0.2,3.9c-0.7,0.6-1.7,0.6-2.6,0.4c-2-0.4-3.7-1.9-5.1-3.4c-1.8-1.8-3.4-3.9-4.8-6
				c-0.7-1.1-1.4-2.2-2-3.3c-0.2-0.4-0.8-1.2-0.4-1.6c0.7-0.7,3,0.8,3.7,1.1c1.8,1.1,3.3,2.7,4.9,4c1.1,0.9,2.3,1.7,3.5,2.4
				C305.8,335.2,306.9,335.9,307.6,337z"/>
			<path class="st2" d="M371.6,340.9c-4.5,1.1-9.2,1.5-13.8,2.1c-1.6,0.2-3.7,0.8-3.9,2.5c-0.2,1.1,0.7,2.2,1.7,2.6
				c1,0.5,2.1,0.4,3.2,0.3c4.8-0.4,9.5-1.8,13.7-4.1c2.1-1.2,4.1-2.5,6-4.1c0.8-0.7,1.8-1.4,2.3-2.4c0.1-0.1,0.4-0.7,0.2-0.8
				c-0.2-0.1-1,0.6-1.2,0.7C377.3,339.2,374.5,340.2,371.6,340.9z"/>
			<path class="st2" d="M264.8,240.6c0.8,0.4,1.7,0,2.3-0.7c0.6-0.7,0.8-1.6,1-2.4c0.6-2.3,1.1-4.7,2-6.8c1-2.3,2.5-4.1,4.7-5.3
				c1-0.6,1.1-1.7-0.3-1.6c-1.3,0.1-2.5,0.8-3.6,1.3c-1.3,0.7-2.8,1.3-3.7,2.5c-1.2,1.4-1.8,3.3-2.4,5c-0.5,1.5-0.8,3.1-1,4.6
				C263.7,238.4,263.7,240,264.8,240.6z"/>
			<path class="st2" d="M257.5,218c-0.3,1.5-0.4,3.5,1,4.2c0.8,0.4,1.8,0.1,2.5-0.5c0.7-0.6,1.1-1.4,1.6-2.2
				c2.9-4.8,6.9-8.9,11.7-11.8c0.7-0.4,1.5-0.9,2-1.6c0.5-0.7,0.6-1.8-0.1-2.4c-1.5-1.4-3.9,1.7-5.6,0.5c-1-0.7-0.7-2.2-0.2-3.3
				c0.6-1.2,1.5-2.3,1.9-3.5c0.4-1,0.5-2.4-0.1-3.4c-0.6-1-1.7-1.4-2.8-1.1c-0.8,0.2-1.6,0.6-2.2,1.1c-0.5,0.5-0.8,1.2-1.2,1.8
				c-1.2,2.2-2.4,4.3-3.5,6.6c-1.1,2.3-2.1,4.8-2.9,7.2c-0.8,2.4-1.5,4.9-2.1,7.5C257.6,217.4,257.5,217.7,257.5,218z"/>
			<path class="st2" d="M254.4,285.3c-0.2-0.6-0.4-1.2-0.8-1.6c-0.7-0.8-1.9-0.9-2.7-0.2c-0.8,0.6-1,1.9-0.4,2.8
				c-3-1.4-5.4-4-7.1-6.9c-1.7-2.9-2.7-6.2-3.8-9.4c-0.9,0.3-1.4,1.4-1.4,2.4c0,1,0.4,2,0.8,2.9c2.1,4.9,4.2,9.9,7.6,13.9
				c1.8,2,3.9,3.8,5.5,6c2.7,3.7,3.9,8.3,6.1,12.2c1.4,2.6,3.3,4.9,5.5,6.7c0.6,0.5,1.4,1,2.1,0.7c0.6-0.3,0.9-1,0.8-1.7
				c-0.1-0.7-0.4-1.3-0.8-1.9c-0.8-1.7-2-3.3-2.9-4.9c-1-1.7-2-3.3-3-5c-0.5-0.8-1-1.7-1.5-2.5c-0.4-0.6-0.5-1.1-0.6-1.7
				c-0.1-0.9-0.5-1.8-0.7-2.6c-0.3-0.9-0.6-1.9-0.9-2.8C255.7,289.5,255,287.4,254.4,285.3z"/>
			<path class="st2" d="M307.7,352.8c0.6,0,1.3,0.1,1.7-0.4c0.3-0.4,0.2-1.1-0.1-1.6c-0.3-0.4-0.9-0.7-1.4-0.9
				c-2.1-0.8-4.3-1.3-6.5-1.4c-1.1-0.1-2.3-0.1-3.4,0c-0.9,0-1.9,0-2.7,0.4c-0.7,0.3-1.4,0.7-1.9,1.2c-0.3,0.3-0.8,0.8-0.6,1.2
				c0.1,0.2,0.4,0.3,0.6,0.3c0.6,0.1,1.2,0.1,1.8,0.1c1.3,0.1,2.6,0.2,3.9,0.3c2.6,0.2,5.2,0.4,7.8,0.6
				C307.1,352.8,307.4,352.8,307.7,352.8z"/>
			<path class="st2" d="M352.7,216.8c2.4,0.6,4.7,1.7,6.4,3.5c0.6,0.7,1.2,1.5,1.4,2.4c0.2,0.9,0,2-0.7,2.6
				c-0.9,0.8-2.3,0.7-3.4,0.4c-5.2-1.3-9.7-5.4-15.1-5.4c-0.5,0-1,0-1.4-0.2c-0.4-0.2-0.8-0.7-0.7-1.2c0.2-0.7,1.2-0.8,1.9-0.6
				c2.7,0.5,5.5,0.9,8.2,1.4c0-0.9-0.9-1.4-1.7-1.6c-0.8-0.1-1.7-0.1-2.4-0.5c-0.4-0.3-1-1.1-0.4-1.5c0.5-0.3,1.3-0.2,1.8-0.2
				c0.9,0.1,1.9,0.1,2.8,0.2C350.5,216.4,351.6,216.5,352.7,216.8z"/>
			<path class="st2" d="M293,304.1c1.5,2.7,3.3,5.1,5.1,7.6c0.3,0.4,0.5,0.7,0.6,1.2c0.1,0.4-0.1,0.9-0.4,1.2c-0.5,0.2-1,0-1.4-0.4
				c-1.5-1.1-2.8-2.3-3.9-3.8c-1.1-1.5-2-3.1-2.7-4.8c-0.7-1.7-1.1-3.6-1.3-5.4c0-0.5-0.1-0.9-0.1-1.4c0-0.4,0-1,0.2-1.4
				c0.4-0.5,1.2-0.3,1.4,0.3c0.2,0.5,0.2,1.1,0.3,1.6c0.1,0.5,0.3,1.1,0.5,1.6c0.4,1.1,0.8,2.1,1.3,3.1
				C292.8,303.6,292.9,303.8,293,304.1z"/>
		</g>
		<g>
			<g>
				<g>
					<polygon class="st4" points="368.7,319.1 369.6,319.3 370.5,319.6 370.7,320.6 371,321.5 370.3,322.2 369.6,322.8 368.7,322.6 
						367.8,322.3 367.6,321.3 367.4,320.4 368,319.7 					"/>
				</g>
				<g>
					<path class="st5" d="M329.3,213.9l-3,0.7l1.4,6.1l3-0.7l3-0.7l-1.4-6.1L329.3,213.9z M332.4,218.5l-1.9,0.5l-1.9,0.5l-0.9-4
						l1.9-0.5l1.9-0.5L332.4,218.5z"/>
				</g>
				<g>
					<polygon class="st6" points="372.2,358.4 375.8,357.5 375,353.8 371.4,354.7 					"/>
				</g>
				<g>
					<polygon class="st6" points="415.1,190.2 417.7,189.6 417.1,187 414.6,187.6 					"/>
				</g>
				<g>
					<polygon class="st7" points="299.3,260.3 304.9,259 303.6,253.3 298.1,254.6 					"/>
				</g>
				<g>
					<polygon class="st7" points="236.8,252.2 242.3,250.9 241.1,245.2 235.5,246.5 					"/>
				</g>
				<g>
					<polygon class="st7" points="333.6,155.6 337.7,154.7 336.7,150.5 332.7,151.5 					"/>
				</g>
				<g>
					<polygon class="st7" points="257,176 261.1,175.1 260.1,170.9 256.1,171.9 					"/>
				</g>
				<g>
					<polygon class="st8" points="239.4,220.7 240.7,222.1 242,223.5 240.1,223.9 238.3,224.4 238.8,222.5 					"/>
				</g>
				<g>
					<polygon class="st8" points="247.9,190.6 250.5,193.4 253.1,196.3 249.4,197.2 245.7,198 246.8,194.3 					"/>
				</g>
				<g>
					<polygon class="st8" points="396.2,168.5 397.9,170.3 399.5,172.2 397.1,172.8 394.8,173.3 395.5,170.9 					"/>
				</g>
				<g>
					<polygon class="st8" points="316.9,300 318.8,302.1 320.8,304.2 318,304.9 315.3,305.6 316.1,302.8 					"/>
				</g>
				<g>
					<polygon class="st8" points="250.1,322.4 251.6,324 253.1,325.6 251,326.1 248.9,326.6 249.5,324.5 					"/>
				</g>
				<g>
					<polygon class="st8" points="291.4,361.1 293.3,363.3 295.2,365.4 292.5,366.1 289.7,366.7 290.5,363.9 					"/>
				</g>
				<g>
					<path class="st9" d="M293.6,249.9c0.4,1.7-0.6,3.3-2.3,3.7c-1.6,0.4-3.2-0.7-3.6-2.3c-0.4-1.7,0.6-3.3,2.3-3.7
						C291.6,247.2,293.2,248.3,293.6,249.9z"/>
				</g>
				<g>
					<ellipse class="st9" cx="294.3" cy="165" rx="3.5" ry="3.6"/>
				</g>
				<g>
					<path class="st9" d="M358.9,144.1c0.4,1.7-0.7,3.5-2.4,3.9c-1.7,0.4-3.4-0.7-3.8-2.4c-0.4-1.7,0.7-3.5,2.4-3.9
						C356.8,141.3,358.5,142.3,358.9,144.1z"/>
				</g>
				<g>
					<path class="st9" d="M383.9,158c0.4,2-0.7,3.9-2.6,4.4c-1.9,0.4-3.8-0.8-4.2-2.7c-0.4-2,0.7-3.9,2.6-4.4
						C381.6,154.8,383.5,156.1,383.9,158z"/>
				</g>
				<g>
					<path class="st9" d="M382.2,176.3c0.1,0.4-0.1,0.8-0.5,0.9c-0.4,0.1-0.8-0.2-0.8-0.5c-0.1-0.4,0.1-0.8,0.5-0.9
						C381.8,175.7,382.1,175.9,382.2,176.3z"/>
				</g>
				<g>
					<ellipse class="st9" cx="394.7" cy="192.3" rx="3.1" ry="3.2"/>
				</g>
				<g>
					<path class="st9" d="M390.8,214.6c0.2,1-0.4,2-1.4,2.3c-1,0.2-2-0.4-2.2-1.4c-0.2-1,0.4-2,1.4-2.3
						C389.5,212.9,390.5,213.6,390.8,214.6z"/>
				</g>
				<g>
					<path class="st9" d="M231.1,240c0.2,0.8-0.3,1.7-1.1,1.9c-0.8,0.2-1.6-0.3-1.8-1.2c-0.2-0.8,0.3-1.7,1.1-1.9
						C230.1,238.6,231,239.1,231.1,240z"/>
				</g>
				<g>
					<ellipse class="st9" cx="268.7" cy="335.6" rx="1.7" ry="1.7"/>
				</g>
				<g>
					<ellipse class="st9" cx="241.9" cy="316.3" rx="1.4" ry="1.5"/>
				</g>
				<g>
					<path class="st9" d="M300.6,282.4c0.2,1.1-0.4,2.2-1.5,2.5c-1.1,0.3-2.2-0.4-2.4-1.6c-0.2-1.1,0.4-2.2,1.5-2.5
						C299.3,280.6,300.4,281.3,300.6,282.4z"/>
				</g>
				<g>
					<path class="st9" d="M329.9,326.6c0.2,0.9-0.3,1.7-1.2,1.9c-0.8,0.2-1.7-0.3-1.9-1.2c-0.2-0.9,0.3-1.7,1.2-1.9
						C328.9,325.2,329.7,325.7,329.9,326.6z"/>
				</g>
				<g>
					<path class="st9" d="M341.3,335.2c0.2,0.8-0.3,1.6-1.1,1.8c-0.8,0.2-1.5-0.3-1.7-1.1c-0.2-0.8,0.3-1.6,1.1-1.8
						C340.4,333.9,341.1,334.4,341.3,335.2z"/>
				</g>
				<g>
					<path class="st9" d="M376.7,329.2c0.3,1.3-0.5,2.5-1.7,2.8s-2.4-0.5-2.7-1.7c-0.3-1.3,0.5-2.5,1.7-2.8S376.4,327.9,376.7,329.2
						z"/>
				</g>
				<g>
					<path class="st9" d="M313.6,362.5c0.2,0.8-0.3,1.6-1.1,1.7s-1.5-0.3-1.7-1.1c-0.2-0.8,0.3-1.6,1.1-1.7
						C312.7,361.2,313.5,361.7,313.6,362.5z"/>
				</g>
				<g>
					<g>
						<path class="st10" d="M392.5,329.8c-1.2,1-7.8,8.6-24.5,5.5c-16.7-3.1-18.6-13.3-22.2-10.2c-3.6,3.2-0.3,7.3,2.6,10.2
							c2.9,2.9,10.3,5.1,1.9,5.3c-8.4,0.2-15.3,2.3-29.6-9.7c-14.3-12-14.4-23.2-18-22c-3.6,1.2,2.7,8.8-0.7,10.2
							c-2.3,1-6.5-7.4-10.8-16.3c-10.9-22.8,3.9-34.9-1.2-38.4c-5.1-3.5-6.4,9.8-8.9,9.5c-2.5-0.3-5.2-12.5,3.5-28.4
							c8.7-15.9,20.2-22.7,35.8-23.2c15.6-0.5,34.7,15.1,40.1,9.4c5.4-5.7,1.3-21-12.4-27.1c-13.6-6.2-83.6,6.6-82.8,44
							c0.8,37.4,9.1,71.3,30.4,85.9c21.3,14.6,53.5,17.9,71.7,12.8C385.7,342.3,392.5,329.8,392.5,329.8L392.5,329.8z"/>
					</g>
					<g>
						<path class="st4" d="M355.6,193.6c3.1,2-21.2-8.1-21-13.1c0.2-5,45.9,5.3,42.2-1.2c-3.7-6.5-25.4-10.9-23-12.2
							c2.4-1.3,22,3.9,14.8-3.3c-7.2-7.2-36.7-5.6-63.1,6.3c-26.5,11.9-33.9,24.3-33.6,18c0.4-6.3,12.6-16.7,5.9-17.3
							c-6.7-0.6-26.6,37-31.2,63.9c-4.6,26.8,2.5,44.7-1.1,42.3c-3.6-2.3-2.8-19.9-8.9-15.1c-12,12,16,67.3,53.8,86.4
							c4,2-7.5,0.2-7.5,4.3c0,4.1,10.6,4.8,42.7,6.7c32,1.9,55.5-16.5,55.5-16.5s-42,11.2-66.6,3c-24.5-8.1-38.3-25-50.9-59.9
							c-12.6-35,6.5-73.8,32.2-84.1C321.7,191.4,355.6,193.6,355.6,193.6L355.6,193.6z"/>
					</g>
					<g>
						<path class="st11" d="M392.5,329.8c-36.3,26.3-89.5,16.8-112.4-27.1c-21.2-40.7-5.8-112.2,83.8-81.5
							c14.9,5.2,18.2,0.3,11.5-8.5c-6.7-8.9,17.5,2.7,17.6-7c0-9.7-3.6-15.7-30.5-24.8c-84.1-28.5-136.3,56.8-100.7,131.9
							C285.7,363.2,366.4,372.8,392.5,329.8L392.5,329.8z"/>
					</g>
					<g>
						<path class="st11" d="M392.5,329.8c-29.3,12.1-31.5,4.4-33.7,6c-2.2,1.6-2.4,4.6,0.9,6.2c3.3,1.6-14.9,2.8-21.6,1.7
							c-6.7-1.2-17.9-4.8-23.5-11.8c-5.6-7.1-3.7-11.6-8.2-9.2c-4.4,2.5,3.7,7-2.2,7.8c-5.9,0.9-12.1-4.6-19.2-18.6
							c-7.1-14,1.8-28.7-3.9-31.7c-5.7-3-3.8,15.7-8.3,8c-4.5-7.7-5.9-24,0-36c5.9-12,17.3-11.1,15.3-16.6s-4.7-0.7-6.2-0.1
							c-1.5,0.6,2.9-7.9,12.1-12.9c9.2-4.9,13.9-4.1,26.7-2.4c12.9,1.7,19-6.6,8.5-10.7c-10.5-4.1-47-3.6-59.3,12.9
							c-12.3,16.5-12.8,35.7-7.3,59.7c5.5,24,25.4,49.2,41.2,57c15.8,7.9,34.3,11.9,52.2,10.1C374,347.5,392.5,329.8,392.5,329.8
							L392.5,329.8z"/>
					</g>
					<g>
						<path class="st4" d="M359.6,354.1c0,0-16.2,3.5-33.5-2.8c-9-3.3-8-9.8-12.2-9.6c-4.3,0.2-3.1,5.2-0.4,8.6
							c2.7,3.4-17.2,0.2-27-12.3c-9.8-12.5-2.1-17.3-8.2-21c-6.1-3.7,2.3,16.2-4.1,9.6c-6.4-6.6-14.2-22.1-17.2-39.6
							c-2.9-17.4,12.6-25.6,5.3-32.2c-7.3-6.6-6.2,15.1-9.8,14.1c-3.7-0.9-3.1-23.2,7.7-39.6c10.8-16.4,26.4-13.2,22.1-23.5
							c-4.4-10.3-14-9-20.8,1.4c-6.8,10.4-9.9,20.5-11.6,34.7c-1.7,14.2-2.7,25.7,0.9,43.3c3.5,17.5,6.4,26.3,14.6,37.3
							c8.3,11,18.6,20.5,26.5,24.4C320.9,361.2,342.3,359.5,359.6,354.1L359.6,354.1z"/>
					</g>
				</g>
				<g>
					<path class="st12" d="M302.7,208.8c6.2-0.5,12.5,0.3,18.7,1.3c1.9,0.3,3.9,0.6,5.6-0.1c1.8-0.7,3.2-2.8,2.4-4.6
						c-0.7-1.8-3-2.5-3.5-4.3c-0.4-1.4,0.7-2.9,1.9-3.5s2.8-0.5,4.2-0.4c13.9,1.5,27.1,9.6,41,8c1.6-0.2,3.3-0.5,4.5-1.7
						c1.6-1.6,1.6-4.5,0.5-6.5c-1.1-2.1-3-3.5-4.9-4.7c-13.6-8.7-31.2-10.3-46.1-4.1c-1,0.4-2.5,0.7-2.9-0.4c-0.4-1.1,1-1.8,1.6-2.8
						c0.9-1.5-0.3-3.6-1.9-4.1c-1.6-0.5-3.3,0-4.9,0.8c-3.6,1.7-6.9,4.3-9.4,7.5c-1.2,1.5-2.2,3.1-3.7,4.2c-1.5,1.1-3.6,1.6-5.1,0.6
						c-0.6-0.4-1.2-1.1-1.9-1.2c-1.2-0.3-2.3,1-3,2c-3,4.4-5.9,8.8-8.9,13.2c-1,1.5-2,3.1-2.3,4.8c-0.1,0.6-0.4,1.7,0.1,2.1
						c0.4,0.4,1.2,0.1,1.6-0.1c1.6-0.9,3-2.1,4.7-2.9c1.7-0.8,3.5-1.5,5.3-2C298.5,209.3,300.6,209,302.7,208.8z"/>
				</g>
				<g>
					<path class="st12" d="M270.7,292.7c0.5,1.6,1.7,3.6,3.3,3.2c0.7-0.2,1.2-0.7,1.8-1c1.5-0.5,3,0.8,3.4,2.4
						c0.3,1.6-0.2,3.2-0.8,4.6c-1.2,3.1-2.5,6.1-3.9,9.1c-0.4,0.7-0.8,1.6-1.6,1.8c-1.3,0.4-2.4-1.1-3-2.5
						c-5.7-13.2-7.6-28-5.5-42.3c0.2-1.6,1-4.7,3.3-4c1.5,0.5,0.3,3.2,0.2,4.3c-0.6,5.1-0.1,10.6,0.8,15.7
						C269.1,286.9,269.8,289.9,270.7,292.7z"/>
				</g>
				<g>
					<path class="st12" d="M304.8,339.8c0.8,1.2,0.9,3-0.2,3.9c-0.7,0.6-1.7,0.6-2.6,0.4c-2-0.4-3.7-1.9-5.1-3.4
						c-1.8-1.8-3.4-3.9-4.8-6c-0.7-1.1-1.4-2.2-2-3.3c-0.2-0.4-0.8-1.2-0.4-1.6c0.7-0.7,3,0.8,3.7,1.1c1.8,1.1,3.3,2.7,4.9,4
						c1.1,0.9,2.3,1.7,3.5,2.4C302.9,338,304.1,338.7,304.8,339.8z"/>
				</g>
				<g>
					<path class="st12" d="M368.8,343.8c-4.5,1.1-9.2,1.5-13.8,2.1c-1.6,0.2-3.7,0.8-3.9,2.5c-0.2,1.1,0.7,2.2,1.7,2.6
						c1,0.5,2.1,0.4,3.2,0.3c4.8-0.4,9.5-1.8,13.7-4.1c2.1-1.2,4.1-2.5,6-4.1c0.8-0.7,1.8-1.4,2.3-2.4c0.1-0.1,0.4-0.7,0.2-0.8
						c-0.2-0.1-1,0.6-1.2,0.7C374.4,342.1,371.6,343.1,368.8,343.8z"/>
				</g>
				<g>
					<path class="st12" d="M262,243.5c0.8,0.4,1.7,0,2.3-0.7c0.6-0.7,0.8-1.6,1-2.4c0.6-2.3,1.1-4.7,2-6.8c1-2.3,2.5-4.1,4.7-5.3
						c1-0.6,1.1-1.7-0.3-1.6c-1.3,0.1-2.5,0.8-3.6,1.3c-1.3,0.7-2.8,1.3-3.7,2.5c-1.2,1.4-1.8,3.3-2.4,5c-0.5,1.5-0.8,3.1-1,4.6
						C260.9,241.3,260.8,242.9,262,243.5z"/>
				</g>
				<g>
					<path class="st13" d="M254.6,220.9c-0.3,1.5-0.4,3.5,1,4.2c0.8,0.4,1.8,0.1,2.5-0.5c0.7-0.6,1.1-1.4,1.6-2.2
						c2.9-4.8,6.9-8.9,11.7-11.8c0.7-0.4,1.5-0.9,2-1.6c0.5-0.7,0.6-1.8-0.1-2.4c-1.5-1.4-3.9,1.7-5.6,0.5c-1-0.7-0.7-2.2-0.2-3.3
						c0.6-1.2,1.5-2.3,1.9-3.5c0.4-1,0.5-2.4-0.1-3.4c-0.6-1-1.7-1.4-2.8-1.1c-0.8,0.2-1.6,0.6-2.2,1.1c-0.5,0.5-0.8,1.2-1.2,1.8
						c-1.2,2.2-2.4,4.3-3.5,6.6c-1.1,2.3-2.1,4.8-2.9,7.2c-0.8,2.4-1.5,4.9-2.1,7.5C254.8,220.2,254.7,220.5,254.6,220.9z"/>
				</g>
				<g>
					<path class="st13" d="M251.5,288.2c-0.2-0.6-0.4-1.2-0.8-1.6c-0.7-0.8-1.9-0.9-2.7-0.2c-0.8,0.6-1,1.9-0.4,2.8
						c-3-1.4-5.4-4-7.1-6.9c-1.7-2.9-2.7-6.2-3.8-9.4c-0.9,0.3-1.4,1.4-1.4,2.4c0,1,0.4,2,0.8,2.9c2.1,4.9,4.2,9.9,7.6,13.9
						c1.8,2,3.9,3.8,5.5,6c2.7,3.7,3.9,8.3,6.1,12.2c1.4,2.6,3.3,4.9,5.5,6.7c0.6,0.5,1.4,1,2.1,0.7c0.6-0.3,0.9-1,0.8-1.7
						c-0.1-0.7-0.4-1.3-0.8-1.9c-0.8-1.7-2-3.3-2.9-4.9c-1-1.7-2-3.3-3-5c-0.5-0.8-1-1.7-1.5-2.5c-0.4-0.6-0.5-1.1-0.6-1.7
						c-0.1-0.9-0.5-1.8-0.7-2.6c-0.3-0.9-0.6-1.9-0.9-2.8C252.8,292.4,252.2,290.3,251.5,288.2z"/>
				</g>
				<g>
					<path class="st13" d="M304.9,355.6c0.6,0,1.3,0.1,1.7-0.4c0.3-0.4,0.2-1.1-0.1-1.6c-0.3-0.4-0.9-0.7-1.4-0.9
						c-2.1-0.8-4.3-1.3-6.5-1.4c-1.1-0.1-2.3-0.1-3.4,0c-0.9,0-1.9,0-2.7,0.4c-0.7,0.3-1.4,0.7-1.9,1.2c-0.3,0.3-0.8,0.8-0.6,1.2
						c0.1,0.2,0.4,0.3,0.6,0.3c0.6,0.1,1.2,0.1,1.8,0.1c1.3,0.1,2.6,0.2,3.9,0.3c2.6,0.2,5.2,0.4,7.8,0.6
						C304.3,355.6,304.6,355.6,304.9,355.6z"/>
				</g>
				<g>
					<path class="st14" d="M349.9,219.7c2.4,0.6,4.7,1.7,6.4,3.5c0.6,0.7,1.2,1.5,1.4,2.4c0.2,0.9,0,2-0.7,2.6
						c-0.9,0.8-2.3,0.7-3.4,0.4c-5.2-1.3-9.7-5.4-15.1-5.4c-0.5,0-1,0-1.4-0.2c-0.4-0.2-0.8-0.7-0.7-1.2c0.2-0.7,1.2-0.8,1.9-0.6
						c2.7,0.5,5.5,0.9,8.2,1.4c0-0.9-0.9-1.4-1.7-1.6c-0.8-0.1-1.7-0.1-2.4-0.5c-0.4-0.3-1-1.1-0.4-1.5c0.5-0.3,1.3-0.2,1.8-0.2
						c0.9,0.1,1.9,0.1,2.8,0.2C347.6,219.2,348.8,219.4,349.9,219.7z"/>
				</g>
				<g>
					<path class="st14" d="M290.2,306.9c1.5,2.7,3.3,5.1,5.1,7.6c0.3,0.4,0.5,0.7,0.6,1.2c0.1,0.4-0.1,0.9-0.4,1.2
						c-0.5,0.2-1,0-1.4-0.4c-1.5-1.1-2.8-2.3-3.9-3.8c-1.1-1.5-2-3.1-2.7-4.8c-0.7-1.7-1.1-3.6-1.3-5.4c0-0.5-0.1-0.9-0.1-1.4
						c0-0.4,0-1,0.2-1.4c0.4-0.5,1.2-0.3,1.4,0.3c0.2,0.5,0.2,1.1,0.3,1.6c0.1,0.5,0.3,1.1,0.5,1.6c0.4,1.1,0.8,2.1,1.3,3.1
						C289.9,306.4,290.1,306.7,290.2,306.9z"/>
				</g>
			</g>
		</g>
	</g>
	<g>
		<g>
			<g>
				<path class="st15" d="M386.5,265.8c-2.8,0-5.1-2.4-5.1-5.3c0-2.9,2.3-5.3,5.1-5.3c2.8,0,5.1,2.4,5.1,5.3
					C391.6,263.4,389.3,265.8,386.5,265.8z M386.5,255.5c-2.7,0-4.8,2.2-4.8,5c0,2.8,2.2,5,4.8,5c2.7,0,4.8-2.2,4.8-5
					C391.4,257.8,389.2,255.5,386.5,255.5z"/>
			</g>
		</g>
		<g>
			<g>
				<g>
					<g>
						<path class="st15" d="M386.5,253.9c0,0.1,0,0.2,0,0.4c0,0.3,0,0.6,0,1c0,0.5,0,1,0,1.4c0,0.6,0,1.2,0,1.7c0,0.6,0,1.3,0,1.9
							c0,0.6,0,1.3,0,1.9c0,0.6,0,1.2,0,1.8c0,0.5,0,1,0,1.5c0,0.4,0,0.7,0,1.1c0,0.2,0,0.3,0,0.5c0,0,0,0,0,0c0,0.3,0.4,0.3,0.4,0
							c0-0.1,0-0.2,0-0.4c0-0.3,0-0.6,0-1c0-0.5,0-1,0-1.4c0-0.6,0-1.2,0-1.7c0-0.6,0-1.3,0-1.9c0-0.6,0-1.3,0-1.9
							c0-0.6,0-1.2,0-1.8c0-0.5,0-1,0-1.5c0-0.4,0-0.7,0-1.1c0-0.2,0-0.3,0-0.5c0,0,0,0,0,0C386.9,253.6,386.5,253.6,386.5,253.9
							L386.5,253.9z"/>
					</g>
				</g>
			</g>
			<g>
				<g>
					<g>
						<path class="st15" d="M393.1,260.3c-0.1,0-0.2,0-0.3,0c-0.3,0-0.6,0-0.9,0c-0.5,0-0.9,0-1.4,0c-0.6,0-1.1,0-1.7,0
							c-0.6,0-1.2,0-1.8,0c-0.6,0-1.2,0-1.9,0c-0.6,0-1.2,0-1.7,0c-0.5,0-1,0-1.5,0c-0.4,0-0.7,0-1.1,0c-0.2,0-0.3,0-0.5,0
							c0,0,0,0,0,0c-0.2,0-0.2,0.4,0,0.4c0.1,0,0.2,0,0.3,0c0.3,0,0.6,0,0.9,0c0.5,0,0.9,0,1.4,0c0.6,0,1.1,0,1.7,0
							c0.6,0,1.2,0,1.8,0c0.6,0,1.2,0,1.9,0c0.6,0,1.2,0,1.7,0c0.5,0,1,0,1.5,0c0.4,0,0.7,0,1.1,0c0.2,0,0.3,0,0.5,0c0,0,0,0,0,0
							C393.3,260.7,393.3,260.3,393.1,260.3L393.1,260.3z"/>
					</g>
				</g>
			</g>
		</g>
	</g>
	<g>
		<g>
			<g>
				<g>
					<path class="st15" d="M628.5,283.7c-0.2-3.6,0.6-4.6,1.8-6.1c0.5-0.7,1.2-1.5,1.8-2.8c2-4,3.6-7.1,0.4-13.5
						c-3.1-6.1-9.7-5.9-9.8-5.9l0,0l0,0c-0.3,0-6.7-0.3-9.8,5.9c-3.2,6.4-1.6,9.5,0.4,13.5l0.4,0.7l3-3.4l0.4,0.5c0,0,0.7,1,1.5,1.8
						c0.8,0.8,1.7,1.5,1.7,1.5l0.5,0.4l-6.2,6.6l-0.7-0.7l5.4-5.7c-0.4-0.3-0.9-0.7-1.4-1.3c-0.5-0.5-0.9-1-1.2-1.4l-3.1,3.5
						l-1.2-1.9c-2-3.9-3.9-7.6-0.4-14.5c3.3-6.5,10.2-6.5,10.7-6.4c0.5,0,7.4-0.1,10.7,6.4c3.5,6.9,1.6,10.6-0.4,14.5
						c-0.7,1.4-1.4,2.3-1.9,3c-1.1,1.4-1.7,2.2-1.5,5.4L628.5,283.7z"/>
				</g>
			</g>
		</g>
		<g>
			<g>
				<polygon class="st15" points="629.1,285.7 615.7,285.7 615.7,282.5 616.7,282.5 616.7,284.6 629.1,284.6 				"/>
			</g>
		</g>
		<g>
			<g>
				<path class="st15" d="M629.5,265.1c-0.5,0.5-1.2,0.5-1.6,0c-0.5-0.5-0.5-1.2,0-1.7c0.5-0.5,1.2-0.5,1.6,0
					C630,263.8,630,264.6,629.5,265.1z"/>
			</g>
			<g>
				<rect x="616.4" y="286.9" class="st15" width="12.9" height="1.9"/>
			</g>
			<g>
				<polygon class="st15" points="624.5,292.7 621.3,292.7 619,290 626.7,290 				"/>
			</g>
		</g>
	</g>
	<g>
		<path class="st16" d="M627.3,265.9l-2.7,2.8c0.1,0.3,0.1,0.6-0.2,0.8c-0.3,0.3-0.8,0.3-1,0c-0.3-0.3-0.3-0.8,0-1.1
			c0.2-0.2,0.5-0.3,0.8-0.2l2.7-2.8c-1.5,0.8-4.5,2.3-7.3,1.9c0,0-0.5,2.6-1.9,4.6c0,0,0.7,1,1.5,1.9c0.9,0.9,1.8,1.6,1.8,1.6
			c1.9-1.5,4.5-2,4.5-2C625.1,270.6,626.5,267.4,627.3,265.9z"/>
	</g>
	<g>
		<g>
			<line class="st15" x1="531.8" y1="293.7" x2="518.1" y2="293.7"/>
			<g>
				<rect x="518.1" y="293.6" class="st15" width="13.7" height="0.1"/>
			</g>
		</g>
		<g>
			<g>
				<path class="st15" d="M531.8,294.3c0.3,0,0.5-0.2,0.5-0.5c0-0.3-0.2-0.5-0.5-0.5c-0.3,0-0.5,0.2-0.5,0.5
					C531.3,294,531.5,294.3,531.8,294.3z"/>
			</g>
			<g>
				<path class="st15" d="M518.1,294.3c0.3,0,0.5-0.2,0.5-0.5s-0.2-0.5-0.5-0.5s-0.5,0.2-0.5,0.5C517.5,294,517.8,294.3,518.1,294.3
					z"/>
			</g>
		</g>
		<g>
			<g>
				<path class="st15" d="M524.9,293.5c3.6,0,6.5,3,6.5,6.7h-0.4c0-3.5-2.8-6.3-6.2-6.3c-3.4,0-6.2,2.8-6.2,6.3h-0.4
					C518.4,296.5,521.3,293.5,524.9,293.5z"/>
			</g>
		</g>
		<g>
			<g>
				<path class="st15" d="M518.2,299.6l0.8,0c0.1,0,0.1,0,0.1,0.1v0.8c0,0.1,0,0.1-0.1,0.1h-0.8c-0.1,0-0.1,0-0.1-0.1v-0.8
					C518,299.7,518.1,299.6,518.2,299.6z"/>
			</g>
			<g>
				<path class="st15" d="M530.9,299.6l0.8,0c0.1,0,0.1,0,0.1,0.1v0.8c0,0.1,0,0.1-0.1,0.1l-0.8,0c-0.1,0-0.1,0-0.1-0.1v-0.8
					C530.8,299.7,530.8,299.6,530.9,299.6z"/>
			</g>
		</g>
		<g>
			<path class="st15" d="M524.5,293.1l0.8,0c0.1,0,0.1,0,0.1,0.1v0.8c0,0.1,0,0.1-0.1,0.1l-0.8,0c-0.1,0-0.1,0-0.1-0.1l0-0.8
				C524.4,293.2,524.5,293.1,524.5,293.1z"/>
		</g>
	</g>
	<g>
		<g>
			<path class="st3" d="M476.7,219.4l0-11.5c-2,4.4-4.6,8.3-7.6,12c2.5,1.7,3.5,3.8,3.6,6.2l4.5,0l4.5,0c0.1-2.4,1.2-4.5,3.6-6.2
				c-3-3.6-5.6-7.6-7.6-12l0,11.5c0.4,0.2,0.7,0.5,0.7,1c0,0.6-0.6,1.1-1.2,1.1c-0.7,0-1.2-0.5-1.2-1.1
				C476.1,219.9,476.3,219.6,476.7,219.4L476.7,219.4z"/>
			<rect x="472.6" y="226.7" class="st3" width="9.3" height="2.4"/>
			<path class="st3" d="M472.6,229.6l9.3,0l0,6.6h0c0,0,0,0,0,0c0,0.4-2.8,0-4.8,0c-1.9,0-4.5,0.4-4.5,0c0,0,0,0,0,0l0,0
				L472.6,229.6z"/>
		</g>
		<g>
			<g>
				<g>
					<path class="st17" d="M473.9,222l0-11.5c-2,4.4-4.6,8.3-7.6,12c2.5,1.7,3.5,3.8,3.6,6.2l4.5,0l4.5,0c0.1-2.4,1.2-4.5,3.6-6.2
						c-3-3.6-5.6-7.6-7.6-12l0,11.5c0.4,0.2,0.7,0.5,0.7,1c0,0.6-0.6,1.1-1.2,1.1c-0.7,0-1.2-0.5-1.2-1.1
						C473.2,222.5,473.5,222.1,473.9,222L473.9,222z"/>
				</g>
				<g>
					<rect x="469.8" y="229.2" class="st17" width="9.3" height="2.4"/>
				</g>
				<g>
					<path class="st17" d="M469.8,232.2l9.3,0l0,6.6h0c0,0,0,0,0,0c0,0.4-2.8,0-4.8,0c-1.9,0-4.5,0.4-4.5,0c0,0,0,0,0,0l0,0
						L469.8,232.2z"/>
				</g>
			</g>
		</g>
	</g>
	<g id="txt_9_">
		<g>
			<path class="st2" d="M373,245.7c0-1.8,1.3-3.4,3.1-3.6c3.2-0.4,7-0.7,10.7-0.7c7.7,0,12.7,1.5,16.1,4.7c2.8,2.6,4.4,6.5,4.4,10.9
				c0,7.6-4.6,12.6-10.5,14.7v0.3c4.3,1.5,6.9,5.6,8.2,11.6c1,4.6,1.9,8.3,2.7,11.1c0.6,2.3-1.1,4.7-3.4,4.7l0,0
				c-1.5,0-2.9-1-3.4-2.5c-0.8-2.5-1.7-6.3-2.7-11.2c-1.7-7.9-4.6-10.9-11.2-11.2l-3.2,0c-2,0-3.6,1.6-3.6,3.7l0,17.6
				c0,2-1.6,3.7-3.6,3.7h-0.1c-2,0-3.6-1.6-3.6-3.7L373,245.7z M380.2,265.2c0,2,1.6,3.7,3.6,3.7l3.8,0c7.7,0,12.6-4.4,12.6-10.9
				c0-7.4-5.2-10.7-12.8-10.8c-1.5,0-2.8,0.1-3.9,0.2c-1.8,0.2-3.2,1.8-3.2,3.7L380.2,265.2z"/>
			<path class="st2" d="M443.4,272.4l-15.7,0c-1.6,0-3,1.4-3,3.1l0,14.6c0,1.7,1.3,3.1,3,3.1l18.2,0c1.6,0,3,1.4,3,3.1l0,0.1
				c0,1.7-1.3,3.1-3,3.1l-25.4,0c-1.6,0-3-1.4-3-3.1l0-51.4c0-1.7,1.3-3.1,3-3.1l24.2,0c1.6,0,3,1.4,3,3.1v0.1c0,1.7-1.3,3.1-3,3.1
				l-17,0c-1.6,0-3,1.4-3,3.1l0,12c0,1.7,1.3,3.1,3,3.1l15.7,0c1.6,0,3,1.4,3,3.1v0C446.4,271.1,445,272.4,443.4,272.4z"/>
			<path class="st2" d="M466.4,283.8l-4.2,13.1c-0.5,1.5-1.8,2.5-3.3,2.5h0c-2.4,0-4.1-2.4-3.3-4.8l16.6-50.3
				c0.5-1.5,1.8-2.5,3.3-2.5l3.7,0c1.5,0,2.8,1,3.3,2.5l16.6,50.3c0.8,2.4-0.9,4.8-3.3,4.8h-0.3c-1.5,0-2.8-1-3.3-2.5l-4.3-13.2
				c-0.5-1.5-1.8-2.5-3.3-2.5l-14.7,0C468.2,281.3,466.9,282.3,466.4,283.8z M480.6,275.5c2.4,0,4.1-2.4,3.3-4.8l-3.9-11.8
				c-1.2-3.8-2.1-7.2-2.9-10.5H477c-0.8,3.4-1.7,6.9-2.8,10.4l-3.9,11.9c-0.8,2.4,0.9,4.8,3.3,4.8L480.6,275.5z"/>
			<path class="st2" d="M508.8,295.9l0-50.6c0-1.9,1.5-3.5,3.4-3.5l2.6,0c1.2,0,2.2,0.6,2.9,1.6l16.9,27.5c4.1,6.8,7.4,12.8,10,18.7
				l0.2-0.1c-0.7-7.7-0.8-14.7-0.8-23.7l0-20.6c0-1.9,1.5-3.5,3.4-3.5h0c1.9,0,3.4,1.6,3.4,3.5l0,50.6c0,1.9-1.5,3.5-3.4,3.5l-2,0
				c-1.2,0-2.3-0.6-2.9-1.6l-16.7-27.6c-3.9-6.4-7.6-13-10.4-19.2l-0.2,0.1c0.4,7.3,0.6,14.2,0.6,23.8l0,21.1c0,1.9-1.5,3.5-3.4,3.5
				l0,0C510.3,299.4,508.8,297.9,508.8,295.9z"/>
			<path class="st2" d="M566.2,241.8l24.1,0c1.6,0,3,1.4,3,3.1v0.1c0,1.7-1.3,3.1-3,3.1l-16.9,0c-1.6,0-3,1.4-3,3.1l0,13
				c0,1.7,1.3,3.1,3,3.1l15.1,0c1.6,0,3,1.4,3,3.1l0,0c0,1.7-1.3,3.1-3,3.1l-15.1,0c-1.6,0-3,1.4-3,3.1l0,19.9c0,1.7-1.3,3.1-3,3.1
				h-1.2c-1.6,0-3-1.4-3-3.1l0-51.4C563.2,243.2,564.6,241.8,566.2,241.8z"/>
			<path class="st2" d="M651.2,270c0,19.8-11.7,30.3-25.9,30.3c-14.7,0-25.1-11.8-25.1-29.2c0-18.3,11-30.2,25.9-30.2
				C641.3,240.9,651.2,252.9,651.2,270z M607.9,271c0,12.3,6.5,23.3,17.8,23.3c11.4,0,17.9-10.9,17.9-23.9
				c0-11.4-5.8-23.4-17.8-23.4C613.9,247,607.9,258.3,607.9,271z"/>
			<path class="st2" d="M366.3,294.7c0.5,2.1-0.7,4.3-2.8,4.9c-3.3,1.1-8,2-13.5,2c-17.9,0-29.6-12.3-29.6-30.7
				c0-18.5,12.5-31.9,31.9-31.9c4.2,0,8.1,0.7,11.1,1.6c2.2,0.7,3.5,3,2.8,5.2l-0.1,0.2c-0.7,2.2-3,3.5-5.2,2.8
				c-2.3-0.7-5.1-1.2-8.6-1.2c-13.6,0-21,10.2-21,22.7c0,13.9,8.8,22.5,20.6,22.5c3.7,0,6.6-0.6,9-1.3
				C363.3,290.9,365.7,292.3,366.3,294.7L366.3,294.7z"/>
		</g>
		<g>
			<g>
				<g>
					<path class="st15" d="M370.2,248.3c0-1.8,1.3-3.4,3.1-3.6c3.2-0.4,7-0.7,10.7-0.7c7.7,0,12.7,1.5,16.1,4.7
						c2.8,2.6,4.4,6.5,4.4,10.9c0,7.6-4.6,12.6-10.5,14.7v0.3c4.3,1.5,6.9,5.6,8.2,11.6c1,4.6,1.9,8.3,2.7,11.1
						c0.6,2.3-1.1,4.7-3.4,4.7h0c-1.5,0-2.9-1-3.4-2.5c-0.8-2.5-1.7-6.3-2.7-11.2c-1.7-7.9-4.6-10.9-11.2-11.2l-3.2,0
						c-2,0-3.6,1.6-3.6,3.7l0,17.6c0,2-1.6,3.7-3.6,3.7h-0.1c-2,0-3.6-1.6-3.6-3.7L370.2,248.3z M377.4,267.7c0,2,1.6,3.7,3.6,3.7
						l3.8,0c7.7,0,12.6-4.4,12.6-10.9c0-7.4-5.2-10.7-12.8-10.8c-1.5,0-2.8,0.1-3.9,0.2c-1.8,0.2-3.2,1.8-3.2,3.7L377.4,267.7z"/>
				</g>
				<g>
					<path class="st15" d="M440.6,275l-15.7,0c-1.6,0-3,1.4-3,3.1l0,14.6c0,1.7,1.3,3.1,3,3.1l18.2,0c1.6,0,3,1.4,3,3.1v0.1
						c0,1.7-1.3,3.1-3,3.1l-25.4,0c-1.6,0-3-1.4-3-3.1l0-51.4c0-1.7,1.3-3.1,3-3.1l24.2,0c1.6,0,3,1.4,3,3.1v0.1
						c0,1.7-1.3,3.1-3,3.1l-17,0c-1.6,0-3,1.4-3,3.1l0,12c0,1.7,1.3,3.1,3,3.1l15.7,0c1.6,0,3,1.4,3,3.1v0
						C443.5,273.6,442.2,275,440.6,275z"/>
				</g>
				<g>
					<path class="st15" d="M463.6,286.4l-4.2,13.1c-0.5,1.5-1.8,2.5-3.3,2.5l0,0c-2.4,0-4.1-2.4-3.3-4.8l16.6-50.3
						c0.5-1.5,1.8-2.5,3.3-2.5l3.7,0c1.5,0,2.8,1,3.3,2.5l16.6,50.3c0.8,2.4-0.9,4.8-3.3,4.8h-0.3c-1.5,0-2.8-1-3.3-2.5l-4.3-13.2
						c-0.5-1.5-1.8-2.5-3.3-2.5l-14.7,0C465.4,283.9,464.1,284.9,463.6,286.4z M477.8,278.1c2.4,0,4.1-2.4,3.3-4.8l-3.9-11.8
						c-1.2-3.8-2.1-7.2-2.9-10.5h-0.2c-0.8,3.4-1.7,6.9-2.8,10.4l-3.9,11.9c-0.8,2.4,0.9,4.8,3.3,4.8L477.8,278.1z"/>
				</g>
				<g>
					<path class="st15" d="M506,298.5l0-50.6c0-1.9,1.5-3.5,3.4-3.5l2.6,0c1.2,0,2.2,0.6,2.9,1.6l16.9,27.5
						c4.1,6.8,7.4,12.8,10,18.7l0.2-0.1c-0.7-7.7-0.8-14.7-0.8-23.7l0-20.6c0-1.9,1.5-3.5,3.4-3.5h0c1.9,0,3.4,1.6,3.4,3.5l0,50.6
						c0,1.9-1.5,3.5-3.4,3.5l-2,0c-1.2,0-2.3-0.6-2.9-1.6l-16.7-27.6c-3.9-6.4-7.6-13-10.4-19.2l-0.2,0.1c0.4,7.3,0.6,14.2,0.6,23.8
						l0,21.1c0,1.9-1.5,3.5-3.4,3.5l0,0C507.5,302,506,300.4,506,298.5z"/>
				</g>
				<g>
					<path class="st15" d="M563.4,244.4l24.1,0c1.6,0,3,1.4,3,3.1v0.1c0,1.7-1.3,3.1-3,3.1l-16.9,0c-1.6,0-3,1.4-3,3.1l0,13
						c0,1.7,1.3,3.1,3,3.1l15.1,0c1.6,0,3,1.4,3,3.1l0,0c0,1.7-1.3,3.1-3,3.1l-15.1,0c-1.6,0-3,1.4-3,3.1l0,19.9
						c0,1.7-1.3,3.1-3,3.1h-1.2c-1.6,0-3-1.4-3-3.1l0-51.4C560.4,245.8,561.7,244.4,563.4,244.4z"/>
				</g>
				<g>
					<path class="st15" d="M648.3,272.6c0,19.8-11.7,30.3-25.9,30.3c-14.7,0-25.1-11.8-25.1-29.2c0-18.3,11-30.2,25.9-30.2
						C638.5,243.5,648.3,255.5,648.3,272.6z M605.1,273.5c0,12.3,6.5,23.3,17.8,23.3c11.4,0,17.9-10.9,17.9-23.9
						c0-11.4-5.8-23.4-17.8-23.4C611,249.5,605.1,260.9,605.1,273.5z"/>
				</g>
				<g>
					<path class="st15" d="M363.4,297.3c0.5,2.1-0.7,4.3-2.8,4.9c-3.3,1.1-8,2-13.5,2c-17.9,0-29.6-12.3-29.6-30.7
						c0-18.5,12.5-31.9,31.9-31.9c4.2,0,8.1,0.7,11.1,1.6c2.2,0.7,3.5,3,2.8,5.2l-0.1,0.2c-0.7,2.2-3,3.5-5.2,2.8
						c-2.3-0.7-5.1-1.2-8.6-1.2c-13.6,0-21,10.2-21,22.7c0,13.9,8.8,22.5,20.6,22.5c3.7,0,6.6-0.6,9-1.3
						C360.5,293.5,362.9,294.9,363.4,297.3L363.4,297.3z"/>
				</g>
			</g>
		</g>
	</g>
	<g id="rs">
		<g>
			<path class="st2" d="M370.9,436c-0.3,0-0.7,0-1,0c-0.4,0-0.8-0.1-1.2-0.2c-0.3-0.1-0.6-0.1-0.9-0.2c-0.5-0.1-1-0.3-1.4-0.4
				c-0.4-0.1-0.7-0.3-1.1-0.5c-0.5-0.3-1.1-0.5-1.6-0.9c-0.6-0.4-1.3-0.9-1.8-1.4c-0.6-0.5-1.1-1.1-1.6-1.7
				c-0.6-0.8-1.2-1.7-1.6-2.6c-0.3-0.6-0.5-1.2-0.8-1.9c-0.2-0.5-0.3-1.1-0.4-1.7c-0.1-0.5-0.2-1.1-0.2-1.6c0-0.4-0.1-0.8-0.1-1.2
				c0-0.7,0.1-1.3,0.1-2c0.1-0.6,0.2-1.3,0.4-1.9c0.2-0.6,0.4-1.2,0.6-1.7c0.3-0.6,0.5-1.2,0.9-1.7c0.5-0.8,1-1.5,1.6-2.2
				c0.5-0.6,1.1-1.1,1.7-1.6c0.6-0.5,1.2-0.9,1.8-1.3c0.6-0.3,1.2-0.7,1.9-0.9c0.4-0.2,0.8-0.3,1.2-0.4c0.5-0.2,1-0.3,1.5-0.3
				c0.4-0.1,0.8-0.1,1.3-0.1c0.3,0,0.6-0.1,0.8,0c0.5,0,1,0,1.5,0.1c0.4,0,0.7,0.1,1.1,0.2c0.4,0.1,0.7,0.2,1.1,0.3
				c0.7,0.2,1.4,0.5,2.1,0.8c1,0.4,1.8,1,2.7,1.7c0.7,0.5,1.3,1.1,1.9,1.8c0.6,0.7,1.1,1.4,1.5,2.1c0.3,0.6,0.6,1.2,0.9,1.8
				c0.3,0.8,0.6,1.6,0.8,2.4c0.1,0.6,0.2,1.2,0.3,1.8c0,0.2,0,0.4,0,0.6c0,1,0,1.9-0.1,2.9c-0.1,0.9-0.3,1.8-0.6,2.7
				c-0.3,0.9-0.7,1.8-1.2,2.7c-0.5,0.8-1,1.6-1.6,2.3c-0.7,0.8-1.5,1.6-2.4,2.2c-0.7,0.5-1.5,1-2.3,1.3c-0.6,0.2-1.1,0.5-1.7,0.6
				c-0.7,0.2-1.3,0.3-2,0.4c-0.6,0.1-1.2,0.1-1.9,0.1C371,436,370.9,436,370.9,436z M372,425C372,425,372,425,372,425
				c0-0.9,0-1.8,0-2.7c0-0.2,0-0.2,0.2-0.2c0.5,0,1,0,1.5,0c0.2,0,0.2,0,0.2-0.2c0.1-0.6,0.1-1.2,0.2-1.8c0-0.2,0-0.2-0.2-0.2
				c-0.6,0-1.1,0-1.7,0c-0.2,0-0.2,0-0.2-0.2c0-0.4,0-0.8,0-1.2c0-0.1,0-0.2,0-0.3c0.1-0.4,0.3-0.7,0.7-0.8c0.2,0,0.4,0,0.6-0.1
				c0.2,0,0.5,0,0.7,0c0.1,0,0.2,0,0.2-0.2c0-0.6,0-1.1,0-1.7c0-0.1,0-0.1-0.2-0.2c-0.5-0.1-1.1-0.1-1.6-0.1c-0.3,0-0.7,0.1-1,0.2
				c-0.5,0.2-0.9,0.5-1.2,1c-0.3,0.5-0.4,1-0.4,1.6c0,0.5,0,1.1,0,1.6c0,0.2,0,0.2-0.2,0.2c-0.5,0-0.9,0-1.4,0c-0.2,0-0.2,0-0.2,0.2
				c0,0.6,0,1.2,0,1.8c0,0,0,0,0,0.1c0,0.1,0,0.1,0.1,0.1c0,0,0.1,0,0.1,0c0.4,0,0.9,0,1.3,0c0.3,0,0.3,0,0.3,0.3c0,1.7,0,3.5,0,5.2
				c0,0,0,0.1,0,0.1c0,0,0,0.1,0.1,0.1c0,0,0.1,0,0.1,0c0.5,0,1,0,1.5,0c0.1,0,0.3,0,0.4,0c0.1,0,0.1,0,0.1-0.1c0,0,0-0.1,0-0.1
				C372,426.7,372,425.9,372,425z"/>
			<path class="st2" d="M372,425c0,0.9,0,1.7,0,2.6c0,0,0,0.1,0,0.1c0,0.1,0,0.1-0.1,0.1c-0.1,0-0.3,0-0.4,0c-0.5,0-1,0-1.5,0
				c0,0-0.1,0-0.1,0c0,0-0.1,0-0.1-0.1c0,0,0-0.1,0-0.1c0-1.7,0-3.5,0-5.2c0-0.3,0-0.3-0.3-0.3c-0.4,0-0.9,0-1.3,0c0,0-0.1,0-0.1,0
				c-0.1,0-0.1,0-0.1-0.1c0,0,0,0,0-0.1c0-0.6,0-1.2,0-1.8c0-0.2,0-0.2,0.2-0.2c0.5,0,0.9,0,1.4,0c0.2,0,0.2,0,0.2-0.2
				c0-0.5,0-1.1,0-1.6c0-0.6,0.1-1.1,0.4-1.6c0.3-0.5,0.7-0.8,1.2-1c0.3-0.1,0.7-0.2,1-0.2c0.5,0,1.1,0,1.6,0.1c0.1,0,0.1,0,0.2,0.2
				c0,0.6,0,1.1,0,1.7c0,0.1,0,0.2-0.2,0.2c-0.2,0-0.5,0-0.7,0c-0.2,0-0.4,0-0.6,0.1c-0.4,0.1-0.6,0.3-0.7,0.8c0,0.1,0,0.2,0,0.3
				c0,0.4,0,0.8,0,1.2c0,0.2,0,0.2,0.2,0.2c0.6,0,1.1,0,1.7,0c0.2,0,0.2,0,0.2,0.2c-0.1,0.6-0.1,1.2-0.2,1.8c0,0.1,0,0.2-0.2,0.2
				c-0.5,0-1,0-1.5,0c-0.2,0-0.2,0-0.2,0.2C372,423.3,372,424.1,372,425C372,425,372,425,372,425z"/>
			<path class="st2" d="M339.4,436.3c-0.3,0-0.7,0-1.1,0c-0.3,0-0.7-0.1-1-0.1c-0.2,0-0.3,0-0.5-0.1c-0.6-0.1-1.2-0.3-1.8-0.5
				c-0.8-0.3-1.5-0.6-2.2-0.9c-1-0.5-1.9-1.2-2.8-1.9c-0.3-0.3-0.6-0.6-0.9-0.8c-0.7-0.7-1.3-1.5-1.8-2.4c-0.4-0.7-0.8-1.5-1.1-2.3
				c-0.3-0.7-0.5-1.4-0.7-2.1c-0.2-0.7-0.3-1.5-0.4-2.3c0-0.6-0.1-1.2-0.1-1.9c0-0.7,0.1-1.4,0.2-2.1c0.1-0.6,0.3-1.2,0.4-1.8
				c0.2-0.8,0.5-1.5,0.9-2.2c0.3-0.6,0.6-1.2,1-1.7c0.5-0.7,1-1.3,1.5-1.9c0.5-0.5,1-1,1.5-1.4c0.9-0.7,1.8-1.2,2.8-1.7
				c0.6-0.3,1.3-0.5,2-0.7c0.5-0.1,0.9-0.3,1.4-0.3c0.4-0.1,0.9-0.1,1.3-0.2c0.2,0,0.4,0,0.6,0c0.4,0,0.7,0,1.1,0
				c0.5,0,1,0.1,1.5,0.2c0.4,0.1,0.9,0.2,1.3,0.3c0.7,0.2,1.5,0.4,2.2,0.8c0.9,0.4,1.8,0.9,2.7,1.6c0.6,0.4,1.2,0.9,1.7,1.5
				c0.5,0.5,0.9,1,1.3,1.5c0.5,0.6,0.9,1.3,1.2,2c0.3,0.6,0.6,1.3,0.8,1.9c0.2,0.7,0.4,1.4,0.6,2.1c0.1,0.7,0.2,1.4,0.3,2.1
				c0,0.4,0,0.9,0,1.3c0,0.3-0.1,0.6-0.1,1c0,0.5-0.1,0.9-0.1,1.4c-0.1,0.4-0.1,0.9-0.3,1.3c-0.3,0.9-0.6,1.8-1,2.6
				c-0.3,0.6-0.6,1.2-1,1.7c-0.4,0.5-0.8,1.1-1.2,1.6c-0.8,0.9-1.8,1.7-2.8,2.4c-0.5,0.3-1,0.6-1.5,0.9c-0.6,0.3-1.2,0.6-1.9,0.8
				c-0.7,0.2-1.3,0.4-2,0.5C340.9,436.2,340.2,436.3,339.4,436.3z M345.2,421.5C345.2,421.5,345.2,421.5,345.2,421.5
				c0-0.3,0-0.6,0-0.9c0-0.6,0-1.2,0-1.8c0-0.3-0.1-0.7-0.2-1c-0.3-1-1-1.6-1.9-2c-0.3-0.1-0.6-0.2-1-0.2c-0.5,0-1-0.1-1.5-0.1
				c-0.4,0-0.9,0-1.3,0c-0.8,0-1.7-0.1-2.5,0c-0.5,0-0.9,0.1-1.4,0.3c-1.1,0.5-1.7,1.3-1.9,2.5c-0.1,0.5-0.1,1.1-0.1,1.6
				c0,1-0.1,2-0.1,3c0,0.6,0,1.2,0.1,1.8c0.1,0.5,0.2,1,0.5,1.5c0.4,0.6,1,1.1,1.7,1.3c0.4,0.1,0.8,0.2,1.2,0.2
				c1.4,0,2.9,0.1,4.3,0.1c0.4,0,0.8,0,1.2-0.1c0.5-0.1,0.9-0.2,1.4-0.5c0.6-0.5,1.1-1.1,1.3-1.8c0.1-0.4,0.2-0.8,0.2-1.2
				C345.1,423.3,345.1,422.4,345.2,421.5z"/>
			<path class="st2" d="M345.2,421.5c0,0.9-0.1,1.7-0.1,2.6c0,0.4-0.1,0.8-0.2,1.2c-0.2,0.8-0.6,1.4-1.3,1.8
				c-0.4,0.3-0.9,0.5-1.4,0.5c-0.4,0.1-0.8,0.1-1.2,0.1c-1.4,0-2.9-0.1-4.3-0.1c-0.4,0-0.8-0.1-1.2-0.2c-0.7-0.2-1.3-0.7-1.7-1.3
				c-0.3-0.4-0.5-0.9-0.5-1.5c-0.1-0.6-0.1-1.2-0.1-1.8c0-1,0-2,0.1-3c0-0.5,0-1.1,0.1-1.6c0.2-1.2,0.8-2,1.9-2.5
				c0.4-0.2,0.9-0.2,1.4-0.3c0.8,0,1.7,0,2.5,0c0.4,0,0.9,0,1.3,0c0.5,0,1,0.1,1.5,0.1c0.3,0,0.7,0.1,1,0.2c0.9,0.4,1.6,1,1.9,2
				c0.1,0.3,0.2,0.6,0.2,1c0,0.6,0,1.2,0,1.8C345.2,420.9,345.2,421.2,345.2,421.5C345.2,421.5,345.2,421.5,345.2,421.5z
				 M344.1,421.5C344.1,421.5,344.1,421.5,344.1,421.5c0-0.1,0-0.1,0-0.2c0-0.9,0.1-1.8,0-2.6c0-0.3-0.1-0.5-0.2-0.8
				c-0.3-0.6-0.7-1-1.4-1.1c-0.2-0.1-0.5-0.1-0.7-0.1c-0.8-0.1-1.6-0.1-2.4-0.1c-0.9,0-1.8-0.1-2.7,0c-0.4,0-0.7,0.1-1.1,0.3
				c-0.5,0.3-0.9,0.8-1,1.4c-0.1,0.5-0.1,1-0.2,1.5c0,0.9,0,1.8-0.1,2.6c0,0.7,0,1.5,0,2.2c0.1,0.5,0.3,0.9,0.6,1.3
				c0.2,0.2,0.5,0.4,0.8,0.5c0.4,0.1,0.8,0.2,1.2,0.2c1,0,2,0.1,3.1,0.1c0.6,0,1.1,0.1,1.7,0c0.3,0,0.6-0.1,0.9-0.2
				c0.7-0.3,1.1-0.8,1.2-1.6c0.1-0.3,0.1-0.7,0.1-1C344,423.1,344.1,422.3,344.1,421.5z"/>
			<path class="st2" d="M344.1,421.5c0,0.8-0.1,1.6-0.1,2.3c0,0.3,0,0.7-0.1,1c-0.2,0.7-0.5,1.3-1.2,1.6c-0.3,0.1-0.6,0.2-0.9,0.2
				c-0.6,0.1-1.1,0-1.7,0c-1,0-2-0.1-3.1-0.1c-0.4,0-0.8-0.1-1.2-0.2c-0.3-0.1-0.6-0.3-0.8-0.5c-0.4-0.4-0.6-0.8-0.6-1.3
				c-0.1-0.7-0.1-1.5,0-2.2c0-0.9,0-1.8,0.1-2.6c0-0.5,0.1-1,0.2-1.5c0.1-0.6,0.5-1.1,1-1.4c0.3-0.2,0.7-0.3,1.1-0.3
				c0.9-0.1,1.8,0,2.7,0c0.8,0,1.6,0,2.4,0.1c0.2,0,0.5,0.1,0.7,0.1c0.6,0.1,1.1,0.5,1.4,1.1c0.1,0.2,0.2,0.5,0.2,0.8
				c0.1,0.9,0.1,1.8,0,2.6C344.1,421.4,344.1,421.5,344.1,421.5C344.1,421.5,344.1,421.5,344.1,421.5z M339.2,424.8
				c1.6,0.1,3-1.3,3.1-3.1c0-1.7-1.3-3.1-3-3.2c-1.7,0-3.1,1.4-3.1,3.1C336.2,423.3,337.6,424.8,339.2,424.8z M343.2,418.5
				c0-0.4-0.3-0.7-0.7-0.7c-0.4,0-0.7,0.3-0.7,0.7c0,0.4,0.3,0.8,0.7,0.8C342.8,419.2,343.2,418.9,343.2,418.5z"/>
			<path class="st2" d="M339.2,424.8c-1.6,0-3-1.4-3-3.2c0-1.7,1.4-3.1,3.1-3.1c1.7,0,3,1.5,3,3.2
				C342.3,423.4,340.8,424.8,339.2,424.8z M339.3,423.7c1,0,2-0.9,2-2.1c0-1.1-0.9-2-1.9-2c-1.2,0-2,1-2,2.1
				C337.3,422.7,338.1,423.7,339.3,423.7z"/>
			<path class="st2" d="M343.2,418.5c0,0.4-0.3,0.7-0.7,0.7c-0.4,0-0.7-0.4-0.7-0.8c0-0.4,0.3-0.7,0.7-0.7
				C342.9,417.7,343.2,418.1,343.2,418.5z"/>
			<path class="st2" d="M339.3,423.7c-1.1,0-2-1-2-2c0-1.1,0.9-2.1,2-2.1c1.1,0,1.9,1,1.9,2C341.2,422.8,340.3,423.7,339.3,423.7z"
				/>
			<path class="st2" d="M320.1,421.8c0,0.2,0,0.4,0,0.5c0,0.5-0.1,1-0.2,1.5c-0.1,0.6-0.2,1.2-0.4,1.8c-0.2,0.7-0.6,1.4-0.9,2.1
				c-0.3,0.5-0.6,1-1,1.5c-0.4,0.5-0.8,0.9-1.2,1.3c-0.6,0.5-1.2,1-1.8,1.4c-0.6,0.4-1.2,0.7-1.8,0.9c-0.4,0.2-0.8,0.3-1.2,0.4
				c-0.3,0.1-0.7,0.2-1,0.2c-0.5,0.1-1,0.2-1.6,0.2c-0.5,0-1,0-1.4,0c-0.4,0-0.7-0.1-1.1-0.1c-0.6-0.1-1.2-0.2-1.8-0.4
				c-0.4-0.1-0.8-0.3-1.2-0.5c-0.5-0.2-1-0.5-1.4-0.8c-0.5-0.4-1.1-0.7-1.5-1.2c-0.4-0.4-0.8-0.7-1.1-1.2c-0.4-0.4-0.7-0.9-1-1.3
				c-0.4-0.6-0.6-1.1-0.9-1.7c-0.2-0.5-0.4-0.9-0.5-1.4c-0.1-0.3-0.2-0.7-0.2-1c-0.1-0.3-0.1-0.5-0.1-0.8c-0.1-0.4-0.1-0.8-0.1-1.2
				c0-0.4,0-0.8,0-1.2c0-0.5,0.1-1,0.2-1.4c0.1-0.5,0.2-0.9,0.3-1.4c0.2-0.7,0.5-1.5,0.9-2.1c0.3-0.6,0.6-1.1,1-1.6
				c0.4-0.5,0.8-1,1.2-1.4c0.6-0.6,1.2-1.1,1.9-1.5c0.7-0.4,1.4-0.8,2.1-1.1c0.3-0.1,0.7-0.2,1-0.3c0.4-0.1,0.9-0.2,1.3-0.3
				c0.4,0,0.7-0.1,1.1-0.1c0.2,0,0.4,0,0.7,0c0.4,0,0.9,0,1.3,0.1c0.3,0,0.6,0.1,1,0.1c0.3,0.1,0.6,0.1,1,0.2
				c0.6,0.2,1.2,0.4,1.7,0.6c0.5,0.2,0.9,0.5,1.4,0.8c1,0.6,1.8,1.4,2.6,2.3c0.5,0.5,0.9,1.1,1.2,1.7c0.5,0.8,0.8,1.6,1.1,2.4
				c0.2,0.5,0.3,1.1,0.4,1.7c0.1,0.6,0.2,1.2,0.2,1.8C320.1,421.4,320.1,421.6,320.1,421.8C320.1,421.8,320.1,421.8,320.1,421.8z
				 M309.2,424.5C309.2,424.5,309.2,424.5,309.2,424.5c0-0.7,0-1.5,0-2.2c0,0,0-0.1,0-0.1c0-0.1,0-0.1,0.1-0.1c0,0,0.1,0,0.1,0
				c0.4,0,0.8,0,1.2,0c0.1,0,0.2,0,0.2-0.2c0-0.2,0-0.4,0.1-0.6c0-0.3,0.1-0.6,0.1-0.9c0-0.1,0-0.1-0.1-0.1c0,0-0.1,0-0.1,0
				c-0.5,0-0.9,0-1.4,0c0,0-0.1,0-0.1,0c-0.1,0-0.1,0-0.1-0.1c0,0,0,0,0-0.1c0-0.4,0-0.7,0-1.1c0-0.1,0-0.2,0-0.2
				c0-0.4,0.2-0.6,0.6-0.7c0.2,0,0.4,0,0.5,0c0.2,0,0.4,0,0.6,0c0.1,0,0.1,0,0.1-0.1c0-0.5,0-0.9,0-1.4c0-0.1,0-0.1-0.1-0.1
				c-0.5-0.1-1-0.1-1.4-0.1c-0.3,0-0.5,0.1-0.8,0.2c-0.7,0.3-1.1,0.8-1.3,1.5c-0.1,0.3-0.1,0.6-0.1,0.9c0,0.4,0,0.8,0,1.3
				c0,0.1,0,0.1-0.1,0.1c-0.2,0-0.4,0-0.6,0c-0.2,0-0.5,0-0.7,0c-0.1,0-0.1,0-0.1,0.1c0,0,0,0,0,0.1c0,0.5,0,1,0,1.5
				c0,0,0,0.1,0,0.1c0,0.1,0,0.1,0.1,0.1c0,0,0.1,0,0.1,0c0.4,0,0.8,0,1.2,0c0.2,0,0.2,0,0.2,0.2c0,1.5,0,3,0,4.4c0,0,0,0.1,0,0.1
				c0,0.1,0,0.1,0.1,0.1c0,0,0.1,0,0.1,0c0.4,0,0.8,0,1.2,0c0.1,0,0.3,0,0.4,0c0.1,0,0.1,0,0.1-0.1c0,0,0-0.1,0-0.1
				C309.2,425.9,309.2,425.2,309.2,424.5z"/>
			<path class="st2" d="M306.8,427.7c-0.3,0-0.6,0-0.9,0c-0.4-0.1-0.8-0.3-1.2-0.6c0,0-0.1-0.1-0.1-0.1c-0.4-0.2-0.6-0.5-0.8-0.9
				c-0.1-0.2-0.3-0.3-0.4-0.5c0-0.1-0.1-0.2-0.1-0.3c-0.1-0.3-0.1-0.7-0.2-1c-0.1-0.3-0.1-0.6,0-0.9c0-0.1,0.1-0.3,0.1-0.4
				c0-0.3,0.2-0.6,0.3-1c0.1-0.3,0.3-0.6,0.5-0.8c0.3-0.3,0.6-0.7,1-0.9c0.2,0,0.3-0.2,0.4-0.3c0.3-0.2,0.7-0.1,1-0.2
				c0.2-0.1,0.4,0,0.7,0.1c0.3,0.1,0.3,0.3,0.4,0.6c0,0.4,0,0.7-0.1,1.1c-0.1,0.2-0.4,0.4-0.6,0.5c-0.4,0.1-0.7,0.3-1,0.6
				c-0.4,0.3-0.6,1-0.4,1.4c0.1,0.2,0.2,0.5,0.4,0.7c0.2,0.2,0.4,0.4,0.7,0.5c0.4,0.1,0.7,0.1,1.1,0c0.2,0,0.3-0.2,0.5-0.3
				c0.3-0.2,0.4-0.5,0.5-0.9c0.2-0.8,0.3-1.5,0.2-2.3c0-0.4-0.2-0.8-0.1-1.2c0-0.1,0-0.3,0.1-0.4c0-0.1,0-0.3,0-0.4
				c-0.1-0.1-0.1-0.3,0-0.4c0-0.5-0.1-1,0.1-1.5c0,0,0,0,0-0.1c-0.1-0.5,0.1-1.1,0-1.7c-0.1-0.4,0.2-0.8,0.6-0.8
				c0.4-0.1,0.9-0.1,1.3,0.1c0.3,0.1,0.4,0.3,0.5,0.5c0.1,0.5,0.3,0.9,0.6,1.3c0.2,0.2,0.5,0.4,0.7,0.6c0.2,0.2,0.5,0.2,0.7,0.2
				c0.4,0.1,0.6,0.4,0.7,0.8c0,0.2,0,0.4,0,0.6c0,0.3-0.3,0.7-0.7,0.7c-0.5,0-0.9-0.1-1.4-0.3c-0.2-0.1-0.4-0.1-0.6-0.1
				c-0.1,0.1-0.2,0.1-0.2,0.3c0,0.2,0,0.4,0,0.7c0,0.8,0,1.6-0.1,2.5c0,0.5-0.1,0.9-0.2,1.4c-0.2,0.8-0.7,1.5-1.3,2
				c-0.3,0.3-0.7,0.5-1.2,0.6c-0.2,0-0.3,0.2-0.5,0.2C307.4,427.7,307.1,427.7,306.8,427.7z"/>
			<path class="st2" d="M292.1,421.7c0,0.2,0,0.4,0,0.5c0,0.5-0.1,1-0.2,1.5c-0.1,0.6-0.2,1.2-0.4,1.8c-0.2,0.7-0.6,1.4-0.9,2.1
				c-0.3,0.5-0.6,1-1,1.5c-0.4,0.5-0.8,0.9-1.2,1.3c-0.6,0.5-1.2,1-1.8,1.4c-0.6,0.4-1.2,0.7-1.8,0.9c-0.4,0.2-0.8,0.3-1.2,0.4
				c-0.3,0.1-0.7,0.2-1,0.2c-0.5,0.1-1,0.2-1.6,0.2c-0.5,0-1,0-1.4,0c-0.4,0-0.7-0.1-1.1-0.1c-0.6-0.1-1.2-0.2-1.8-0.4
				c-0.4-0.1-0.8-0.3-1.2-0.5c-0.5-0.2-1-0.5-1.4-0.8c-0.5-0.4-1.1-0.7-1.5-1.2c-0.4-0.4-0.8-0.7-1.1-1.2c-0.4-0.4-0.7-0.9-1-1.3
				c-0.4-0.6-0.6-1.1-0.9-1.7c-0.2-0.5-0.4-0.9-0.5-1.4c-0.1-0.3-0.2-0.7-0.2-1c-0.1-0.3-0.1-0.5-0.1-0.8c-0.1-0.4-0.1-0.8-0.1-1.2
				c0-0.4,0-0.8,0-1.2c0-0.5,0.1-1,0.2-1.4c0.1-0.5,0.2-0.9,0.3-1.4c0.2-0.7,0.5-1.5,0.9-2.1c0.3-0.6,0.6-1.1,1-1.6
				c0.4-0.5,0.8-1,1.2-1.4c0.6-0.6,1.2-1.1,1.9-1.5c0.7-0.4,1.4-0.8,2.1-1.1c0.3-0.1,0.7-0.2,1-0.3c0.4-0.1,0.9-0.2,1.3-0.3
				c0.4,0,0.7-0.1,1.1-0.1c0.2,0,0.4,0,0.7,0c0.4,0,0.9,0,1.3,0.1c0.3,0,0.6,0.1,1,0.1c0.3,0.1,0.6,0.1,1,0.2
				c0.6,0.2,1.2,0.4,1.7,0.6c0.5,0.2,0.9,0.5,1.4,0.8c1,0.6,1.8,1.4,2.6,2.3c0.5,0.5,0.9,1.1,1.2,1.7c0.5,0.8,0.8,1.6,1.1,2.4
				c0.2,0.5,0.3,1.1,0.4,1.7c0.1,0.6,0.2,1.2,0.2,1.8C292.1,421.4,292.1,421.5,292.1,421.7C292.1,421.7,292.1,421.7,292.1,421.7z
				 M281.1,424.4C281.1,424.4,281.1,424.4,281.1,424.4c0-0.7,0-1.5,0-2.2c0,0,0-0.1,0-0.1c0-0.1,0-0.1,0.1-0.1c0,0,0.1,0,0.1,0
				c0.4,0,0.8,0,1.2,0c0.1,0,0.2,0,0.2-0.2c0-0.2,0-0.4,0.1-0.6c0-0.3,0.1-0.6,0.1-0.9c0-0.1,0-0.1-0.1-0.1c0,0-0.1,0-0.1,0
				c-0.5,0-0.9,0-1.4,0c0,0-0.1,0-0.1,0c-0.1,0-0.1,0-0.1-0.1c0,0,0,0,0-0.1c0-0.4,0-0.7,0-1.1c0-0.1,0-0.2,0-0.2
				c0-0.4,0.2-0.6,0.6-0.7c0.2,0,0.4,0,0.5,0c0.2,0,0.4,0,0.6,0c0.1,0,0.1,0,0.1-0.1c0-0.5,0-0.9,0-1.4c0-0.1,0-0.1-0.1-0.1
				c-0.5-0.1-1-0.1-1.4-0.1c-0.3,0-0.5,0.1-0.8,0.2c-0.7,0.3-1.1,0.8-1.3,1.5c-0.1,0.3-0.1,0.6-0.1,0.9c0,0.4,0,0.8,0,1.3
				c0,0.1,0,0.1-0.1,0.1c-0.2,0-0.4,0-0.6,0c-0.2,0-0.5,0-0.7,0c-0.1,0-0.1,0-0.1,0.1c0,0,0,0,0,0.1c0,0.5,0,1,0,1.5
				c0,0,0,0.1,0,0.1c0,0.1,0,0.1,0.1,0.1c0,0,0.1,0,0.1,0c0.4,0,0.8,0,1.2,0c0.2,0,0.2,0,0.2,0.2c0,1.5,0,3,0,4.4c0,0,0,0.1,0,0.1
				c0,0.1,0,0.1,0.1,0.1c0,0,0.1,0,0.1,0c0.4,0,0.8,0,1.2,0c0.1,0,0.3,0,0.4,0c0.1,0,0.1,0,0.1-0.1c0,0,0-0.1,0-0.1
				C281.1,425.9,281.1,425.1,281.1,424.4z"/>
			<path class="st2" d="M280.4,428.5c-0.9,0-1.7,0-2.5,0c-0.6,0-1.2,0-1.9-0.1c-0.5,0-1,0-1.6-0.1c-0.3,0-0.6-0.1-1-0.2
				c-0.7-0.2-1.2-0.7-1.5-1.4c-0.2-0.5-0.3-0.9-0.3-1.4c0-0.6-0.1-1.3-0.1-1.9c0-1.1,0-2.2,0-3.3c0-0.5,0.1-1,0.1-1.5
				c0.1-0.5,0.2-0.9,0.4-1.4c0.3-0.6,0.8-0.9,1.4-1.1c0.3-0.1,0.6-0.1,0.9-0.1c0.8,0,1.5-0.1,2.3-0.1c0.4,0,0.8,0,1.1,0
				c0.8,0,1.6,0,2.4,0c0.6,0,1.2,0,1.8,0c0.7,0,1.3,0,2,0.1c0.7,0,1.3,0.1,2,0.1c0.4,0,0.7,0.1,1,0.2c0.6,0.3,1,0.8,1.2,1.4
				c0.1,0.4,0.2,0.9,0.3,1.3c0,0.7,0.1,1.3,0.1,2c0,1,0,2.1,0,3.1c0,0.6-0.1,1.2-0.2,1.8c0,0.4-0.2,0.8-0.3,1.1
				c-0.3,0.6-0.8,1-1.5,1.1c-0.3,0.1-0.7,0.1-1,0.1c-0.8,0-1.6,0.1-2.4,0.1c-0.4,0-0.8,0-1.3,0C281.6,428.5,281,428.5,280.4,428.5z
				 M278.5,424.5c1.6-0.8,3.1-1.7,4.7-2.5c-1.6-0.8-3.1-1.7-4.7-2.5C278.5,421.2,278.5,422.8,278.5,424.5z"/>
			<path class="st2" d="M278.5,424.5c0-1.7,0-3.3,0-5c1.6,0.8,3.1,1.7,4.7,2.5C281.6,422.9,280.1,423.7,278.5,424.5z"/>
		</g>
		<g>
			<g>
				<g>
					<g>
						<path d="M368.7,437.4c-0.3,0-0.7,0-1,0c-0.4,0-0.8-0.1-1.2-0.2c-0.3-0.1-0.6-0.1-0.9-0.2c-0.5-0.1-1-0.3-1.4-0.4
							c-0.4-0.1-0.7-0.3-1.1-0.5c-0.5-0.3-1.1-0.5-1.6-0.9c-0.6-0.4-1.3-0.9-1.8-1.4c-0.6-0.5-1.1-1.1-1.6-1.7
							c-0.6-0.8-1.2-1.7-1.6-2.6c-0.3-0.6-0.5-1.2-0.8-1.9c-0.2-0.5-0.3-1.1-0.4-1.7c-0.1-0.5-0.2-1.1-0.2-1.6
							c0-0.4-0.1-0.8-0.1-1.2c0-0.7,0.1-1.3,0.1-2c0.1-0.6,0.2-1.3,0.4-1.9c0.2-0.6,0.4-1.2,0.6-1.7c0.3-0.6,0.5-1.2,0.9-1.7
							c0.5-0.8,1-1.5,1.6-2.2c0.5-0.6,1.1-1.1,1.7-1.6c0.6-0.5,1.2-0.9,1.8-1.3c0.6-0.3,1.2-0.7,1.9-0.9c0.4-0.2,0.8-0.3,1.2-0.4
							c0.5-0.2,1-0.3,1.5-0.3c0.4-0.1,0.8-0.1,1.3-0.1c0.3,0,0.6-0.1,0.8,0c0.5,0,1,0,1.5,0.1c0.4,0,0.7,0.1,1.1,0.2
							c0.4,0.1,0.7,0.2,1.1,0.3c0.7,0.2,1.4,0.5,2.1,0.8c1,0.4,1.8,1,2.7,1.7c0.7,0.5,1.3,1.1,1.9,1.8c0.6,0.7,1.1,1.4,1.5,2.1
							c0.3,0.6,0.6,1.2,0.9,1.8c0.3,0.8,0.6,1.6,0.8,2.4c0.1,0.6,0.2,1.2,0.3,1.8c0,0.2,0,0.4,0,0.6c0,1,0,1.9-0.1,2.9
							c-0.1,0.9-0.3,1.8-0.6,2.7c-0.3,0.9-0.7,1.8-1.2,2.7c-0.5,0.8-1,1.6-1.6,2.3c-0.7,0.8-1.5,1.6-2.4,2.2c-0.7,0.5-1.5,1-2.3,1.3
							c-0.6,0.2-1.1,0.5-1.7,0.6c-0.7,0.2-1.3,0.3-2,0.4c-0.6,0.1-1.2,0.1-1.8,0.1C368.7,437.4,368.7,437.4,368.7,437.4z
							 M369.8,426.4C369.8,426.4,369.8,426.4,369.8,426.4c0-0.9,0-1.8,0-2.7c0-0.2,0-0.2,0.2-0.2c0.5,0,1,0,1.5,0
							c0.2,0,0.2,0,0.2-0.2c0.1-0.6,0.1-1.2,0.2-1.8c0-0.2,0-0.2-0.2-0.2c-0.6,0-1.1,0-1.7,0c-0.2,0-0.2,0-0.2-0.2
							c0-0.4,0-0.8,0-1.2c0-0.1,0-0.2,0-0.3c0.1-0.4,0.3-0.7,0.7-0.8c0.2,0,0.4,0,0.6-0.1c0.2,0,0.5,0,0.7,0c0.1,0,0.2,0,0.2-0.2
							c0-0.6,0-1.1,0-1.7c0-0.1,0-0.1-0.2-0.2c-0.5-0.1-1.1-0.1-1.6-0.1c-0.3,0-0.7,0.1-1,0.2c-0.5,0.2-0.9,0.5-1.2,1
							c-0.3,0.5-0.4,1-0.4,1.6c0,0.5,0,1.1,0,1.6c0,0.2,0,0.2-0.2,0.2c-0.5,0-0.9,0-1.4,0c-0.2,0-0.2,0-0.2,0.2c0,0.6,0,1.2,0,1.8
							c0,0,0,0,0,0.1c0,0.1,0,0.1,0.1,0.1c0,0,0.1,0,0.1,0c0.4,0,0.9,0,1.3,0c0.3,0,0.3,0,0.3,0.3c0,1.7,0,3.5,0,5.2
							c0,0,0,0.1,0,0.1c0,0,0,0.1,0.1,0.1c0,0,0.1,0,0.1,0c0.5,0,1,0,1.5,0c0.1,0,0.3,0,0.4,0c0.1,0,0.1,0,0.1-0.1c0,0,0-0.1,0-0.1
							C369.8,428.2,369.8,427.3,369.8,426.4z"/>
					</g>
					<g>
						<path class="st2" d="M369.8,426.4c0,0.9,0,1.7,0,2.6c0,0,0,0.1,0,0.1c0,0.1,0,0.1-0.1,0.1c-0.1,0-0.3,0-0.4,0
							c-0.5,0-1,0-1.5,0c0,0-0.1,0-0.1,0c0,0-0.1,0-0.1-0.1c0,0,0-0.1,0-0.1c0-1.7,0-3.5,0-5.2c0-0.3,0-0.3-0.3-0.3
							c-0.4,0-0.9,0-1.3,0c0,0-0.1,0-0.1,0c-0.1,0-0.1,0-0.1-0.1c0,0,0,0,0-0.1c0-0.6,0-1.2,0-1.8c0-0.2,0-0.2,0.2-0.2
							c0.5,0,0.9,0,1.4,0c0.2,0,0.2,0,0.2-0.2c0-0.5,0-1.1,0-1.6c0-0.6,0.1-1.1,0.4-1.6c0.3-0.5,0.7-0.8,1.2-1
							c0.3-0.1,0.7-0.2,1-0.2c0.5,0,1.1,0,1.6,0.1c0.1,0,0.1,0,0.2,0.2c0,0.6,0,1.1,0,1.7c0,0.1,0,0.2-0.2,0.2c-0.2,0-0.5,0-0.7,0
							c-0.2,0-0.4,0-0.6,0.1c-0.4,0.1-0.6,0.3-0.7,0.8c0,0.1,0,0.2,0,0.3c0,0.4,0,0.8,0,1.2c0,0.2,0,0.2,0.2,0.2c0.6,0,1.1,0,1.7,0
							c0.2,0,0.2,0,0.2,0.2c-0.1,0.6-0.1,1.2-0.2,1.8c0,0.1,0,0.2-0.2,0.2c-0.5,0-1,0-1.5,0c-0.2,0-0.2,0-0.2,0.2
							C369.7,424.7,369.7,425.6,369.8,426.4C369.8,426.4,369.8,426.4,369.8,426.4z"/>
					</g>
				</g>
				<g>
					<g>
						<path d="M337.1,437.7c-0.3,0-0.7,0-1.1,0c-0.3,0-0.7-0.1-1-0.1c-0.2,0-0.3,0-0.5-0.1c-0.6-0.1-1.2-0.3-1.8-0.5
							c-0.8-0.3-1.5-0.6-2.2-0.9c-1-0.5-1.9-1.2-2.8-1.9c-0.3-0.3-0.6-0.6-0.9-0.8c-0.7-0.7-1.3-1.5-1.8-2.4
							c-0.4-0.7-0.8-1.5-1.1-2.3c-0.3-0.7-0.5-1.4-0.7-2.1c-0.2-0.7-0.3-1.5-0.4-2.3c0-0.6-0.1-1.2-0.1-1.9c0-0.7,0.1-1.4,0.2-2.1
							c0.1-0.6,0.3-1.2,0.4-1.8c0.2-0.8,0.5-1.5,0.9-2.2c0.3-0.6,0.6-1.2,1-1.7c0.5-0.7,1-1.3,1.5-1.9c0.5-0.5,1-1,1.5-1.4
							c0.9-0.7,1.8-1.2,2.8-1.7c0.6-0.3,1.3-0.5,2-0.7c0.5-0.1,0.9-0.3,1.4-0.3c0.4-0.1,0.9-0.1,1.3-0.2c0.2,0,0.4,0,0.6,0
							c0.4,0,0.7,0,1.1,0c0.5,0,1,0.1,1.5,0.2c0.4,0.1,0.9,0.2,1.3,0.3c0.7,0.2,1.5,0.4,2.2,0.8c0.9,0.4,1.8,0.9,2.7,1.6
							c0.6,0.4,1.2,0.9,1.7,1.5c0.5,0.5,0.9,1,1.3,1.5c0.5,0.6,0.9,1.3,1.2,2c0.3,0.6,0.6,1.3,0.8,1.9c0.2,0.7,0.4,1.4,0.6,2.1
							c0.1,0.7,0.2,1.4,0.3,2.1c0,0.4,0,0.9,0,1.3c0,0.3-0.1,0.6-0.1,1c0,0.5-0.1,0.9-0.1,1.4c-0.1,0.4-0.1,0.9-0.3,1.3
							c-0.3,0.9-0.6,1.8-1,2.6c-0.3,0.6-0.6,1.2-1,1.7c-0.4,0.5-0.8,1.1-1.2,1.6c-0.8,0.9-1.8,1.7-2.8,2.4c-0.5,0.3-1,0.6-1.5,0.9
							c-0.6,0.3-1.2,0.6-1.9,0.8c-0.7,0.2-1.3,0.4-2,0.5C338.6,437.6,337.9,437.7,337.1,437.7z M342.9,422.9
							C342.9,422.9,342.9,422.9,342.9,422.9c0-0.3,0-0.6,0-0.9c0-0.6,0-1.2,0-1.8c0-0.3-0.1-0.7-0.2-1c-0.3-1-1-1.6-1.9-2
							c-0.3-0.1-0.6-0.2-1-0.2c-0.5,0-1-0.1-1.5-0.1c-0.4,0-0.9,0-1.3,0c-0.8,0-1.7-0.1-2.5,0c-0.5,0-0.9,0.1-1.4,0.3
							c-1.1,0.5-1.7,1.3-1.9,2.5c-0.1,0.5-0.1,1.1-0.1,1.6c0,1-0.1,2-0.1,3c0,0.6,0,1.2,0.1,1.8c0.1,0.5,0.2,1,0.5,1.5
							c0.4,0.6,1,1.1,1.7,1.3c0.4,0.1,0.8,0.2,1.2,0.2c1.4,0,2.9,0.1,4.3,0.1c0.4,0,0.8,0,1.2-0.1c0.5-0.1,0.9-0.2,1.4-0.5
							c0.6-0.5,1.1-1.1,1.3-1.8c0.1-0.4,0.2-0.8,0.2-1.2C342.8,424.7,342.9,423.8,342.9,422.9z"/>
					</g>
					<g>
						<path class="st2" d="M342.9,422.9c0,0.9-0.1,1.7-0.1,2.6c0,0.4-0.1,0.8-0.2,1.2c-0.2,0.8-0.6,1.4-1.3,1.8
							c-0.4,0.3-0.9,0.5-1.4,0.5c-0.4,0.1-0.8,0.1-1.2,0.1c-1.4,0-2.9-0.1-4.3-0.1c-0.4,0-0.8-0.1-1.2-0.2c-0.7-0.2-1.3-0.7-1.7-1.3
							c-0.3-0.4-0.5-0.9-0.5-1.5c-0.1-0.6-0.1-1.2-0.1-1.8c0-1,0-2,0.1-3c0-0.5,0-1.1,0.1-1.6c0.2-1.2,0.8-2,1.9-2.5
							c0.4-0.2,0.9-0.2,1.4-0.3c0.8,0,1.7,0,2.5,0c0.4,0,0.9,0,1.3,0c0.5,0,1,0.1,1.5,0.1c0.3,0,0.7,0.1,1,0.2c0.9,0.4,1.6,1,1.9,2
							c0.1,0.3,0.2,0.6,0.2,1c0,0.6,0,1.2,0,1.8C342.9,422.4,342.9,422.7,342.9,422.9C342.9,422.9,342.9,422.9,342.9,422.9z
							 M341.8,422.9C341.8,422.9,341.8,422.9,341.8,422.9c0-0.1,0-0.1,0-0.2c0-0.9,0.1-1.8,0-2.6c0-0.3-0.1-0.5-0.2-0.8
							c-0.3-0.6-0.7-1-1.4-1.1c-0.2-0.1-0.5-0.1-0.7-0.1c-0.8-0.1-1.6-0.1-2.4-0.1c-0.9,0-1.8-0.1-2.7,0c-0.4,0-0.7,0.1-1.1,0.3
							c-0.5,0.3-0.9,0.8-1,1.4c-0.1,0.5-0.1,1-0.2,1.5c0,0.9,0,1.8-0.1,2.6c0,0.7,0,1.5,0,2.2c0.1,0.5,0.3,0.9,0.6,1.3
							c0.2,0.2,0.5,0.4,0.8,0.5c0.4,0.1,0.8,0.2,1.2,0.2c1,0,2,0.1,3.1,0.1c0.6,0,1.1,0.1,1.7,0c0.3,0,0.6-0.1,0.9-0.2
							c0.7-0.3,1.1-0.8,1.2-1.6c0.1-0.3,0.1-0.7,0.1-1C341.8,424.5,341.8,423.7,341.8,422.9z"/>
					</g>
					<g>
						<path d="M341.8,422.9c0,0.8-0.1,1.6-0.1,2.3c0,0.3,0,0.7-0.1,1c-0.2,0.7-0.5,1.3-1.2,1.6c-0.3,0.1-0.6,0.2-0.9,0.2
							c-0.6,0.1-1.1,0-1.7,0c-1,0-2-0.1-3.1-0.1c-0.4,0-0.8-0.1-1.2-0.2c-0.3-0.1-0.6-0.3-0.8-0.5c-0.4-0.4-0.6-0.8-0.6-1.3
							c-0.1-0.7-0.1-1.5,0-2.2c0-0.9,0-1.8,0.1-2.6c0-0.5,0.1-1,0.2-1.5c0.1-0.6,0.5-1.1,1-1.4c0.3-0.2,0.7-0.3,1.1-0.3
							c0.9-0.1,1.8,0,2.7,0c0.8,0,1.6,0,2.4,0.1c0.2,0,0.5,0.1,0.7,0.1c0.6,0.1,1.1,0.5,1.4,1.1c0.1,0.2,0.2,0.5,0.2,0.8
							c0.1,0.9,0.1,1.8,0,2.6C341.8,422.8,341.8,422.9,341.8,422.9C341.8,422.9,341.8,422.9,341.8,422.9z M337,426.2
							c1.6,0.1,3-1.3,3.1-3.1c0-1.7-1.3-3.1-3-3.2c-1.7,0-3.1,1.4-3.1,3.1C333.9,424.7,335.3,426.2,337,426.2z M340.9,419.9
							c0-0.4-0.3-0.7-0.7-0.7c-0.4,0-0.7,0.3-0.7,0.7c0,0.4,0.3,0.8,0.7,0.8C340.6,420.6,340.9,420.3,340.9,419.9z"/>
					</g>
					<g>
						<path class="st2" d="M337,426.2c-1.6,0-3-1.4-3-3.2c0-1.7,1.4-3.1,3.1-3.1c1.7,0,3,1.5,3,3.2C340,424.9,338.5,426.2,337,426.2
							z M337,425.1c1,0,2-0.9,2-2.1c0-1.1-0.9-2-1.9-2c-1.2,0-2,1-2,2.1C335,424.1,335.9,425.1,337,425.1z"/>
					</g>
					<g>
						<path class="st2" d="M340.9,419.9c0,0.4-0.3,0.7-0.7,0.7c-0.4,0-0.7-0.4-0.7-0.8c0-0.4,0.3-0.7,0.7-0.7
							C340.6,419.2,340.9,419.5,340.9,419.9z"/>
					</g>
					<g>
						<path d="M337,425.1c-1.1,0-2-1-2-2c0-1.1,0.9-2.1,2-2.1c1.1,0,1.9,1,1.9,2C339,424.2,338,425.1,337,425.1z"/>
					</g>
				</g>
				<g>
					<g>
						<path d="M317.9,423.2c0,0.2,0,0.4,0,0.5c0,0.5-0.1,1-0.2,1.5c-0.1,0.6-0.2,1.2-0.4,1.8c-0.2,0.7-0.6,1.4-0.9,2.1
							c-0.3,0.5-0.6,1-1,1.5c-0.4,0.5-0.8,0.9-1.2,1.3c-0.6,0.5-1.2,1-1.8,1.4c-0.6,0.4-1.2,0.7-1.8,0.9c-0.4,0.2-0.8,0.3-1.2,0.4
							c-0.3,0.1-0.7,0.2-1,0.2c-0.5,0.1-1,0.2-1.6,0.2c-0.5,0-1,0-1.4,0c-0.4,0-0.7-0.1-1.1-0.1c-0.6-0.1-1.2-0.2-1.8-0.4
							c-0.4-0.1-0.8-0.3-1.2-0.5c-0.5-0.2-1-0.5-1.4-0.8c-0.5-0.4-1.1-0.7-1.5-1.2c-0.4-0.4-0.8-0.7-1.1-1.2c-0.4-0.4-0.7-0.9-1-1.3
							c-0.4-0.6-0.6-1.1-0.9-1.7c-0.2-0.5-0.4-0.9-0.5-1.4c-0.1-0.3-0.2-0.7-0.2-1c-0.1-0.3-0.1-0.5-0.1-0.8
							c-0.1-0.4-0.1-0.8-0.1-1.2c0-0.4,0-0.8,0-1.2c0-0.5,0.1-1,0.2-1.4c0.1-0.5,0.2-0.9,0.3-1.4c0.2-0.7,0.5-1.5,0.9-2.1
							c0.3-0.6,0.6-1.1,1-1.6c0.4-0.5,0.8-1,1.2-1.4c0.6-0.6,1.2-1.1,1.9-1.5c0.7-0.4,1.4-0.8,2.1-1.1c0.3-0.1,0.7-0.2,1-0.3
							c0.4-0.1,0.9-0.2,1.3-0.3c0.4,0,0.7-0.1,1.1-0.1c0.2,0,0.4,0,0.7,0c0.4,0,0.9,0,1.3,0.1c0.3,0,0.6,0.1,1,0.1
							c0.3,0.1,0.6,0.1,1,0.2c0.6,0.2,1.2,0.4,1.7,0.6c0.5,0.2,0.9,0.5,1.4,0.8c1,0.6,1.8,1.4,2.6,2.3c0.5,0.5,0.9,1.1,1.2,1.7
							c0.5,0.8,0.8,1.6,1.1,2.4c0.2,0.5,0.3,1.1,0.4,1.7c0.1,0.6,0.2,1.2,0.2,1.8C317.9,422.8,317.9,423,317.9,423.2
							C317.9,423.2,317.9,423.2,317.9,423.2z M306.9,425.9C306.9,425.9,306.9,425.9,306.9,425.9c0-0.7,0-1.5,0-2.2c0,0,0-0.1,0-0.1
							c0-0.1,0-0.1,0.1-0.1c0,0,0.1,0,0.1,0c0.4,0,0.8,0,1.2,0c0.1,0,0.2,0,0.2-0.2c0-0.2,0-0.4,0.1-0.6c0-0.3,0.1-0.6,0.1-0.9
							c0-0.1,0-0.1-0.1-0.1c0,0-0.1,0-0.1,0c-0.5,0-0.9,0-1.4,0c0,0-0.1,0-0.1,0c-0.1,0-0.1,0-0.1-0.1c0,0,0,0,0-0.1
							c0-0.4,0-0.7,0-1.1c0-0.1,0-0.2,0-0.2c0-0.4,0.2-0.6,0.6-0.7c0.2,0,0.4,0,0.5,0c0.2,0,0.4,0,0.6,0c0.1,0,0.1,0,0.1-0.1
							c0-0.5,0-0.9,0-1.4c0-0.1,0-0.1-0.1-0.1c-0.5-0.1-1-0.1-1.4-0.1c-0.3,0-0.5,0.1-0.8,0.2c-0.7,0.3-1.1,0.8-1.3,1.5
							c-0.1,0.3-0.1,0.6-0.1,0.9c0,0.4,0,0.8,0,1.3c0,0.1,0,0.1-0.1,0.1c-0.2,0-0.4,0-0.6,0c-0.2,0-0.5,0-0.7,0
							c-0.1,0-0.1,0-0.1,0.1c0,0,0,0,0,0.1c0,0.5,0,1,0,1.5c0,0,0,0.1,0,0.1c0,0.1,0,0.1,0.1,0.1c0,0,0.1,0,0.1,0c0.4,0,0.8,0,1.2,0
							c0.2,0,0.2,0,0.2,0.2c0,1.5,0,3,0,4.4c0,0,0,0.1,0,0.1c0,0.1,0,0.1,0.1,0.1c0,0,0.1,0,0.1,0c0.4,0,0.8,0,1.2,0
							c0.1,0,0.3,0,0.4,0c0.1,0,0.1,0,0.1-0.1c0,0,0-0.1,0-0.1C306.9,427.3,306.9,426.6,306.9,425.9z"/>
					</g>
					<g>
						<path class="st2" d="M304.5,429.1c-0.3,0-0.6,0-0.9,0c-0.4-0.1-0.8-0.3-1.2-0.6c0,0-0.1-0.1-0.1-0.1c-0.4-0.2-0.6-0.5-0.8-0.9
							c-0.1-0.2-0.3-0.3-0.4-0.5c0-0.1-0.1-0.2-0.1-0.3c-0.1-0.3-0.1-0.7-0.2-1c-0.1-0.3-0.1-0.6,0-0.9c0-0.1,0.1-0.3,0.1-0.4
							c0-0.3,0.2-0.6,0.3-1c0.1-0.3,0.3-0.6,0.5-0.8c0.3-0.3,0.6-0.7,1-0.9c0.2,0,0.3-0.2,0.4-0.3c0.3-0.2,0.7-0.1,1-0.2
							c0.2-0.1,0.4,0,0.7,0.1c0.3,0.1,0.3,0.3,0.4,0.6c0,0.4,0,0.7-0.1,1.1c-0.1,0.2-0.4,0.4-0.6,0.5c-0.4,0.1-0.7,0.3-1,0.6
							c-0.4,0.3-0.6,1-0.4,1.4c0.1,0.2,0.2,0.5,0.4,0.7c0.2,0.2,0.4,0.4,0.7,0.5c0.4,0.1,0.7,0.1,1.1,0c0.2,0,0.3-0.2,0.5-0.3
							c0.3-0.2,0.4-0.5,0.5-0.9c0.2-0.8,0.3-1.5,0.2-2.3c0-0.4-0.2-0.8-0.1-1.2c0-0.1,0-0.3,0.1-0.4c0-0.1,0-0.3,0-0.4
							c-0.1-0.1-0.1-0.3,0-0.4c0-0.5-0.1-1,0.1-1.5c0,0,0,0,0-0.1c-0.1-0.5,0.1-1.1,0-1.7c-0.1-0.4,0.2-0.8,0.6-0.8
							c0.4-0.1,0.9-0.1,1.3,0.1c0.3,0.1,0.4,0.3,0.5,0.5c0.1,0.5,0.3,0.9,0.6,1.3c0.2,0.2,0.5,0.4,0.7,0.6c0.2,0.2,0.5,0.2,0.7,0.2
							c0.4,0.1,0.6,0.4,0.7,0.8c0,0.2,0,0.4,0,0.6c0,0.3-0.3,0.7-0.7,0.7c-0.5,0-0.9-0.1-1.4-0.3c-0.2-0.1-0.4-0.1-0.6-0.1
							c-0.1,0.1-0.2,0.1-0.2,0.3c0,0.2,0,0.4,0,0.7c0,0.8,0,1.6-0.1,2.5c0,0.5-0.1,0.9-0.2,1.4c-0.2,0.8-0.7,1.5-1.3,2
							c-0.3,0.3-0.7,0.5-1.2,0.6c-0.2,0-0.3,0.2-0.5,0.2C305.1,429.1,304.8,429.1,304.5,429.1z"/>
					</g>
				</g>
				<g>
					<g>
						<path d="M289.8,423.2c0,0.2,0,0.4,0,0.5c0,0.5-0.1,1-0.2,1.5c-0.1,0.6-0.2,1.2-0.4,1.8c-0.2,0.7-0.6,1.4-0.9,2.1
							c-0.3,0.5-0.6,1-1,1.5c-0.4,0.5-0.8,0.9-1.2,1.3c-0.6,0.5-1.2,1-1.8,1.4c-0.6,0.4-1.2,0.7-1.8,0.9c-0.4,0.2-0.8,0.3-1.2,0.4
							c-0.3,0.1-0.7,0.2-1,0.2c-0.5,0.1-1,0.2-1.6,0.2c-0.5,0-1,0-1.4,0c-0.4,0-0.7-0.1-1.1-0.1c-0.6-0.1-1.2-0.2-1.8-0.4
							c-0.4-0.1-0.8-0.3-1.2-0.5c-0.5-0.2-1-0.5-1.4-0.8c-0.5-0.4-1.1-0.7-1.5-1.2c-0.4-0.4-0.8-0.7-1.1-1.2c-0.4-0.4-0.7-0.9-1-1.3
							c-0.4-0.6-0.6-1.1-0.9-1.7c-0.2-0.5-0.4-0.9-0.5-1.4c-0.1-0.3-0.2-0.7-0.2-1c-0.1-0.3-0.1-0.5-0.1-0.8
							c-0.1-0.4-0.1-0.8-0.1-1.2c0-0.4,0-0.8,0-1.2c0-0.5,0.1-1,0.2-1.4c0.1-0.5,0.2-0.9,0.3-1.4c0.2-0.7,0.5-1.5,0.9-2.1
							c0.3-0.6,0.6-1.1,1-1.6c0.4-0.5,0.8-1,1.2-1.4c0.6-0.6,1.2-1.1,1.9-1.5c0.7-0.4,1.4-0.8,2.1-1.1c0.3-0.1,0.7-0.2,1-0.3
							c0.4-0.1,0.9-0.2,1.3-0.3c0.4,0,0.7-0.1,1.1-0.1c0.2,0,0.4,0,0.7,0c0.4,0,0.9,0,1.3,0.1c0.3,0,0.6,0.1,1,0.1
							c0.3,0.1,0.6,0.1,1,0.2c0.6,0.2,1.2,0.4,1.7,0.6c0.5,0.2,0.9,0.5,1.4,0.8c1,0.6,1.8,1.4,2.6,2.3c0.5,0.5,0.9,1.1,1.2,1.7
							c0.5,0.8,0.8,1.6,1.1,2.4c0.2,0.5,0.3,1.1,0.4,1.7c0.1,0.6,0.2,1.2,0.2,1.8C289.8,422.8,289.8,423,289.8,423.2
							C289.8,423.2,289.8,423.2,289.8,423.2z M278.9,425.8C278.9,425.8,278.9,425.8,278.9,425.8c0-0.7,0-1.5,0-2.2c0,0,0-0.1,0-0.1
							c0-0.1,0-0.1,0.1-0.1c0,0,0.1,0,0.1,0c0.4,0,0.8,0,1.2,0c0.1,0,0.2,0,0.2-0.2c0-0.2,0-0.4,0.1-0.6c0-0.3,0.1-0.6,0.1-0.9
							c0-0.1,0-0.1-0.1-0.1c0,0-0.1,0-0.1,0c-0.5,0-0.9,0-1.4,0c0,0-0.1,0-0.1,0c-0.1,0-0.1,0-0.1-0.1c0,0,0,0,0-0.1
							c0-0.4,0-0.7,0-1.1c0-0.1,0-0.2,0-0.2c0-0.4,0.2-0.6,0.6-0.7c0.2,0,0.4,0,0.5,0c0.2,0,0.4,0,0.6,0c0.1,0,0.1,0,0.1-0.1
							c0-0.5,0-0.9,0-1.4c0-0.1,0-0.1-0.1-0.1c-0.5-0.1-1-0.1-1.4-0.1c-0.3,0-0.5,0.1-0.8,0.2c-0.7,0.3-1.1,0.8-1.3,1.5
							c-0.1,0.3-0.1,0.6-0.1,0.9c0,0.4,0,0.8,0,1.3c0,0.1,0,0.1-0.1,0.1c-0.2,0-0.4,0-0.6,0c-0.2,0-0.5,0-0.7,0
							c-0.1,0-0.1,0-0.1,0.1c0,0,0,0,0,0.1c0,0.5,0,1,0,1.5c0,0,0,0.1,0,0.1c0,0.1,0,0.1,0.1,0.1c0,0,0.1,0,0.1,0c0.4,0,0.8,0,1.2,0
							c0.2,0,0.2,0,0.2,0.2c0,1.5,0,3,0,4.4c0,0,0,0.1,0,0.1c0,0.1,0,0.1,0.1,0.1c0,0,0.1,0,0.1,0c0.4,0,0.8,0,1.2,0
							c0.1,0,0.3,0,0.4,0c0.1,0,0.1,0,0.1-0.1c0,0,0-0.1,0-0.1C278.9,427.3,278.9,426.5,278.9,425.8z"/>
					</g>
					<g>
						<path class="st2" d="M278.1,429.9c-0.9,0-1.7,0-2.5,0c-0.6,0-1.2,0-1.9-0.1c-0.5,0-1,0-1.6-0.1c-0.3,0-0.6-0.1-1-0.2
							c-0.7-0.2-1.2-0.7-1.5-1.4c-0.2-0.5-0.3-0.9-0.3-1.4c0-0.6-0.1-1.3-0.1-1.9c0-1.1,0-2.2,0-3.3c0-0.5,0.1-1,0.1-1.5
							c0.1-0.5,0.2-0.9,0.4-1.4c0.3-0.6,0.8-0.9,1.4-1.1c0.3-0.1,0.6-0.1,0.9-0.1c0.8,0,1.5-0.1,2.3-0.1c0.4,0,0.8,0,1.1,0
							c0.8,0,1.6,0,2.4,0c0.6,0,1.2,0,1.8,0c0.7,0,1.3,0,2,0.1c0.7,0,1.3,0.1,2,0.1c0.4,0,0.7,0.1,1,0.2c0.6,0.3,1,0.8,1.2,1.4
							c0.1,0.4,0.2,0.9,0.3,1.3c0,0.7,0.1,1.3,0.1,2c0,1,0,2.1,0,3.1c0,0.6-0.1,1.2-0.2,1.8c0,0.4-0.2,0.8-0.3,1.1
							c-0.3,0.6-0.8,1-1.5,1.1c-0.3,0.1-0.7,0.1-1,0.1c-0.8,0-1.6,0.1-2.4,0.1c-0.4,0-0.8,0-1.3,0
							C279.3,429.9,278.7,429.9,278.1,429.9z M276.3,425.9c1.6-0.8,3.1-1.7,4.7-2.5c-1.6-0.8-3.1-1.7-4.7-2.5
							C276.3,422.6,276.3,424.3,276.3,425.9z"/>
					</g>
					<g>
						<path class="st15" d="M276.3,425.9c0-1.7,0-3.3,0-5c1.6,0.8,3.1,1.7,4.7,2.5C279.4,424.3,277.8,425.1,276.3,425.9z"/>
					</g>
				</g>
			</g>
		</g>
	</g>
	<g id="cr">
		<g>
			<path class="st2" d="M413.6,433c-1.5,0.5-3.3,0.8-5.3,0.8c-3.9,0-7.1-1-9.4-3.1c-2.6-2.3-3.9-5.6-3.9-9.9c0-4.2,1.3-7.5,4-9.9
				c2.4-2.2,5.3-3.3,8.8-3.3c3.6,0,6.6,1,8.9,3c2.4,2.1,3.5,4.9,3.5,8.6c0,2.9-0.6,5.1-1.7,6.7c-1.2,1.6-2.7,2.3-4.7,2.3
				c-1.4,0-2.4-0.3-3.1-1c-0.8,0.6-1.9,0.9-3.2,0.9c-2,0-3.5-0.6-4.7-1.9c-1.2-1.3-1.8-3.1-1.8-5.4c0-2.1,0.6-3.8,1.9-5.1
				c1.3-1.4,3.1-2.1,5.3-2.1c1.7,0,3.5,0.3,5.2,1l0,9.3c0,0.8,0.4,1.2,1.1,1.2c0.7,0,1.3-0.4,1.7-1.3c0.5-1.1,0.7-2.7,0.7-4.9
				c0-2.5-0.8-4.5-2.4-6c-1.6-1.5-3.9-2.3-6.7-2.3c-2.8,0-5,0.9-6.7,2.8c-1.8,1.9-2.7,4.4-2.7,7.5c0,3.3,0.9,5.7,2.7,7.4
				c1.7,1.7,4.1,2.5,7.2,2.5c1.3,0,2.9-0.2,4.9-0.6L413.6,433z M409.6,416.9c-0.4-0.1-0.8-0.1-1.2-0.1c-1.2,0-2.1,0.4-2.7,1.2
				c-0.5,0.7-0.8,1.6-0.8,2.9c0,1.3,0.2,2.2,0.6,2.9c0.5,0.8,1.3,1.2,2.5,1.2c0.8,0,1.3-0.1,1.7-0.3c-0.1-0.3-0.1-0.8-0.1-1.6
				L409.6,416.9z"/>
			<path class="st2" d="M434.7,427.4c-1.1,0.5-2.4,0.7-4,0.7c-2.4,0-4.2-0.7-5.5-2.2c-1.1-1.3-1.7-3.1-1.7-5.4
				c0-2.1,0.6-3.9,1.9-5.3c1.3-1.5,3.1-2.2,5.2-2.2c1.3,0,2.6,0.3,3.8,0.8l-0.8,3.3c-0.9-0.4-1.8-0.6-2.7-0.6c-1.1,0-2,0.4-2.6,1.1
				c-0.6,0.7-0.8,1.7-0.8,2.9c0,1.4,0.3,2.4,0.8,3c0.6,0.7,1.5,1.1,2.8,1.1c1.1,0,2.2-0.2,3-0.6L434.7,427.4z"/>
			<path class="st2" d="M438,414.3c1.9-0.7,3.9-1.1,5.8-1.1c0.4,0,1,0.1,1.7,0.2c0.7,0.1,1.2,0.2,1.7,0.4l-0.7,3.4
				c-1.1-0.3-2.1-0.4-2.8-0.4c-0.5,0-1.1,0.1-1.7,0.2l0,11.2l-4,0L438,414.3z"/>
			<path class="st2" d="M462.7,427.3c-0.5,0.2-1.1,0.4-2,0.6c-1,0.2-2,0.3-2.9,0.3c-2.4,0-4.2-0.7-5.5-2.1c-1.2-1.3-1.8-3-1.8-5.3
				c0-2.4,0.7-4.3,2.1-5.7c1.2-1.3,2.8-1.9,4.6-1.9c2,0,3.5,0.6,4.6,1.9c1.2,1.3,1.7,3.1,1.7,5.5c0,0.5,0,1-0.1,1.5l-8.9,0
				c0.1,0.9,0.5,1.5,1.1,2c0.7,0.5,1.6,0.7,2.7,0.7c0.8,0,1.5-0.1,2.1-0.2c0.7-0.2,1.3-0.3,1.7-0.5L462.7,427.3z M459.8,419.2
				c-0.1-0.8-0.3-1.4-0.6-1.9c-0.4-0.6-1.1-0.9-1.9-0.9s-1.5,0.3-1.9,0.8c-0.4,0.4-0.6,1.1-0.7,1.9L459.8,419.2z"/>
			<path class="st2" d="M468.2,413.8c0.5-0.2,1.1-0.3,2-0.5c1-0.2,1.9-0.2,2.6-0.2c2.2,0,3.8,0.5,4.7,1.6c0.8,0.9,1.2,2.4,1.2,4.3
				l0,8.4c-2,0.5-3.9,0.7-5.9,0.7c-1.9,0-3.3-0.4-4.3-1.1c-1.1-0.8-1.6-2-1.6-3.7c0-1.6,0.6-2.8,1.8-3.5c1-0.7,2.4-1,4-1
				c0.9,0,1.7,0.1,2.3,0.3v-0.4c0-1.5-0.9-2.3-2.7-2.3c-1.4,0-2.6,0.2-3.6,0.6L468.2,413.8z M475,421.8c-0.4-0.1-0.9-0.2-1.6-0.2
				c-0.9,0-1.5,0.1-1.9,0.3c-0.5,0.3-0.8,0.7-0.8,1.3c0,1.1,0.8,1.7,2.3,1.7c0.9,0,1.5,0,1.9-0.1L475,421.8z"/>
			<path class="st2" d="M482.1,414c1.8-0.6,3.9-0.9,6.1-0.9c2.3,0,3.9,0.6,4.9,1.9c0.9,1.1,1.3,2.7,1.3,4.9l0,8.3l-4,0l0-7.8
				c0-1.4-0.2-2.3-0.5-2.9c-0.4-0.6-1-0.8-1.9-0.8c-0.6,0-1.2,0.1-1.8,0.2l0,11.4l-4,0L482.1,414z"/>
			<path class="st2" d="M497.7,413.5c0-1.8,0.5-3.2,1.5-4.3c1-1.1,2.5-1.6,4.4-1.6c1.2,0,2.3,0.2,3.4,0.7l-0.7,3.2
				c-0.6-0.3-1.4-0.5-2.2-0.5c-0.9,0-1.5,0.2-1.9,0.7c-0.3,0.4-0.5,1.1-0.5,1.9l0,0.7l4.7,0l0,3.3l-4.7,0l0,10.6l-3.8,0L497.7,413.5
				z"/>
			<path class="st2" d="M522.1,415c1.4,1.4,2,3.2,2,5.6c0,2.4-0.7,4.3-2,5.6c-1.3,1.3-2.9,1.9-5,1.9c-2,0-3.6-0.6-4.9-1.9
				c-1.4-1.3-2-3.2-2-5.6c0-2.3,0.7-4.2,2.1-5.6c1.2-1.3,2.9-1.9,4.8-1.9C519.2,413.1,520.8,413.7,522.1,415z M514.7,417.6
				c-0.6,0.7-0.9,1.7-0.9,3c0,1.3,0.3,2.3,0.9,3c0.6,0.7,1.4,1.1,2.4,1.1c1,0,1.8-0.4,2.4-1.1c0.6-0.7,0.9-1.7,0.9-3
				c0-1.2-0.3-2.2-0.9-3c-0.6-0.7-1.4-1.1-2.4-1.1C516.2,416.5,515.4,416.9,514.7,417.6z"/>
			<path class="st2" d="M540.5,427.3c-0.9,0.3-1.7,0.5-2.7,0.6c-1.1,0.2-2.2,0.3-3.1,0.3c-2.3,0-4.1-0.7-5.4-2.1
				c-1.3-1.4-1.9-3.2-1.9-5.4c0-2.3,0.5-4.2,1.6-5.5c1.1-1.3,2.6-2,4.6-2c1.1,0,2,0.2,2.9,0.6l0-6.9l4,0.7L540.5,427.3z
				 M536.5,417.1c-0.6-0.4-1.3-0.6-2.2-0.6c-1.9,0-2.8,1.3-2.8,3.9c0,1.3,0.3,2.3,0.8,3c0.6,0.8,1.4,1.2,2.4,1.2
				c0.8,0,1.4-0.1,1.7-0.2L536.5,417.1z"/>
			<path class="st2" d="M555.7,415c1.4,1.4,2,3.2,2,5.6c0,2.4-0.7,4.3-2,5.6c-1.3,1.3-2.9,1.9-5,1.9c-2,0-3.6-0.6-4.9-1.9
				c-1.4-1.3-2-3.2-2-5.6c0-2.3,0.7-4.2,2.1-5.6c1.2-1.3,2.9-1.9,4.8-1.9C552.8,413.1,554.4,413.7,555.7,415z M548.3,417.6
				c-0.6,0.7-0.9,1.7-0.9,3c0,1.3,0.3,2.3,0.9,3c0.6,0.7,1.4,1.1,2.4,1.1c1,0,1.8-0.4,2.4-1.1c0.6-0.7,0.9-1.7,0.9-3
				c0-1.2-0.3-2.2-0.9-3c-0.6-0.7-1.4-1.1-2.4-1.1C549.7,416.5,548.9,416.9,548.3,417.6z"/>
			<path class="st2" d="M569.8,413.2l0,3.4l-4.8,0l0,5.2c0,0.9,0.1,1.6,0.4,2.1c0.3,0.5,0.9,0.8,1.8,0.8c0.9,0,1.7-0.2,2.6-0.5
				l0.6,3.2c-1.2,0.5-2.4,0.8-3.8,0.8c-2.1,0-3.5-0.6-4.4-1.8c-0.8-1-1.2-2.5-1.2-4.5l0-12.3l4-0.7l0,4.3L569.8,413.2z"/>
			<path class="st2" d="M584.9,427.4c-1.1,0.5-2.4,0.7-4,0.7c-2.4,0-4.2-0.7-5.5-2.2c-1.1-1.3-1.7-3.1-1.7-5.4
				c0-2.1,0.6-3.9,1.9-5.3c1.3-1.5,3.1-2.2,5.2-2.2c1.3,0,2.6,0.3,3.8,0.8l-0.8,3.3c-0.9-0.4-1.8-0.6-2.7-0.6c-1.1,0-2,0.4-2.6,1.1
				c-0.6,0.7-0.8,1.7-0.8,2.9c0,1.4,0.3,2.4,0.8,3c0.6,0.7,1.5,1.1,2.8,1.1c1.1,0,2.2-0.2,3-0.6L584.9,427.4z"/>
			<path class="st2" d="M600.1,415c1.4,1.4,2,3.2,2,5.6c0,2.4-0.7,4.3-2,5.6c-1.3,1.3-2.9,1.9-5,1.9c-2,0-3.6-0.6-4.9-1.9
				c-1.4-1.3-2-3.2-2-5.6c0-2.3,0.7-4.2,2.1-5.6c1.2-1.3,2.9-1.9,4.8-1.9C597.2,413.1,598.9,413.7,600.1,415z M592.8,417.6
				c-0.6,0.7-0.9,1.7-0.9,3c0,1.3,0.3,2.3,0.9,3c0.6,0.7,1.4,1.1,2.4,1.1c1,0,1.8-0.4,2.4-1.1c0.6-0.7,0.9-1.7,0.9-3
				c0-1.2-0.3-2.2-0.9-3c-0.6-0.7-1.4-1.1-2.4-1.1C594.2,416.5,593.4,416.9,592.8,417.6z"/>
			<path class="st2" d="M605.5,413.9c0.8-0.2,1.7-0.4,2.7-0.6c1-0.2,2.1-0.3,3.2-0.3c1.7,0,3.1,0.5,4.1,1.4c1.2-0.9,2.6-1.4,4.1-1.4
				c2.1,0,3.6,0.6,4.5,1.9c0.8,1.1,1.1,2.7,1.1,4.9l0,8.3l-4,0l0-7.8c0-1.4-0.2-2.3-0.5-2.9c-0.3-0.6-0.9-0.8-1.7-0.8
				c-0.6,0-1.3,0.2-1.9,0.6c0.2,0.7,0.3,1.7,0.3,2.9l0,8.1l-4,0l0-7.8c0-1.4-0.2-2.3-0.5-2.9c-0.3-0.6-0.9-0.8-1.7-0.8
				c-0.4,0-0.9,0.1-1.6,0.2l0,11.4l-4,0L605.5,413.9z"/>
		</g>
		<g>
			<g>
				<g>
					<path class="st15" d="M411.3,434.4c-1.5,0.5-3.3,0.8-5.3,0.8c-3.9,0-7.1-1-9.4-3.1c-2.6-2.3-3.9-5.6-3.9-9.9
						c0-4.2,1.3-7.5,4-9.9c2.4-2.2,5.3-3.3,8.8-3.3c3.6,0,6.6,1,8.9,3c2.4,2.1,3.5,4.9,3.5,8.6c0,2.9-0.6,5.1-1.7,6.7
						c-1.2,1.6-2.7,2.3-4.7,2.3c-1.4,0-2.4-0.3-3.1-1c-0.8,0.6-1.9,0.9-3.2,0.9c-2,0-3.5-0.6-4.7-1.9c-1.2-1.3-1.8-3.1-1.8-5.4
						c0-2.1,0.6-3.8,1.9-5.1c1.3-1.4,3.1-2.1,5.3-2.1c1.7,0,3.5,0.3,5.2,1l0,9.3c0,0.8,0.4,1.2,1.1,1.2c0.7,0,1.3-0.4,1.7-1.3
						c0.5-1.1,0.7-2.7,0.7-4.9c0-2.5-0.8-4.5-2.4-6c-1.6-1.5-3.9-2.3-6.7-2.3c-2.8,0-5,0.9-6.7,2.8c-1.8,1.9-2.7,4.4-2.7,7.5
						c0,3.3,0.9,5.7,2.7,7.4c1.7,1.7,4.1,2.5,7.2,2.5c1.3,0,2.9-0.2,4.9-0.6L411.3,434.4z M407.3,418.3c-0.4-0.1-0.8-0.1-1.2-0.1
						c-1.2,0-2.1,0.4-2.7,1.2c-0.5,0.7-0.8,1.6-0.8,2.9c0,1.3,0.2,2.2,0.6,2.9c0.5,0.8,1.3,1.2,2.5,1.2c0.8,0,1.3-0.1,1.7-0.3
						c-0.1-0.3-0.1-0.8-0.1-1.6L407.3,418.3z"/>
				</g>
				<g>
					<path class="st15" d="M432.4,428.8c-1.1,0.5-2.4,0.7-4,0.7c-2.4,0-4.2-0.7-5.5-2.2c-1.1-1.3-1.7-3.1-1.7-5.4
						c0-2.1,0.6-3.9,1.9-5.3c1.3-1.5,3.1-2.2,5.2-2.2c1.3,0,2.6,0.3,3.8,0.8l-0.8,3.3c-0.9-0.4-1.8-0.6-2.7-0.6
						c-1.1,0-2,0.4-2.6,1.1c-0.6,0.7-0.8,1.7-0.8,2.9c0,1.4,0.3,2.4,0.8,3c0.6,0.7,1.5,1.1,2.8,1.1c1.1,0,2.2-0.2,3-0.6L432.4,428.8
						z"/>
				</g>
				<g>
					<path class="st15" d="M435.8,415.8c1.9-0.7,3.9-1.1,5.8-1.1c0.4,0,1,0.1,1.7,0.2c0.7,0.1,1.2,0.2,1.7,0.4l-0.7,3.4
						c-1.1-0.3-2.1-0.4-2.8-0.4c-0.5,0-1.1,0.1-1.7,0.2l0,11.2l-4,0L435.8,415.8z"/>
				</g>
				<g>
					<path class="st15" d="M460.5,428.7c-0.5,0.2-1.1,0.4-2,0.6c-1,0.2-2,0.3-2.9,0.3c-2.4,0-4.2-0.7-5.5-2.1
						c-1.2-1.3-1.8-3-1.8-5.3c0-2.4,0.7-4.3,2.1-5.7c1.2-1.3,2.8-1.9,4.6-1.9c2,0,3.5,0.6,4.6,1.9c1.2,1.3,1.7,3.1,1.7,5.5
						c0,0.5,0,1-0.1,1.5l-8.9,0c0.1,0.9,0.5,1.5,1.1,2c0.7,0.5,1.6,0.7,2.7,0.7c0.8,0,1.5-0.1,2.1-0.2c0.7-0.2,1.3-0.3,1.7-0.5
						L460.5,428.7z M457.5,420.6c-0.1-0.8-0.3-1.4-0.6-1.9c-0.4-0.6-1.1-0.9-1.9-0.9s-1.5,0.3-1.9,0.8c-0.4,0.4-0.6,1.1-0.7,1.9
						L457.5,420.6z"/>
				</g>
				<g>
					<path class="st15" d="M465.9,415.2c0.5-0.2,1.1-0.3,2-0.5c1-0.2,1.9-0.2,2.6-0.2c2.2,0,3.8,0.5,4.7,1.6
						c0.8,0.9,1.2,2.4,1.2,4.3l0,8.4c-2,0.5-3.9,0.7-5.9,0.7c-1.9,0-3.3-0.4-4.3-1.1c-1.1-0.8-1.6-2-1.6-3.7c0-1.6,0.6-2.8,1.8-3.5
						c1-0.7,2.4-1,4-1c0.9,0,1.7,0.1,2.3,0.3v-0.4c0-1.5-0.9-2.3-2.7-2.3c-1.4,0-2.6,0.2-3.6,0.6L465.9,415.2z M472.7,423.2
						c-0.4-0.1-0.9-0.2-1.6-0.2c-0.9,0-1.5,0.1-1.9,0.3c-0.5,0.3-0.8,0.7-0.8,1.3c0,1.1,0.8,1.7,2.3,1.7c0.9,0,1.5,0,1.9-0.1
						L472.7,423.2z"/>
				</g>
				<g>
					<path class="st15" d="M479.8,415.4c1.8-0.6,3.9-0.9,6.1-0.9c2.3,0,3.9,0.6,4.9,1.9c0.9,1.1,1.3,2.7,1.3,4.9l0,8.3l-4,0l0-7.8
						c0-1.4-0.2-2.3-0.5-2.9c-0.4-0.6-1-0.8-1.9-0.8c-0.6,0-1.2,0.1-1.8,0.2l0,11.4l-4,0L479.8,415.4z"/>
				</g>
				<g>
					<path class="st15" d="M495.4,414.9c0-1.8,0.5-3.2,1.5-4.3c1-1.1,2.5-1.6,4.4-1.6c1.2,0,2.3,0.2,3.4,0.7l-0.7,3.2
						c-0.6-0.3-1.4-0.5-2.2-0.5c-0.9,0-1.5,0.2-1.9,0.7c-0.3,0.4-0.5,1.1-0.5,1.9v0.7l4.7,0l0,3.3l-4.7,0l0,10.6l-3.8,0L495.4,414.9
						z"/>
				</g>
				<g>
					<path class="st15" d="M519.8,416.4c1.4,1.4,2,3.2,2,5.6c0,2.4-0.7,4.3-2,5.6c-1.3,1.3-2.9,1.9-5,1.9c-2,0-3.6-0.6-4.9-1.9
						c-1.4-1.3-2-3.2-2-5.6c0-2.3,0.7-4.2,2.1-5.6c1.2-1.3,2.9-1.9,4.8-1.9C516.9,414.5,518.6,415.2,519.8,416.4z M512.5,419.1
						c-0.6,0.7-0.9,1.7-0.9,3c0,1.3,0.3,2.3,0.9,3c0.6,0.7,1.4,1.1,2.4,1.1c1,0,1.8-0.4,2.4-1.1c0.6-0.7,0.9-1.7,0.9-3
						c0-1.2-0.3-2.2-0.9-3c-0.6-0.7-1.4-1.1-2.4-1.1C513.9,417.9,513.1,418.3,512.5,419.1z"/>
				</g>
				<g>
					<path class="st15" d="M538.2,428.7c-0.9,0.3-1.7,0.5-2.7,0.6c-1.1,0.2-2.2,0.3-3.1,0.3c-2.3,0-4.1-0.7-5.4-2.1
						s-1.9-3.2-1.9-5.4c0-2.3,0.5-4.2,1.6-5.5c1.1-1.3,2.6-2,4.6-2c1.1,0,2,0.2,2.9,0.6l0-6.9l4,0.7L538.2,428.7z M534.2,418.6
						c-0.6-0.4-1.3-0.6-2.2-0.6c-1.9,0-2.8,1.3-2.8,3.9c0,1.3,0.3,2.3,0.8,3c0.6,0.8,1.4,1.2,2.4,1.2c0.8,0,1.4-0.1,1.7-0.2
						L534.2,418.6z"/>
				</g>
				<g>
					<path class="st15" d="M553.4,416.4c1.4,1.4,2,3.2,2,5.6c0,2.4-0.7,4.3-2,5.6c-1.3,1.3-2.9,1.9-5,1.9c-2,0-3.6-0.6-4.9-1.9
						c-1.4-1.3-2-3.2-2-5.6c0-2.3,0.7-4.2,2.1-5.6c1.2-1.3,2.9-1.9,4.8-1.9C550.5,414.5,552.1,415.2,553.4,416.4z M546.1,419.1
						c-0.6,0.7-0.9,1.7-0.9,3c0,1.3,0.3,2.3,0.9,3c0.6,0.7,1.4,1.1,2.4,1.1c1,0,1.8-0.4,2.4-1.1c0.6-0.7,0.9-1.7,0.9-3
						c0-1.2-0.3-2.2-0.9-3c-0.6-0.7-1.4-1.1-2.4-1.1C547.5,417.9,546.7,418.3,546.1,419.1z"/>
				</g>
				<g>
					<path class="st15" d="M567.6,414.7v3.4l-4.8,0l0,5.2c0,0.9,0.1,1.6,0.4,2.1c0.3,0.5,0.9,0.8,1.8,0.8c0.9,0,1.7-0.2,2.6-0.5
						l0.6,3.2c-1.2,0.5-2.4,0.8-3.8,0.8c-2.1,0-3.5-0.6-4.4-1.8c-0.8-1-1.2-2.5-1.2-4.5l0-12.3l4-0.7l0,4.3L567.6,414.7z"/>
				</g>
				<g>
					<path class="st15" d="M582.7,428.8c-1.1,0.5-2.4,0.7-4,0.7c-2.4,0-4.2-0.7-5.5-2.2c-1.1-1.3-1.7-3.1-1.7-5.4
						c0-2.1,0.6-3.9,1.9-5.3c1.3-1.5,3.1-2.2,5.2-2.2c1.3,0,2.6,0.3,3.8,0.8l-0.8,3.3c-0.9-0.4-1.8-0.6-2.7-0.6
						c-1.1,0-2,0.4-2.6,1.1c-0.6,0.7-0.8,1.7-0.8,2.9c0,1.4,0.3,2.4,0.8,3c0.6,0.7,1.5,1.1,2.8,1.1c1.1,0,2.2-0.2,3-0.6L582.7,428.8
						z"/>
				</g>
				<g>
					<path class="st15" d="M597.8,416.4c1.4,1.4,2,3.2,2,5.6c0,2.4-0.7,4.3-2,5.6c-1.3,1.3-2.9,1.9-5,1.9c-2,0-3.6-0.6-4.9-1.9
						c-1.4-1.3-2-3.2-2-5.6c0-2.3,0.7-4.2,2.1-5.6c1.2-1.3,2.9-1.9,4.8-1.9C595,414.5,596.6,415.2,597.8,416.4z M590.5,419.1
						c-0.6,0.7-0.9,1.7-0.9,3c0,1.3,0.3,2.3,0.9,3c0.6,0.7,1.4,1.1,2.4,1.1c1,0,1.8-0.4,2.4-1.1c0.6-0.7,0.9-1.7,0.9-3
						c0-1.2-0.3-2.2-0.9-3c-0.6-0.7-1.4-1.1-2.4-1.1C591.9,417.9,591.1,418.3,590.5,419.1z"/>
				</g>
				<g>
					<path class="st15" d="M603.2,415.3c0.8-0.2,1.7-0.4,2.7-0.6c1-0.2,2.1-0.3,3.2-0.3c1.7,0,3.1,0.5,4.1,1.4
						c1.2-0.9,2.6-1.4,4.1-1.4c2.1,0,3.6,0.6,4.5,1.9c0.8,1.1,1.1,2.7,1.1,4.9l0,8.3l-4,0l0-7.8c0-1.4-0.2-2.3-0.5-2.9
						c-0.3-0.6-0.9-0.8-1.7-0.8c-0.6,0-1.3,0.2-1.9,0.6c0.2,0.7,0.3,1.7,0.3,2.9l0,8.1l-4,0l0-7.8c0-1.4-0.2-2.3-0.5-2.9
						c-0.3-0.6-0.9-0.8-1.7-0.8c-0.4,0-0.9,0.1-1.6,0.2l0,11.4l-4,0L603.2,415.3z"/>
				</g>
			</g>
		</g>
	</g>
	<g id="txt">
		<g>
			<path class="st2" d="M260.1,394.4l-3.3-12h1.8l1.5,6.1c0.4,1.5,0.7,3,1,4.2h0c0.2-1.2,0.6-2.6,1.1-4.2l1.7-6.1h1.7l1.6,6.1
				c0.4,1.4,0.7,2.9,0.9,4.1h0c0.3-1.3,0.6-2.7,1-4.2l1.7-6.1l1.7,0l-3.7,12l-1.7,0l-1.6-6.3c-0.4-1.5-0.7-2.7-0.8-3.9h0
				c-0.2,1.2-0.5,2.4-1,3.9l-1.8,6.3L260.1,394.4z"/>
			<path class="st2" d="M280.9,388.8l-5,0l0,4.3l5.6,0l0,1.3l-7.3,0l0-12l7,0l0,1.3l-5.3,0l0,3.8l5,0L280.9,388.8z"/>
			<path class="st2" d="M298.7,389.1c-0.1-1.7-0.2-3.7-0.2-5.2h-0.1c-0.4,1.4-1,2.9-1.6,4.6l-2.3,5.8h-1.3l-2.1-5.7
				c-0.6-1.7-1.1-3.2-1.5-4.7h0c0,1.5-0.1,3.5-0.2,5.3l-0.3,5.2h-1.6l0.9-12l2.1,0l2.2,5.8c0.5,1.5,1,2.8,1.3,4.1h0.1
				c0.3-1.2,0.8-2.5,1.4-4.1l2.3-5.8h2.1l0.8,12l-1.6,0L298.7,389.1z"/>
			<path class="st2" d="M305.1,390.6l-1.3,3.8h-1.7l4.4-12l2,0l4.4,12l-1.8,0l-1.4-3.8L305.1,390.6z M309.4,389.4l-1.3-3.5
				c-0.3-0.8-0.5-1.5-0.7-2.2h0c-0.2,0.7-0.4,1.4-0.7,2.2l-1.3,3.5L309.4,389.4z"/>
			<path class="st2" d="M314.8,382.4h1.7l0,5.8h0.1c0.3-0.5,0.7-0.9,1-1.3l4-4.5l2.1,0l-4.7,5.1l5.1,6.9l-2,0l-4.3-5.9l-1.2,1.3
				l0,4.6l-1.7,0L314.8,382.4z"/>
			<path class="st2" d="M332,388.8l-5,0l0,4.3l5.6,0v1.3l-7.3,0l0-12l7,0l0,1.3l-5.3,0l0,3.8l5,0V388.8z"/>
			<path class="st2" d="M340.8,394.4l0-5.1l-4.1-6.9h1.9l1.8,3.3c0.5,0.9,0.9,1.6,1.3,2.5h0c0.4-0.8,0.8-1.6,1.3-2.5l1.9-3.3l1.9,0
				l-4.3,6.9l0,5.1H340.8z"/>
			<path class="st2" d="M358.7,388.3c0,4.1-2.7,6.3-6,6.3c-3.4,0-5.8-2.5-5.8-6.1c0-3.8,2.6-6.3,6-6.3
				C356.4,382.2,358.7,384.7,358.7,388.3z M348.6,388.5c0,2.6,1.5,4.9,4.1,4.9c2.7,0,4.2-2.3,4.2-5c0-2.4-1.3-4.9-4.1-4.9
				C350,383.5,348.6,385.8,348.6,388.5z"/>
			<path class="st2" d="M362.5,382.4l0,7.1c0,2.7,1.3,3.8,3,3.8c1.9,0,3.2-1.2,3.2-3.8l0-7.1h1.7l0,7c0,3.7-2.1,5.2-4.9,5.2
				c-2.7,0-4.7-1.4-4.7-5.1l0-7.1H362.5z"/>
			<path class="st2" d="M373.3,382.6c0.8-0.2,2.1-0.3,3.2-0.3c1.8,0,2.9,0.3,3.7,1c0.7,0.5,1,1.4,1,2.3c0,1.6-1.1,2.6-2.4,3.1v0.1
				c1,0.3,1.6,1.2,1.9,2.4c0.4,1.7,0.7,2.8,1,3.3l-1.7,0c-0.2-0.3-0.5-1.4-0.9-2.9c-0.4-1.7-1.1-2.3-2.6-2.3l-1.6,0l0,5.2l-1.7,0
				L373.3,382.6z M375,388l1.7,0c1.8,0,2.9-0.9,2.9-2.3c0-1.6-1.2-2.2-3-2.3c-0.8,0-1.4,0.1-1.7,0.1L375,388z"/>
			<path class="st2" d="M389.4,382.4l0,12l-1.7,0l0-12H389.4z"/>
			<path class="st2" d="M392.3,394.4l0-12h1.8l4.2,6.1c1,1.4,1.7,2.7,2.3,3.9l0,0c-0.2-1.6-0.2-3.1-0.2-4.9l0-5l1.6,0l0,12l-1.7,0
				l-4.1-6.1c-0.9-1.3-1.8-2.7-2.4-4l-0.1,0c0.1,1.5,0.1,3,0.1,5l0,5.1L392.3,394.4z"/>
			<path class="st2" d="M405,382.4l7,0l0,1.3l-5.3,0l0,4l4.9,0l0,1.3l-4.9,0l0,5.4l-1.7,0L405,382.4z"/>
			<path class="st2" d="M425.4,388.3c0,4.1-2.7,6.3-6,6.3c-3.4,0-5.8-2.5-5.8-6.1c0-3.8,2.6-6.3,6-6.3
				C423.1,382.2,425.4,384.7,425.4,388.3z M415.4,388.5c0,2.6,1.5,4.9,4.1,4.9c2.7,0,4.2-2.3,4.2-5c0-2.4-1.3-4.9-4.1-4.9
				C416.8,383.5,415.4,385.8,415.4,388.5z"/>
			<path class="st2" d="M427.6,382.6c0.8-0.2,2.1-0.3,3.2-0.3c1.8,0,2.9,0.3,3.7,1c0.7,0.5,1,1.4,1,2.3c0,1.6-1.1,2.6-2.4,3.1v0.1
				c1,0.3,1.6,1.2,1.9,2.4c0.4,1.7,0.7,2.8,1,3.3l-1.7,0c-0.2-0.3-0.5-1.4-0.9-2.9c-0.4-1.7-1.1-2.3-2.6-2.3h-1.6l0,5.2l-1.7,0
				L427.6,382.6z M429.3,388h1.7c1.8,0,2.9-0.9,2.9-2.3c0-1.6-1.2-2.2-3-2.3c-0.8,0-1.4,0.1-1.7,0.1L429.3,388z"/>
			<path class="st2" d="M448.9,389.1c-0.1-1.7-0.2-3.7-0.2-5.2h-0.1c-0.4,1.4-1,2.9-1.6,4.6l-2.3,5.8l-1.3,0l-2.1-5.7
				c-0.6-1.7-1.1-3.2-1.5-4.7h0c0,1.5-0.1,3.5-0.3,5.3l-0.3,5.2h-1.6l0.9-12h2.1l2.2,5.8c0.5,1.5,1,2.8,1.3,4.1h0.1
				c0.3-1.2,0.8-2.5,1.4-4.1l2.3-5.8l2.1,0l0.8,12l-1.6,0L448.9,389.1z"/>
			<path class="st2" d="M455.3,390.6l-1.3,3.8h-1.7l4.4-12l2,0l4.4,12l-1.8,0l-1.4-3.8L455.3,390.6z M459.6,389.4l-1.3-3.5
				c-0.3-0.8-0.5-1.5-0.7-2.2h0c-0.2,0.7-0.4,1.4-0.7,2.2l-1.3,3.5L459.6,389.4z"/>
			<path class="st2" d="M466,383.7l-3.9,0l0-1.3l9.6,0l0,1.3l-4,0l0,10.7l-1.7,0L466,383.7z"/>
			<path class="st2" d="M474.7,382.4l0,12l-1.7,0l0-12L474.7,382.4z"/>
			<path class="st2" d="M488.7,388.3c0,4.1-2.7,6.3-6,6.3c-3.4,0-5.8-2.5-5.8-6.1c0-3.8,2.6-6.3,6-6.3
				C486.5,382.2,488.7,384.7,488.7,388.3z M478.7,388.5c0,2.6,1.5,4.9,4.1,4.9c2.7,0,4.2-2.3,4.2-5c0-2.4-1.3-4.9-4.1-4.9
				C480.1,383.5,478.7,385.8,478.7,388.5z"/>
			<path class="st2" d="M490.9,394.4l0-12l1.8,0l4.2,6.1c1,1.4,1.7,2.7,2.3,3.9l0,0c-0.2-1.6-0.2-3.1-0.2-4.9l0-5h1.6l0,12l-1.7,0
				l-4.1-6.1c-0.9-1.3-1.8-2.7-2.4-4l-0.1,0c0.1,1.5,0.1,3,0.1,5l0,5.1H490.9z"/>
			<path class="st2" d="M518.6,389.1c-0.1-1.7-0.2-3.7-0.2-5.2h-0.1c-0.4,1.4-1,2.9-1.6,4.6l-2.3,5.8l-1.3,0l-2.1-5.7
				c-0.6-1.7-1.1-3.2-1.5-4.7h0c0,1.5-0.1,3.5-0.3,5.3l-0.3,5.2l-1.6,0l0.9-12l2.1,0l2.2,5.8c0.5,1.5,1,2.8,1.3,4.1h0.1
				c0.3-1.2,0.8-2.5,1.4-4.1l2.3-5.8l2.1,0l0.8,12l-1.6,0L518.6,389.1z"/>
			<path class="st2" d="M534.2,388.3c0,4.1-2.7,6.3-6,6.3c-3.4,0-5.8-2.5-5.8-6.1c0-3.8,2.6-6.3,6-6.3
				C531.9,382.2,534.2,384.7,534.2,388.3z M524.1,388.5c0,2.6,1.5,4.9,4.1,4.9c2.7,0,4.2-2.3,4.2-5c0-2.4-1.3-4.9-4.1-4.9
				C525.5,383.5,524.1,385.8,524.1,388.5z"/>
			<path class="st2" d="M536.4,382.6c0.8-0.2,2.1-0.3,3.2-0.3c1.8,0,2.9,0.3,3.7,1c0.7,0.5,1,1.4,1,2.3c0,1.6-1.1,2.6-2.4,3.1v0.1
				c1,0.3,1.6,1.2,1.9,2.4c0.4,1.7,0.7,2.8,1,3.3l-1.7,0c-0.2-0.3-0.5-1.4-0.9-2.9c-0.4-1.7-1.1-2.3-2.6-2.3l-1.6,0l0,5.2l-1.7,0
				L536.4,382.6z M538,388h1.7c1.8,0,2.9-0.9,2.9-2.3c0-1.6-1.2-2.2-3-2.3c-0.8,0-1.4,0.1-1.7,0.1L538,388z"/>
			<path class="st2" d="M553.4,388.8l-5,0l0,4.3l5.6,0l0,1.3l-7.3,0l0-12l7,0v1.3l-5.3,0l0,3.8l5,0V388.8z"/>
			<path class="st2" d="M569.3,394c-0.6,0.3-1.8,0.6-3.4,0.6c-3.7,0-6.4-2.1-6.4-6.1c0-3.8,2.7-6.3,6.8-6.3c1.6,0,2.6,0.3,3.1,0.5
				l-0.4,1.3c-0.6-0.3-1.5-0.5-2.6-0.5c-3,0-5.1,1.8-5.1,5c0,2.9,1.8,4.8,5,4.8c1,0,2.1-0.2,2.7-0.5L569.3,394z"/>
			<path class="st2" d="M571.4,382.6c0.8-0.2,2.1-0.3,3.2-0.3c1.8,0,2.9,0.3,3.7,1c0.7,0.5,1,1.4,1,2.3c0,1.6-1.1,2.6-2.4,3.1v0.1
				c1,0.3,1.6,1.2,1.9,2.4c0.4,1.7,0.7,2.8,1,3.3h-1.7c-0.2-0.3-0.5-1.4-0.9-2.9c-0.4-1.7-1.1-2.3-2.6-2.3h-1.6l0,5.2h-1.7
				L571.4,382.6z M573.1,388l1.7,0c1.8,0,2.9-0.9,2.9-2.3c0-1.6-1.2-2.2-3-2.3c-0.8,0-1.4,0.1-1.7,0.1L573.1,388z"/>
			<path class="st2" d="M588.5,388.8l-5,0l0,4.3l5.6,0v1.3l-7.3,0l0-12l7,0l0,1.3l-5.3,0l0,3.8l5,0V388.8z"/>
			<path class="st2" d="M593.3,390.6l-1.3,3.8h-1.7l4.4-12l2,0l4.4,12l-1.8,0l-1.4-3.8L593.3,390.6z M597.6,389.4l-1.3-3.5
				c-0.3-0.8-0.5-1.5-0.7-2.2h0c-0.2,0.7-0.4,1.4-0.7,2.2l-1.3,3.5L597.6,389.4z"/>
			<path class="st2" d="M604,383.7l-3.9,0v-1.3l9.6,0l0,1.3l-4,0l0,10.7l-1.7,0L604,383.7z"/>
			<path class="st2" d="M612.7,382.4l0,12l-1.7,0l0-12H612.7z"/>
			<path class="st2" d="M618.5,394.4l-4.2-12l1.8,0l2,5.9c0.6,1.6,1,3.1,1.4,4.5h0c0.4-1.4,0.9-2.9,1.5-4.5l2.2-5.9h1.8l-4.6,12
				L618.5,394.4z"/>
			<path class="st2" d="M633.1,388.8l-5,0l0,4.3l5.6,0v1.3l-7.3,0l0-12l7,0v1.3l-5.3,0l0,3.8l5,0L633.1,388.8z"/>
		</g>
		<g>
			<g>
				<g>
					<path class="st15" d="M258.7,395.3l-3.3-12l1.8,0l1.5,6.1c0.4,1.5,0.7,3,1,4.2h0c0.2-1.2,0.6-2.6,1.1-4.2l1.7-6.1l1.7,0
						l1.6,6.1c0.4,1.4,0.7,2.9,0.9,4.1h0c0.3-1.3,0.6-2.7,1-4.2l1.7-6.1h1.7l-3.7,12h-1.7l-1.6-6.3c-0.4-1.5-0.7-2.7-0.8-3.9h0
						c-0.2,1.2-0.5,2.4-1,3.9l-1.8,6.3H258.7z"/>
				</g>
				<g>
					<path class="st15" d="M279.5,389.6l-5,0l0,4.3l5.6,0l0,1.3l-7.3,0l0-12l7,0v1.3l-5.3,0l0,3.8l5,0L279.5,389.6z"/>
				</g>
				<g>
					<path class="st15" d="M297.3,390c-0.1-1.7-0.2-3.7-0.2-5.2H297c-0.4,1.4-1,2.9-1.6,4.6l-2.3,5.8h-1.3l-2.1-5.7
						c-0.6-1.7-1.1-3.2-1.5-4.7h0c0,1.5-0.1,3.5-0.2,5.3l-0.3,5.2l-1.6,0l0.9-12l2.1,0l2.2,5.8c0.5,1.5,1,2.8,1.3,4.1h0.1
						c0.3-1.2,0.8-2.5,1.4-4.1l2.3-5.8l2.1,0l0.8,12h-1.6L297.3,390z"/>
				</g>
				<g>
					<path class="st15" d="M303.7,391.5l-1.3,3.8l-1.7,0l4.4-12l2,0l4.4,12h-1.8l-1.4-3.8L303.7,391.5z M308,390.3l-1.3-3.5
						c-0.3-0.8-0.5-1.5-0.7-2.2h0c-0.2,0.7-0.4,1.4-0.7,2.2l-1.3,3.5L308,390.3z"/>
				</g>
				<g>
					<path class="st15" d="M313.4,383.2l1.7,0l0,5.8h0.1c0.3-0.5,0.7-0.9,1-1.3l4-4.5h2.1l-4.7,5.1l5.1,6.9l-2,0l-4.3-5.9l-1.2,1.3
						l0,4.6l-1.7,0L313.4,383.2z"/>
				</g>
				<g>
					<path class="st15" d="M330.5,389.6l-5,0l0,4.3l5.6,0l0,1.3l-7.3,0l0-12l7,0l0,1.3l-5.3,0l0,3.8l5,0V389.6z"/>
				</g>
				<g>
					<path class="st15" d="M339.4,395.3l0-5.1l-4.1-6.9l1.9,0l1.8,3.3c0.5,0.9,0.9,1.6,1.3,2.5h0c0.4-0.8,0.8-1.6,1.3-2.5l1.9-3.3
						l1.9,0l-4.3,6.9l0,5.1L339.4,395.3z"/>
				</g>
				<g>
					<path class="st15" d="M357.3,389.1c0,4.1-2.7,6.3-6,6.3c-3.4,0-5.8-2.5-5.8-6.1c0-3.8,2.6-6.3,6-6.3
						C355,383,357.3,385.6,357.3,389.1z M347.2,389.3c0,2.6,1.5,4.9,4.1,4.9c2.7,0,4.2-2.3,4.2-5c0-2.4-1.3-4.9-4.1-4.9
						C348.6,384.3,347.2,386.7,347.2,389.3z"/>
				</g>
				<g>
					<path class="st15" d="M361.1,383.2l0,7.1c0,2.7,1.3,3.8,3,3.8c1.9,0,3.2-1.2,3.2-3.8l0-7.1l1.7,0l0,7c0,3.7-2.1,5.2-4.9,5.2
						c-2.7,0-4.7-1.4-4.7-5.1l0-7.1L361.1,383.2z"/>
				</g>
				<g>
					<path class="st15" d="M371.9,383.4c0.8-0.2,2.1-0.3,3.2-0.3c1.8,0,2.9,0.3,3.7,1c0.7,0.5,1,1.4,1,2.3c0,1.6-1.1,2.6-2.4,3.1
						v0.1c1,0.3,1.6,1.2,1.9,2.4c0.4,1.7,0.7,2.8,1,3.3l-1.7,0c-0.2-0.3-0.5-1.4-0.9-2.9c-0.4-1.7-1.1-2.3-2.6-2.3l-1.6,0l0,5.2
						l-1.7,0L371.9,383.4z M373.6,388.9h1.7c1.8,0,2.9-0.9,2.9-2.3c0-1.6-1.2-2.2-3-2.3c-0.8,0-1.4,0.1-1.7,0.1L373.6,388.9z"/>
				</g>
				<g>
					<path class="st15" d="M388,383.2l0,12l-1.7,0l0-12L388,383.2z"/>
				</g>
				<g>
					<path class="st15" d="M390.9,395.3l0-12l1.8,0l4.2,6.1c1,1.4,1.7,2.7,2.3,3.9l0,0c-0.2-1.6-0.2-3.1-0.2-4.9l0-5l1.6,0l0,12H399
						l-4.1-6.1c-0.9-1.3-1.8-2.7-2.4-4l-0.1,0c0.1,1.5,0.1,3,0.1,5l0,5.1L390.9,395.3z"/>
				</g>
				<g>
					<path class="st15" d="M403.6,383.2l7,0l0,1.3l-5.3,0l0,4l4.9,0l0,1.3l-4.9,0l0,5.4l-1.7,0L403.6,383.2z"/>
				</g>
				<g>
					<path class="st15" d="M424,389.1c0,4.1-2.7,6.3-6,6.3c-3.4,0-5.8-2.5-5.8-6.1c0-3.8,2.6-6.3,6-6.3
						C421.7,383,424,385.6,424,389.1z M414,389.3c0,2.6,1.5,4.9,4.1,4.9c2.7,0,4.2-2.3,4.2-5c0-2.4-1.3-4.9-4.1-4.9
						C415.3,384.3,414,386.7,414,389.3z"/>
				</g>
				<g>
					<path class="st15" d="M426.2,383.4c0.8-0.2,2.1-0.3,3.2-0.3c1.8,0,2.9,0.3,3.7,1c0.7,0.5,1,1.4,1,2.3c0,1.6-1.1,2.6-2.4,3.1
						v0.1c1,0.3,1.6,1.2,1.9,2.4c0.4,1.7,0.7,2.8,1,3.3h-1.7c-0.2-0.3-0.5-1.4-0.9-2.9c-0.4-1.7-1.1-2.3-2.6-2.3h-1.6l0,5.2h-1.7
						L426.2,383.4z M427.9,388.9l1.7,0c1.8,0,2.9-0.9,2.9-2.3c0-1.6-1.2-2.2-3-2.3c-0.8,0-1.4,0.1-1.7,0.1L427.9,388.9z"/>
				</g>
				<g>
					<path class="st15" d="M447.5,390c-0.1-1.7-0.2-3.7-0.2-5.2h-0.1c-0.4,1.4-1,2.9-1.6,4.6l-2.3,5.8H442l-2.1-5.7
						c-0.6-1.7-1.1-3.2-1.5-4.7h0c0,1.5-0.1,3.5-0.3,5.3l-0.3,5.2l-1.6,0l0.9-12l2.1,0l2.2,5.8c0.5,1.5,1,2.8,1.3,4.1h0.1
						c0.3-1.2,0.8-2.5,1.4-4.1l2.3-5.8l2.1,0l0.8,12h-1.6L447.5,390z"/>
				</g>
				<g>
					<path class="st15" d="M453.9,391.5l-1.3,3.8l-1.7,0l4.4-12l2,0l4.4,12h-1.8l-1.4-3.8L453.9,391.5z M458.2,390.3l-1.3-3.5
						c-0.3-0.8-0.5-1.5-0.7-2.2h0c-0.2,0.7-0.4,1.4-0.7,2.2l-1.3,3.5L458.2,390.3z"/>
				</g>
				<g>
					<path class="st15" d="M464.6,384.6l-3.9,0l0-1.3l9.6,0l0,1.3l-4,0l0,10.7h-1.7L464.6,384.6z"/>
				</g>
				<g>
					<path class="st15" d="M473.3,383.2l0,12l-1.7,0l0-12L473.3,383.2z"/>
				</g>
				<g>
					<path class="st15" d="M487.3,389.1c0,4.1-2.7,6.3-6,6.3c-3.4,0-5.8-2.5-5.8-6.1c0-3.8,2.6-6.3,6-6.3
						C485,383,487.3,385.6,487.3,389.1z M477.3,389.3c0,2.6,1.5,4.9,4.1,4.9c2.7,0,4.2-2.3,4.2-5c0-2.4-1.3-4.9-4.1-4.9
						C478.7,384.3,477.3,386.7,477.3,389.3z"/>
				</g>
				<g>
					<path class="st15" d="M489.5,395.3l0-12l1.8,0l4.2,6.1c1,1.4,1.7,2.7,2.3,3.9l0,0c-0.2-1.6-0.2-3.1-0.2-4.9l0-5l1.6,0l0,12
						l-1.7,0l-4.1-6.1c-0.9-1.3-1.8-2.7-2.4-4l-0.1,0c0.1,1.5,0.1,3,0.1,5l0,5.1L489.5,395.3z"/>
				</g>
				<g>
					<path class="st15" d="M517.2,390c-0.1-1.7-0.2-3.7-0.2-5.2h-0.1c-0.4,1.4-1,2.9-1.6,4.6l-2.3,5.8l-1.3,0l-2.1-5.7
						c-0.6-1.7-1.1-3.2-1.5-4.7h0c0,1.5-0.1,3.5-0.3,5.3l-0.3,5.2h-1.6l0.9-12l2.1,0l2.2,5.8c0.5,1.5,1,2.8,1.3,4.1h0.1
						c0.3-1.2,0.8-2.5,1.4-4.1l2.3-5.8l2.1,0l0.8,12l-1.6,0L517.2,390z"/>
				</g>
				<g>
					<path class="st15" d="M532.8,389.1c0,4.1-2.7,6.3-6,6.3c-3.4,0-5.8-2.5-5.8-6.1c0-3.8,2.6-6.3,6-6.3
						C530.5,383,532.8,385.6,532.8,389.1z M522.7,389.3c0,2.6,1.5,4.9,4.1,4.9c2.7,0,4.2-2.3,4.2-5c0-2.4-1.3-4.9-4.1-4.9
						C524.1,384.3,522.7,386.7,522.7,389.3z"/>
				</g>
				<g>
					<path class="st15" d="M535,383.4c0.8-0.2,2.1-0.3,3.2-0.3c1.8,0,2.9,0.3,3.7,1c0.7,0.5,1,1.4,1,2.3c0,1.6-1.1,2.6-2.4,3.1v0.1
						c1,0.3,1.6,1.2,1.9,2.4c0.4,1.7,0.7,2.8,1,3.3l-1.7,0c-0.2-0.3-0.5-1.4-0.9-2.9c-0.4-1.7-1.1-2.3-2.6-2.3h-1.6l0,5.2H535
						L535,383.4z M536.6,388.9l1.7,0c1.8,0,2.9-0.9,2.9-2.3c0-1.6-1.2-2.2-3-2.3c-0.8,0-1.4,0.1-1.7,0.1L536.6,388.9z"/>
				</g>
				<g>
					<path class="st15" d="M552,389.6l-5,0l0,4.3l5.6,0v1.3l-7.3,0l0-12l7,0l0,1.3l-5.3,0l0,3.8l5,0L552,389.6z"/>
				</g>
				<g>
					<path class="st15" d="M567.9,394.9c-0.6,0.3-1.8,0.6-3.4,0.6c-3.7,0-6.4-2.1-6.4-6.1c0-3.8,2.7-6.3,6.8-6.3
						c1.6,0,2.6,0.3,3.1,0.5l-0.4,1.3c-0.6-0.3-1.5-0.5-2.6-0.5c-3,0-5.1,1.8-5.1,5c0,2.9,1.8,4.8,5,4.8c1,0,2.1-0.2,2.7-0.5
						L567.9,394.9z"/>
				</g>
				<g>
					<path class="st15" d="M570,383.4c0.8-0.2,2.1-0.3,3.2-0.3c1.8,0,2.9,0.3,3.7,1c0.7,0.5,1,1.4,1,2.3c0,1.6-1.1,2.6-2.4,3.1v0.1
						c1,0.3,1.6,1.2,1.9,2.4c0.4,1.7,0.7,2.8,1,3.3l-1.7,0c-0.2-0.3-0.5-1.4-0.9-2.9c-0.4-1.7-1.1-2.3-2.6-2.3l-1.6,0l0,5.2l-1.7,0
						L570,383.4z M571.7,388.9l1.7,0c1.8,0,2.9-0.9,2.9-2.3c0-1.6-1.2-2.2-3-2.3c-0.8,0-1.4,0.1-1.7,0.1L571.7,388.9z"/>
				</g>
				<g>
					<path class="st15" d="M587.1,389.6l-5,0l0,4.3l5.6,0l0,1.3l-7.3,0l0-12l7,0v1.3l-5.3,0l0,3.8l5,0V389.6z"/>
				</g>
				<g>
					<path class="st15" d="M591.9,391.5l-1.3,3.8l-1.7,0l4.4-12l2,0l4.4,12h-1.8l-1.4-3.8L591.9,391.5z M596.1,390.3l-1.3-3.5
						c-0.3-0.8-0.5-1.5-0.7-2.2h0c-0.2,0.7-0.4,1.4-0.7,2.2l-1.3,3.5L596.1,390.3z"/>
				</g>
				<g>
					<path class="st15" d="M602.6,384.6l-3.9,0v-1.3l9.6,0v1.3l-4,0l0,10.7l-1.7,0L602.6,384.6z"/>
				</g>
				<g>
					<path class="st15" d="M611.3,383.2l0,12l-1.7,0l0-12L611.3,383.2z"/>
				</g>
				<g>
					<path class="st15" d="M617.1,395.3l-4.2-12l1.8,0l2,5.9c0.6,1.6,1,3.1,1.4,4.5h0c0.4-1.4,0.9-2.9,1.5-4.5l2.2-5.9l1.8,0
						l-4.6,12L617.1,395.3z"/>
				</g>
				<g>
					<path class="st15" d="M631.7,389.6l-5,0l0,4.3l5.6,0v1.3l-7.3,0l0-12l7,0l0,1.3l-5.3,0v3.8l5,0V389.6z"/>
				</g>
			</g>
		</g>
	</g>
</g>
<g id="Calque_3" class="st18">
	
		<image style="display:inline;overflow:visible;" width="300" height="300" xlink:href="../../../Creanfo/qr instagram/Unitag_QRCode_1654614169289.png"  transform="matrix(0.4382 0 0 0.4382 9.2697 9.5725)">
	</image>
</g>
</svg>
