<?xml version="1.0" encoding="utf-8"?>
<!-- Generator: Adobe Illustrator 26.0.1, SVG Export Plug-In . SVG Version: 6.00 Build 0)  -->
<svg version="1.1" xmlns="http://www.w3.org/2000/svg" xmlns:xlink="http://www.w3.org/1999/xlink" x="0px" y="0px"
	 viewBox="0 0 913 441.9" style="enable-background:new 0 0 913 441.9;" xml:space="preserve">
<style type="text/css">
	.st0{fill:#FFFFFF;}
	.st1{fill:#E5E5E5;}
	.st2{fill:#F6E05E;}
	.st3{fill:#F0F0F0;}
	.st4{fill:#FFB7B7;}
	.st5{fill:#2F2E41;}
	.st6{fill:#FFB8B8;}
	.st7{fill:#3F3D56;}
	.st8{fill:#CCCCCC;}
	.st9{fill:#A0616A;}
	.st10{opacity:0.14;enable-background:new    ;}
	.st11{fill:#CACACA;}
	.st12{fill:none;}
	.st13{font-family:'NusaibahBold-Bold';}
	.st14{font-size:14px;}
	.st15{display:none;}
	.st16{display:inline;}
	.st17{fill:#1D1D1B;}
	.st18{fill-rule:evenodd;clip-rule:evenodd;fill:#FFD700;}
	.st19{fill-rule:evenodd;clip-rule:evenodd;fill:#F6F6F7;}
	.st20{fill:#FFCD00;}
	.st21{fill:#FFD700;}
	.st22{fill:#951E81;}
	.st23{fill:#E73351;}
	.st24{fill-rule:evenodd;clip-rule:evenodd;fill:#951E81;}
	.st25{fill-rule:evenodd;clip-rule:evenodd;fill:#E73351;}
	.st26{fill:#EC6077;}
	.st27{fill:#FFE34A;}
	.st28{fill:#A94999;}
	.st29{fill:#F6A600;}
	.st30{fill-rule:evenodd;clip-rule:evenodd;fill:#1D1D1B;}
</style>
<g id="fc01f8dd-e41f-4957-98cb-f73daaef898c">
	<path class="st0" d="M124.2,353.3h686.6V5.7H124.2V353.3z"/>
	<path class="st1" d="M816.5,358.9h-698V0h698V358.9z M129.9,347.6h675.3V11.3H129.9V347.6z"/>
	<polygon class="st2" points="444.7,79.2 444.7,197.2 273.2,197.2 241.5,235.2 245.1,197.2 229.7,197.2 229.7,79.2 	"/>
	<polygon class="st3" points="548.5,86.2 548.5,161.8 658.4,161.8 678.8,186.2 676.4,161.8 686.3,161.8 686.3,86.2 	"/>
	<polygon class="st4" points="94.7,430.7 104.6,430.7 109.3,392.4 94.7,392.4 	"/>
	<path class="st5" d="M92.1,427.5l19.5,0h0c6.9,0,12.5,5.6,12.5,12.5v0.4l-32,0L92.1,427.5z"/>
	<polygon class="st4" points="213.9,430.4 223.5,428 218.9,389.7 204.7,393.2 	"/>
	<path class="st5" d="M210.6,427.8l19-4.7l0,0c6.7-1.6,13.4,2.4,15.1,9.1l0.1,0.4l-31.1,7.6L210.6,427.8z"/>
	<path class="st5" d="M88.6,421.6l2.1-10.5c0,0,3.8-40.7,31-81.3l8.9-44.1c0,0-2.6-33.4,22.8-51.5l7.8-5.4l27.5,1.6l6.3,34.7
		l12.8,82.1c0,0,3.3,0.3,4.5,9.8c2.5,4,4,8.5,4.3,13.2c0,0,6.5,18,8.3,31.3l-0.2,13l-13.8,7.4L182,340.4l-20.6-45.5
		c0,0-9.9,32.1-25.1,59.5c0,0-20.8,45-24.9,54.1l-4.5,15L88.6,421.6z"/>
	<circle class="st4" cx="180.4" cy="139.2" r="19.6"/>
	<circle class="st6" cx="180.4" cy="139.2" r="19.6"/>
	<path class="st7" d="M153.3,234.3l6.5-16.2c-4.6-14.8-4.3-30.7,0.8-45.4l0,0l1.2-1c10.8-8.9,20.3-7.3,29.1,3.6l0,0
		c1.4,1.8,3.1,3.3,4.9,4.6c3.9,2.7,10,17.5,1.9,26.2l-6.5,37.9C191.9,265,176.7,257.1,153.3,234.3z"/>
	<path class="st4" d="M246.2,212.3c-3.2-2.4-7.7-1.8-10.1,1.4c-0.3,0.3-0.5,0.7-0.7,1.1l-16.4-1.3l-3.2,9.8l23.1,1.5
		c3.7,1.6,7.9-0.1,9.5-3.8C249.9,217.8,248.9,214.3,246.2,212.3L246.2,212.3z"/>
	<path class="st8" d="M230.5,228.1l-46.6-8.7l-15.2-25.4c-2-5.6,0.9-11.8,6.5-13.9s11.8,0.9,13.9,6.5l0,0l7.1,19.7l36.9,6.1
		L230.5,228.1z"/>
	<circle class="st5" cx="145.4" cy="116.1" r="18.8"/>
	<path class="st5" d="M129.1,131.6c8.4,6.1,20.2,4.2,26.3-4.2c1.2-1.7,2.2-3.6,2.8-5.7c-1.3,10.3-10.7,17.6-21,16.3
		c-10.3-1.3-17.6-10.7-16.3-21c0.1-1,0.3-2,0.6-3C120.6,120.9,123.6,127.6,129.1,131.6z"/>
	<path class="st5" d="M203.4,131.7c-3.3-5.9-4.5-8.3-8.8-11.9c-3.7-3.2-8.4-4.1-12.1-1.1c-11.3-4.9-24.4,0.3-29.3,11.6
		c-4.9,11.3,0.3,24.4,11.6,29.3c11.3,4.9,24.4-0.3,29.3-11.6c1.2-2.8,1.8-5.8,1.8-8.8c0-0.8-0.1-1.7-0.2-2.5
		C199.1,136.1,200.2,132.1,203.4,131.7z"/>
	<path class="st9" d="M782.2,272.5c0.2-4.9,4.4-8.7,9.3-8.5c0.5,0,1,0.1,1.6,0.2l11.8-16.6l11.8,4.7l-16.9,23.2
		c-1.4,4.7-6.4,7.4-11.1,6C784.7,280.4,782,276.7,782.2,272.5L782.2,272.5z"/>
	<path class="st7" d="M795.2,258.3l20.9-35.2l-8.5-22.7l11.6-30.9l0.4,0.2c0.3,0.1,6.9,3.1,7.9,13.6l13.3,41.9l-35.6,46.2
		L795.2,258.3z"/>
	<path class="st9" d="M681.6,129c4.9,0.6,8.3,5.1,7.7,9.9c-0.1,0.5-0.2,1-0.3,1.5l15.6,13l-5.6,11.4l-21.8-18.7
		c-4.6-1.8-6.9-6.9-5.1-11.6C673.6,130.8,677.5,128.4,681.6,129z"/>
	<path class="st7" d="M694.8,142.9l33.4,23.6l23.3-6.7l30,14l-0.2,0.4c-0.1,0.3-3.6,6.6-14.2,6.8L724.3,191l-43.3-39L694.8,142.9z"
		/>
	<polygon class="st9" points="756,429.5 744.4,429.5 738.8,384.7 756,384.7 	"/>
	<path class="st5" d="M736.1,426.2h22.4l0,0v14.1l0,0h-36.5l0,0l0,0C721.9,432.5,728.3,426.2,736.1,426.2L736.1,426.2z"/>
	<polygon class="st9" points="802.5,429.5 790.8,429.5 785.3,384.7 802.5,384.7 	"/>
	<path class="st5" d="M782.5,426.2H805l0,0v14.1l0,0h-36.5l0,0l0,0C768.4,432.5,774.7,426.2,782.5,426.2L782.5,426.2z"/>
	<polygon class="st5" points="806.6,265.8 805.7,332.2 804.7,419.5 783.8,417.6 773.4,297.1 760.1,417.6 738.6,417.6 736.4,296.2 
		744,269.6 	"/>
	<path class="st7" d="M741.9,270l-3.2-0.1l14.8-81.3l-6-24.6c-0.7-2.6,0.8-5.4,3.3-6.3l10.9-4.1l3.8-10.6l30.3,3.3l0.7,8.3
		c3.3,1.1,30.3,10.1,28.5,20.3c-1.8,10.1-12.7,42-13.3,43.6l-1.9,45.7l-0.2,0.1c-0.3,0.1-21.2,10.4-43.9,10.4
		C757.6,274.9,749.5,273.3,741.9,270z"/>
	<circle class="st9" cx="779.5" cy="115.9" r="21.8"/>
	<path class="st5" d="M797.2,137.1c-4.2,4.4-11.9,2.1-12.4-4c0-0.5,0-0.9,0-1.4c0.3-2.7,1.8-5.1,1.5-7.9c-0.1-0.7-0.3-1.4-0.8-2
		c-3.3-4.4-11.1,2-14.2-2c-1.9-2.5,0.3-6.3-1.1-9.1c-1.9-3.6-7.7-1.8-11.3-3.8c-4-2.2-3.8-8.4-1.1-12.1c3.2-4.6,8.9-7,14.5-7.4
		s11.1,1.2,16.3,3.2c5.9,2.3,11.8,5.5,15.4,10.7c4.4,6.3,4.9,14.8,2.6,22.2C805.2,128,800.6,133.5,797.2,137.1z"/>
	<polygon class="st6" points="560.7,423.5 563.9,415.2 533.3,398.7 528.5,411 	"/>
	<path class="st5" d="M578,401.7c-5.8-2.2-12.3,0.6-14.5,6.4c0,0,0,0,0,0l-2.2,5.6l-3.4,8.7l-0.8,2.1l10.8,4.2l10.5-26.9L578,401.7z
		"/>
	<path class="st5" d="M557.9,407.4l-1.4,3.7l-3.5,9.3l-0.1,0.2c-9,1.2-18.8-1.1-27.9-4.6c-3.6-1.4-7.2-3-10.7-4.8
		c-5.1-2.6-9.7-5.3-13.4-7.7c-5.5-3.5-9-6.2-9-6.2s-0.9,0.8-2.5,2.2c-2.2,1.9-5.7,4.8-10.1,8.2c-1.7,1.3-3.5,2.7-5.4,4.2
		c-14.3,10.6-32.7-17.7-32.7-17.7s5.2-3.3,6.5-3.9c4.3-2.1,14.6-6.9,23.4-11.2c4.5-2.2,8.7-4.3,11.5-5.8c9.9-5.3,22.2,4.7,22.2,4.7
		L557.9,407.4z"/>
	<path class="st10" d="M557.9,407.4l-1.4,3.7l-3.5,9.3l-0.1,0.2c-9,1.2-18.8-1.1-27.9-4.6c-3.6-1.4-7.2-3-10.7-4.8
		c-5.1-2.6-9.7-5.3-13.4-7.7c-5.5-3.5-9-6.2-9-6.2s-0.9,0.8-2.5,2.2c-2.2,1.9-5.7,4.8-10.1,8.2c-1.7,1.3-3.5,2.7-5.4,4.2
		c-14.3,10.6-32.7-17.7-32.7-17.7s5.2-3.3,6.5-3.9c4.3-2.1,14.6-6.9,23.4-11.2c4.5-2.2,8.7-4.3,11.5-5.8c9.9-5.3,22.2,4.7,22.2,4.7
		L557.9,407.4z"/>
	<path class="st5" d="M414.8,328.9h-42.3c-1.8,0-3.3-1.5-3.3-3.3v-18.3c0-13.5,10.9-24.5,24.4-24.5c13.5,0,24.5,10.9,24.5,24.4
		c0,0,0,0,0,0v18.3C418.1,327.5,416.6,328.9,414.8,328.9z"/>
	<path class="st6" d="M455.1,351.9c-3.7,0.7-6.2,4.2-5.6,7.9c0.1,0.4,0.2,0.8,0.3,1.2l-11.5,10.6l4.7,8.6l16-15.2
		c3.5-1.5,5-5.6,3.5-9.1C461.3,352.9,458.2,351.3,455.1,351.9L455.1,351.9z"/>
	<path class="st2" d="M420.4,400c-0.5,0-1,0-1.6-0.1c-6.3-0.5-11.9-4.3-14.8-9.9l-18.4-35.5c-2.6-5-0.6-11.1,4.3-13.7
		c4.7-2.4,10.4-0.9,13.3,3.5l17,38.2l23.2-18.8l13.4,5.2l-22.6,25C430.6,397.8,425.7,400,420.4,400z"/>
	<polygon class="st6" points="558.1,435.2 562,427.2 532.7,408.4 527,420.3 	"/>
	<path class="st5" d="M577.1,414.9c-5.6-2.7-12.3-0.3-15,5.3c0,0,0,0,0,0l-2.6,5.4l-4,8.4l-1,2.1l10.5,5l12.5-26L577.1,414.9z"/>
	<path class="st5" d="M556.6,419l-1.7,3.6l-4.2,9l-0.1,0.2c-9,0.5-18.7-2.5-27.5-6.7c-3.5-1.7-7-3.5-10.3-5.6
		c-4.9-3-9.3-6.1-12.8-8.7c-5.2-4-8.4-6.9-8.4-6.9s-1,0.7-2.7,2c-2.3,1.7-6,4.4-10.7,7.4c-1.8,1.2-3.7,2.4-5.8,3.7
		c-15.1,9.5-36.5,21-54.8,23.5c-32,4.3-24.5-38.5-24.5-38.5l25.5-13.2l10.8,2.2l12.1,2.4l4.3,0.9c0,0,0.8-0.3,2.2-0.8
		c4.5-1.7,15-5.8,24.1-9.4c4.7-1.9,9-3.6,11.9-4.9c10.3-4.5,21.8,6.4,21.8,6.4L556.6,419z"/>
	<path class="st6" d="M346.5,441.7c3.7-0.8,6-4.5,5.1-8.2c-0.1-0.4-0.2-0.8-0.4-1.1l11-11.2l-5.2-8.3l-15.2,16
		c-3.4,1.7-4.8,5.9-3,9.2C340.2,440.9,343.4,442.4,346.5,441.7L346.5,441.7z"/>
	<circle class="st6" cx="399.6" cy="312.7" r="17.1"/>
	<path class="st2" d="M377.4,360.1l14.9,42.2l-0.1,0.1c-2.1,3.4-2.7,6.2-2,8c0.4,0.9,1.2,1.6,2.2,1.9l35.2-24.6l-1.2-9.9l0.1-0.1
		c3.4-5.4,4.5-10.4,3.3-14.6c-1.1-3.5-3.5-6.4-6.7-8.1l-0.1-0.1l-17.6-21.4l-23.5,4.2L377.4,360.1z"/>
	<path class="st2" d="M354.8,434.1l-10-12.3l24-39.6l11.2-34.6l0.3,0.1l-0.3-0.1c2.4-7.3,10.2-11.3,17.5-8.9
		c7.3,2.4,11.3,10.2,8.9,17.5c-0.4,1.2-1,2.4-1.7,3.4l-20.6,30.8L354.8,434.1z"/>
	<path class="st5" d="M423.9,309.2H398l-0.3-3.7l-1.3,3.7h-4l-0.5-7.4l-2.6,7.4h-7.7v-0.4c0-10.7,8.7-19.3,19.3-19.3h3.7
		c10.7,0,19.3,8.7,19.3,19.3L423.9,309.2z"/>
	<path class="st5" d="M397.8,332.3c-0.2,0-0.4,0-0.6-0.1l-19-3.3v-31.3h20.9l-0.5,0.6c-7.2,8.4-1.8,22,2.1,29.3
		c0.6,1.1,0.5,2.4-0.3,3.4C399.8,331.8,398.8,332.3,397.8,332.3z"/>
	<polygon class="st3" points="681,276.2 681,320.3 485.5,320.3 457.2,354.2 460.5,320.3 446.7,320.3 446.7,276.2 	"/>
	<circle class="st0" cx="528" cy="298.2" r="8"/>
	<circle class="st0" cx="501" cy="298.2" r="8"/>
	<circle class="st0" cx="474" cy="298.2" r="8"/>
	<path class="st11" d="M912,441.2H1c-0.6,0-1-0.4-1-1s0.4-1,1-1h911c0.6,0,1,0.4,1,1S912.6,441.2,912,441.2z"/>
</g>
<g id="Calque_3">
	<rect x="552.2" y="292.4" class="st12" width="118.4" height="10.4"/>
	<text transform="matrix(1 0 0 1 552.213 301.4473)"><tspan x="0" y="0" class="st13 st14">@CREANFO</tspan><tspan x="67" y="0" class="st13 st14">-</tspan></text>
	<g id="rs">
		<g>
			<g>
				<g>
					<path d="M500.9,307c-0.2,0-0.4,0-0.6,0c-0.2,0-0.5-0.1-0.7-0.1c-0.2,0-0.4-0.1-0.6-0.1c-0.3-0.1-0.6-0.2-0.8-0.3
						c-0.2-0.1-0.4-0.2-0.6-0.3c-0.3-0.1-0.6-0.3-0.9-0.5c-0.4-0.2-0.7-0.5-1.1-0.8c-0.3-0.3-0.6-0.6-0.9-1c-0.4-0.5-0.7-1-1-1.5
						c-0.2-0.4-0.3-0.7-0.4-1.1c-0.1-0.3-0.2-0.6-0.3-1c-0.1-0.3-0.1-0.6-0.1-1c0-0.2,0-0.5,0-0.7c0-0.4,0-0.8,0.1-1.2
						c0.1-0.4,0.1-0.8,0.2-1.1c0.1-0.3,0.2-0.7,0.4-1c0.1-0.4,0.3-0.7,0.5-1c0.3-0.5,0.6-0.9,0.9-1.3c0.3-0.3,0.6-0.7,1-1
						c0.3-0.3,0.7-0.5,1.1-0.7c0.4-0.2,0.7-0.4,1.1-0.5c0.2-0.1,0.5-0.2,0.7-0.2c0.3-0.1,0.6-0.2,0.9-0.2c0.2,0,0.5-0.1,0.7-0.1
						c0.2,0,0.3,0,0.5,0c0.3,0,0.6,0,0.9,0.1c0.2,0,0.4,0,0.6,0.1c0.2,0,0.4,0.1,0.6,0.2c0.4,0.1,0.8,0.3,1.2,0.5
						c0.6,0.3,1.1,0.6,1.6,1c0.4,0.3,0.8,0.7,1.1,1c0.3,0.4,0.6,0.8,0.9,1.2c0.2,0.3,0.4,0.7,0.5,1.1c0.2,0.5,0.3,0.9,0.4,1.4
						c0.1,0.3,0.1,0.7,0.2,1.1c0,0.1,0,0.2,0,0.4c0,0.6,0,1.1-0.1,1.7c-0.1,0.5-0.2,1.1-0.4,1.6c-0.2,0.5-0.4,1.1-0.7,1.6
						c-0.3,0.5-0.6,0.9-1,1.3c-0.4,0.5-0.9,0.9-1.4,1.3c-0.4,0.3-0.9,0.6-1.4,0.8c-0.3,0.1-0.7,0.3-1,0.4c-0.4,0.1-0.8,0.2-1.2,0.2
						C501.7,307,501.4,307,500.9,307C501,307,500.9,307,500.9,307z M501.6,300.6C501.6,300.6,501.6,300.6,501.6,300.6
						c0-0.5,0-1,0-1.6c0-0.1,0-0.1,0.1-0.1c0.3,0,0.6,0,0.9,0c0.1,0,0.1,0,0.1-0.1c0-0.4,0.1-0.7,0.1-1.1c0-0.1,0-0.1-0.1-0.1
						c-0.3,0-0.7,0-1,0c-0.1,0-0.1,0-0.1-0.1c0-0.2,0-0.5,0-0.7c0-0.1,0-0.1,0-0.2c0-0.3,0.2-0.4,0.4-0.5c0.1,0,0.2,0,0.4,0
						c0.1,0,0.3,0,0.4,0c0.1,0,0.1,0,0.1-0.1c0-0.3,0-0.7,0-1c0-0.1,0-0.1-0.1-0.1c-0.3,0-0.6,0-1,0c-0.2,0-0.4,0-0.6,0.1
						c-0.3,0.1-0.5,0.3-0.7,0.6c-0.2,0.3-0.2,0.6-0.3,0.9c0,0.3,0,0.6,0,0.9c0,0.1,0,0.1-0.1,0.1c-0.3,0-0.6,0-0.8,0
						c-0.1,0-0.1,0-0.1,0.1c0,0.3,0,0.7,0,1c0,0,0,0,0,0c0,0.1,0,0.1,0.1,0.1c0,0,0.1,0,0.1,0c0.3,0,0.5,0,0.8,0
						c0.2,0,0.2,0,0.2,0.2c0,1,0,2,0,3.1c0,0,0,0.1,0,0.1c0,0,0,0,0,0c0,0,0,0,0.1,0c0.3,0,0.6,0,0.9,0c0.1,0,0.2,0,0.2,0
						c0.1,0,0.1,0,0.1-0.1c0,0,0-0.1,0-0.1C501.6,301.6,501.6,301.1,501.6,300.6z"/>
				</g>
				<g>
					<path class="st0" d="M501.6,300.6c0,0.5,0,1,0,1.5c0,0,0,0.1,0,0.1c0,0.1,0,0.1-0.1,0.1c-0.1,0-0.2,0-0.2,0c-0.3,0-0.6,0-0.9,0
						c0,0,0,0-0.1,0c0,0,0,0,0,0c0,0,0-0.1,0-0.1c0-1,0-2,0-3.1c0-0.2,0-0.2-0.2-0.2c-0.3,0-0.5,0-0.8,0c0,0-0.1,0-0.1,0
						c-0.1,0-0.1,0-0.1-0.1c0,0,0,0,0,0c0-0.3,0-0.7,0-1c0-0.1,0-0.1,0.1-0.1c0.3,0,0.6,0,0.8,0c0.1,0,0.1,0,0.1-0.1
						c0-0.3,0-0.6,0-0.9c0-0.3,0.1-0.6,0.3-0.9c0.2-0.3,0.4-0.5,0.7-0.6c0.2-0.1,0.4-0.1,0.6-0.1c0.3,0,0.6,0,1,0
						c0.1,0,0.1,0,0.1,0.1c0,0.3,0,0.7,0,1c0,0.1,0,0.1-0.1,0.1c-0.1,0-0.3,0-0.4,0c-0.1,0-0.2,0-0.4,0c-0.3,0-0.4,0.2-0.4,0.5
						c0,0.1,0,0.1,0,0.2c0,0.2,0,0.5,0,0.7c0,0.1,0,0.1,0.1,0.1c0.3,0,0.7,0,1,0c0.1,0,0.1,0,0.1,0.1c0,0.4-0.1,0.7-0.1,1.1
						c0,0.1,0,0.1-0.1,0.1c-0.3,0-0.6,0-0.9,0c-0.1,0-0.1,0-0.1,0.1C501.6,299.5,501.6,300,501.6,300.6
						C501.6,300.6,501.6,300.6,501.6,300.6z"/>
				</g>
			</g>
			<g>
				<g>
					<path d="M474.1,306.4c-0.2,0-0.4,0-0.6,0c-0.2,0-0.4,0-0.6-0.1c-0.1,0-0.2,0-0.3,0c-0.3-0.1-0.7-0.1-1-0.3
						c-0.4-0.1-0.8-0.3-1.2-0.5c-0.6-0.3-1.1-0.7-1.5-1.1c-0.2-0.1-0.3-0.3-0.5-0.5c-0.4-0.4-0.7-0.9-1-1.3
						c-0.2-0.4-0.5-0.8-0.6-1.3c-0.2-0.4-0.3-0.8-0.4-1.2c-0.1-0.4-0.2-0.8-0.2-1.3c0-0.3,0-0.7,0-1c0-0.4,0.1-0.8,0.1-1.2
						c0.1-0.3,0.1-0.7,0.2-1c0.1-0.4,0.3-0.8,0.5-1.2c0.2-0.3,0.4-0.7,0.6-1c0.3-0.4,0.5-0.7,0.8-1c0.3-0.3,0.6-0.5,0.9-0.8
						c0.5-0.4,1-0.7,1.6-1c0.4-0.2,0.7-0.3,1.1-0.4c0.3-0.1,0.5-0.1,0.8-0.2c0.2,0,0.5-0.1,0.7-0.1c0.1,0,0.2,0,0.4,0
						c0.2,0,0.4,0,0.6,0c0.3,0,0.6,0.1,0.9,0.1c0.2,0,0.5,0.1,0.7,0.1c0.4,0.1,0.8,0.2,1.2,0.4c0.5,0.2,1,0.5,1.5,0.9
						c0.3,0.2,0.6,0.5,0.9,0.8c0.3,0.3,0.5,0.5,0.7,0.8c0.3,0.3,0.5,0.7,0.7,1.1c0.2,0.3,0.3,0.7,0.5,1.1c0.1,0.4,0.2,0.8,0.3,1.2
						c0.1,0.4,0.1,0.8,0.1,1.2c0,0.2,0,0.5,0,0.7c0,0.2,0,0.4,0,0.5c0,0.3-0.1,0.5-0.1,0.8c0,0.2-0.1,0.5-0.1,0.7
						c-0.1,0.5-0.3,1-0.6,1.4c-0.2,0.3-0.3,0.7-0.6,1c-0.2,0.3-0.4,0.6-0.7,0.9c-0.5,0.5-1,1-1.6,1.4c-0.3,0.2-0.6,0.3-0.8,0.5
						c-0.3,0.2-0.7,0.3-1.1,0.4c-0.4,0.1-0.8,0.2-1.1,0.3C474.9,306.4,474.6,306.4,474.1,306.4z M477.3,298.1
						C477.3,298.1,477.3,298.1,477.3,298.1c0-0.2,0-0.3,0-0.5c0-0.3,0-0.7,0-1c0-0.2,0-0.4-0.1-0.5c-0.2-0.5-0.5-0.9-1.1-1.1
						c-0.2-0.1-0.4-0.1-0.5-0.1c-0.3,0-0.6,0-0.9-0.1c-0.2,0-0.5,0-0.7,0c-0.5,0-0.9,0-1.4,0c-0.3,0-0.5,0-0.8,0.2
						c-0.6,0.3-0.9,0.7-1.1,1.4c-0.1,0.3-0.1,0.6-0.1,0.9c0,0.6,0,1.1,0,1.7c0,0.3,0,0.7,0,1c0,0.3,0.1,0.6,0.3,0.8
						c0.2,0.4,0.5,0.6,0.9,0.7c0.2,0.1,0.4,0.1,0.7,0.1c0.8,0,1.6,0,2.4,0.1c0.2,0,0.5,0,0.7,0c0.3,0,0.5-0.1,0.8-0.3
						c0.4-0.3,0.6-0.6,0.7-1c0.1-0.2,0.1-0.4,0.1-0.7C477.3,299.1,477.3,298.6,477.3,298.1z"/>
				</g>
				<g>
					<path class="st0" d="M477.3,298.1c0,0.5,0,1-0.1,1.5c0,0.2,0,0.4-0.1,0.7c-0.1,0.4-0.4,0.8-0.7,1c-0.2,0.2-0.5,0.3-0.8,0.3
						c-0.2,0-0.5,0-0.7,0c-0.8,0-1.6,0-2.4-0.1c-0.2,0-0.4,0-0.7-0.1c-0.4-0.1-0.7-0.4-0.9-0.7c-0.2-0.2-0.3-0.5-0.3-0.8
						c0-0.3,0-0.7,0-1c0-0.6,0-1.1,0-1.7c0-0.3,0-0.6,0.1-0.9c0.1-0.6,0.5-1.1,1.1-1.4c0.2-0.1,0.5-0.1,0.8-0.2c0.5,0,0.9,0,1.4,0
						c0.2,0,0.5,0,0.7,0c0.3,0,0.6,0,0.9,0.1c0.2,0,0.4,0.1,0.5,0.1c0.5,0.2,0.9,0.6,1.1,1.1c0.1,0.2,0.1,0.4,0.1,0.5
						c0,0.3,0,0.7,0,1C477.3,297.8,477.3,298,477.3,298.1C477.3,298.1,477.3,298.1,477.3,298.1z M476.7,298.1
						C476.7,298.1,476.7,298.1,476.7,298.1c0,0,0-0.1,0-0.1c0-0.5,0-1,0-1.5c0-0.2-0.1-0.3-0.1-0.4c-0.2-0.3-0.4-0.5-0.8-0.6
						c-0.1,0-0.3,0-0.4-0.1c-0.5,0-0.9-0.1-1.4-0.1c-0.5,0-1,0-1.5,0c-0.2,0-0.4,0.1-0.6,0.2c-0.3,0.2-0.5,0.4-0.5,0.8
						c-0.1,0.3-0.1,0.5-0.1,0.8c0,0.5,0,1,0,1.5c0,0.4,0,0.8,0,1.2c0,0.3,0.1,0.5,0.3,0.7c0.1,0.1,0.3,0.2,0.5,0.3
						c0.2,0.1,0.4,0.1,0.6,0.1c0.6,0,1.1,0,1.7,0c0.3,0,0.6,0,1,0c0.2,0,0.3,0,0.5-0.1c0.4-0.2,0.6-0.5,0.7-0.9
						c0-0.2,0.1-0.4,0.1-0.6C476.7,299,476.7,298.6,476.7,298.1z"/>
				</g>
				<g>
					<path d="M476.7,298.1c0,0.4,0,0.9-0.1,1.3c0,0.2,0,0.4-0.1,0.6c-0.1,0.4-0.3,0.7-0.7,0.9c-0.2,0.1-0.3,0.1-0.5,0.1
						c-0.3,0-0.6,0-1,0c-0.6,0-1.1,0-1.7,0c-0.2,0-0.4,0-0.6-0.1c-0.2,0-0.3-0.1-0.5-0.3c-0.2-0.2-0.3-0.4-0.3-0.7
						c-0.1-0.4,0-0.8,0-1.2c0-0.5,0-1,0-1.5c0-0.3,0-0.5,0.1-0.8c0.1-0.3,0.3-0.6,0.5-0.8c0.2-0.1,0.4-0.1,0.6-0.2c0.5,0,1,0,1.5,0
						c0.5,0,0.9,0,1.4,0.1c0.1,0,0.3,0,0.4,0.1c0.3,0.1,0.6,0.3,0.8,0.6c0.1,0.1,0.1,0.3,0.1,0.4c0,0.5,0,1,0,1.5
						C476.7,298.1,476.7,298.1,476.7,298.1C476.7,298.1,476.7,298.1,476.7,298.1z M474,300c0.9,0,1.7-0.7,1.7-1.7
						c0-0.9-0.7-1.8-1.7-1.8c-1,0-1.7,0.8-1.7,1.7C472.3,299.1,473.1,300,474,300z M476.2,296.4c0-0.2-0.2-0.4-0.4-0.4
						c-0.2,0-0.4,0.2-0.4,0.4c0,0.2,0.2,0.4,0.4,0.4C476,296.9,476.2,296.7,476.2,296.4z"/>
				</g>
				<g>
					<path class="st0" d="M474,300c-0.9,0-1.7-0.8-1.7-1.8c0-0.9,0.8-1.7,1.7-1.7c1,0,1.7,0.8,1.7,1.8
						C475.7,299.2,474.9,300,474,300z M474,299.3c0.6,0,1.1-0.5,1.1-1.1c0-0.6-0.5-1.1-1.1-1.1c-0.6,0-1.1,0.6-1.1,1.2
						C472.9,298.8,473.4,299.4,474,299.3z"/>
				</g>
				<g>
					<path class="st0" d="M476.2,296.4c0,0.2-0.2,0.4-0.4,0.4c-0.2,0-0.4-0.2-0.4-0.4c0-0.2,0.2-0.4,0.4-0.4
						C476.1,296,476.2,296.2,476.2,296.4z"/>
				</g>
				<g>
					<path d="M474,299.3c-0.6,0-1.1-0.5-1.1-1.1c0-0.6,0.5-1.2,1.1-1.2c0.6,0,1.1,0.5,1.1,1.1C475.1,298.8,474.6,299.4,474,299.3z"
						/>
				</g>
			</g>
			<g class="st15">
				<g class="st16">
					<path d="M583.2,149.5c0,0.1,0,0.2,0,0.3c0,0.3,0,0.6-0.1,0.8c-0.1,0.3-0.1,0.7-0.2,1c-0.1,0.4-0.3,0.8-0.5,1.2
						c-0.2,0.3-0.3,0.6-0.5,0.8c-0.2,0.3-0.4,0.5-0.7,0.7c-0.3,0.3-0.6,0.6-1,0.8c-0.3,0.2-0.6,0.4-1,0.5c-0.2,0.1-0.5,0.2-0.7,0.2
						c-0.2,0.1-0.4,0.1-0.5,0.1c-0.3,0.1-0.6,0.1-0.9,0.1c-0.3,0-0.5,0-0.8,0c-0.2,0-0.4,0-0.6-0.1c-0.3-0.1-0.7-0.1-1-0.2
						c-0.2-0.1-0.5-0.2-0.7-0.3c-0.3-0.1-0.5-0.3-0.8-0.4c-0.3-0.2-0.6-0.4-0.9-0.7c-0.2-0.2-0.4-0.4-0.6-0.6
						c-0.2-0.2-0.4-0.5-0.5-0.7c-0.2-0.3-0.4-0.6-0.5-1c-0.1-0.3-0.2-0.5-0.3-0.8c0-0.2-0.1-0.4-0.1-0.6c0-0.1,0-0.3-0.1-0.4
						c0-0.2,0-0.5-0.1-0.7c0-0.2,0-0.5,0-0.7c0-0.3,0-0.5,0.1-0.8c0-0.3,0.1-0.5,0.2-0.8c0.1-0.4,0.3-0.8,0.5-1.2
						c0.2-0.3,0.4-0.6,0.6-0.9c0.2-0.3,0.4-0.5,0.7-0.8c0.3-0.3,0.7-0.6,1.1-0.8c0.4-0.2,0.8-0.4,1.2-0.6c0.2-0.1,0.4-0.1,0.6-0.2
						c0.2-0.1,0.5-0.1,0.7-0.2c0.2,0,0.4,0,0.6-0.1c0.1,0,0.2,0,0.4,0c0.2,0,0.5,0,0.7,0c0.2,0,0.4,0,0.5,0.1c0.2,0,0.4,0.1,0.5,0.1
						c0.3,0.1,0.7,0.2,1,0.4c0.3,0.1,0.5,0.3,0.8,0.4c0.5,0.3,1,0.8,1.4,1.3c0.3,0.3,0.5,0.6,0.7,1c0.3,0.4,0.5,0.9,0.6,1.3
						c0.1,0.3,0.2,0.6,0.2,0.9c0.1,0.3,0.1,0.7,0.1,1C583.2,149.3,583.2,149.4,583.2,149.5C583.2,149.5,583.2,149.5,583.2,149.5z
						 M577.1,151C577.1,151,577.1,151,577.1,151c0-0.4,0-0.8,0-1.2c0,0,0,0,0-0.1c0,0,0-0.1,0.1-0.1c0,0,0,0,0.1,0
						c0.2,0,0.5,0,0.7,0c0.1,0,0.1,0,0.1-0.1c0-0.1,0-0.2,0-0.3c0-0.2,0-0.4,0.1-0.5c0-0.1,0-0.1-0.1-0.1c0,0,0,0,0,0
						c-0.3,0-0.5,0-0.8,0c0,0,0,0-0.1,0c0,0,0,0,0,0c0,0,0,0,0,0c0-0.2,0-0.4,0-0.6c0,0,0-0.1,0-0.1c0-0.2,0.1-0.3,0.3-0.4
						c0.1,0,0.2,0,0.3,0c0.1,0,0.2,0,0.3,0c0.1,0,0.1,0,0.1-0.1c0-0.3,0-0.5,0-0.8c0-0.1,0-0.1-0.1-0.1c-0.3,0-0.5,0-0.8,0
						c-0.2,0-0.3,0-0.5,0.1c-0.4,0.1-0.6,0.4-0.7,0.8c0,0.2-0.1,0.3-0.1,0.5c0,0.2,0,0.5,0,0.7c0,0.1,0,0.1-0.1,0.1
						c-0.1,0-0.2,0-0.4,0c-0.1,0-0.3,0-0.4,0c-0.1,0-0.1,0-0.1,0.1c0,0,0,0,0,0c0,0.3,0,0.6,0,0.8c0,0,0,0,0,0c0,0,0,0,0,0
						c0,0,0,0,0.1,0c0.2,0,0.4,0,0.7,0c0.1,0,0.1,0,0.1,0.1c0,0.8,0,1.7,0,2.5c0,0,0,0,0,0.1c0,0,0,0,0,0c0,0,0,0,0.1,0
						c0.2,0,0.4,0,0.7,0c0.1,0,0.2,0,0.2,0c0.1,0,0.1,0,0.1-0.1c0,0,0,0,0-0.1C577.1,151.9,577.1,151.4,577.1,151z"/>
				</g>
				<g class="st16">
					<path class="st0" d="M575.8,152.8c-0.2,0-0.3,0-0.5,0c-0.2-0.1-0.5-0.1-0.7-0.3c0,0,0,0-0.1,0c-0.2-0.1-0.3-0.3-0.5-0.5
						c-0.1-0.1-0.2-0.2-0.2-0.3c0-0.1,0-0.1-0.1-0.2c-0.1-0.2-0.1-0.4-0.1-0.5c-0.1-0.2-0.1-0.3,0-0.5c0-0.1,0-0.2,0.1-0.2
						c0-0.2,0.1-0.4,0.2-0.5c0-0.2,0.2-0.3,0.3-0.4c0.2-0.2,0.3-0.4,0.6-0.5c0.1,0,0.1-0.1,0.2-0.2c0.2-0.1,0.4-0.1,0.6-0.1
						c0.1,0,0.2,0,0.4,0.1c0.1,0.1,0.2,0.2,0.2,0.3c0,0.2,0,0.4-0.1,0.6c-0.1,0.1-0.2,0.2-0.3,0.3c-0.2,0.1-0.4,0.2-0.6,0.3
						c-0.2,0.2-0.3,0.5-0.2,0.8c0.1,0.1,0.1,0.3,0.2,0.4c0.1,0.1,0.2,0.2,0.4,0.3c0.2,0,0.4,0.1,0.6,0c0.1,0,0.2-0.1,0.3-0.2
						c0.2-0.1,0.2-0.3,0.3-0.5c0.1-0.4,0.2-0.8,0.1-1.3c0-0.2-0.1-0.4-0.1-0.6c0-0.1,0-0.2,0-0.2c0-0.1,0-0.1,0-0.2
						c0-0.1,0-0.2,0-0.2c0-0.3-0.1-0.6,0.1-0.8c0,0,0,0,0,0c-0.1-0.3,0-0.6,0-0.9c0-0.2,0.1-0.4,0.3-0.5c0.2,0,0.5-0.1,0.7,0
						c0.1,0.1,0.2,0.2,0.3,0.3c0,0.3,0.2,0.5,0.4,0.7c0.1,0.1,0.3,0.2,0.4,0.4c0.1,0.1,0.3,0.1,0.4,0.1c0.2,0,0.3,0.2,0.4,0.5
						c0,0.1,0,0.2,0,0.4c0,0.2-0.2,0.4-0.4,0.4c-0.3,0-0.5,0-0.8-0.2c-0.1-0.1-0.2-0.1-0.3,0c-0.1,0-0.1,0.1-0.1,0.2
						c0,0.1,0,0.2,0,0.4c0,0.5,0,0.9,0,1.4c0,0.3-0.1,0.5-0.1,0.8c-0.1,0.5-0.4,0.8-0.7,1.1c-0.2,0.2-0.4,0.3-0.7,0.3
						c-0.1,0-0.2,0.1-0.3,0.1C576.1,152.8,575.9,152.8,575.8,152.8z"/>
				</g>
			</g>
			<g>
				<g>
					<path d="M535.8,298.3c0,0.1,0,0.2,0,0.4c0,0.3-0.1,0.7-0.1,1c-0.1,0.4-0.2,0.8-0.3,1.2c-0.2,0.5-0.4,0.9-0.6,1.4
						c-0.2,0.3-0.4,0.7-0.6,1c-0.2,0.3-0.5,0.6-0.8,0.9c-0.4,0.4-0.8,0.7-1.2,1c-0.4,0.2-0.8,0.5-1.2,0.6c-0.3,0.1-0.5,0.2-0.8,0.3
						c-0.2,0.1-0.4,0.1-0.6,0.2c-0.3,0.1-0.7,0.1-1,0.1c-0.3,0-0.6,0-0.9,0c-0.2,0-0.5,0-0.7-0.1c-0.4-0.1-0.8-0.2-1.2-0.3
						c-0.3-0.1-0.6-0.2-0.8-0.3c-0.3-0.2-0.6-0.3-0.9-0.5c-0.4-0.2-0.7-0.5-1-0.8c-0.3-0.2-0.5-0.5-0.7-0.8
						c-0.2-0.3-0.4-0.6-0.6-0.9c-0.2-0.4-0.4-0.7-0.6-1.1c-0.1-0.3-0.2-0.6-0.3-0.9c-0.1-0.2-0.1-0.4-0.2-0.7c0-0.2-0.1-0.3-0.1-0.5
						c0-0.3-0.1-0.5-0.1-0.8c0-0.3,0-0.5,0-0.8c0-0.3,0.1-0.6,0.1-0.9c0.1-0.3,0.1-0.6,0.2-0.9c0.1-0.5,0.3-1,0.6-1.4
						c0.2-0.4,0.4-0.7,0.7-1.1c0.2-0.3,0.5-0.6,0.8-0.9c0.4-0.4,0.8-0.7,1.2-1c0.4-0.3,0.9-0.5,1.4-0.7c0.2-0.1,0.4-0.2,0.7-0.2
						c0.3-0.1,0.6-0.2,0.9-0.2c0.2,0,0.5-0.1,0.7-0.1c0.1,0,0.3,0,0.4,0c0.3,0,0.6,0,0.8,0c0.2,0,0.4,0,0.6,0.1
						c0.2,0,0.4,0.1,0.6,0.1c0.4,0.1,0.8,0.2,1.1,0.4c0.3,0.1,0.6,0.3,0.9,0.5c0.6,0.4,1.2,0.9,1.7,1.5c0.3,0.3,0.6,0.7,0.8,1.1
						c0.3,0.5,0.5,1,0.7,1.6c0.1,0.4,0.2,0.7,0.3,1.1c0.1,0.4,0.1,0.8,0.1,1.2C535.8,298.1,535.8,298.2,535.8,298.3
						C535.8,298.3,535.8,298.3,535.8,298.3z M528.6,300.1C528.6,300.1,528.5,300.1,528.6,300.1c0-0.5,0-1,0-1.5c0,0,0-0.1,0-0.1
						c0,0,0-0.1,0.1-0.1c0,0,0,0,0.1,0c0.3,0,0.5,0,0.8,0c0.1,0,0.1,0,0.1-0.1c0-0.1,0-0.3,0-0.4c0-0.2,0-0.4,0.1-0.6
						c0-0.1,0-0.1-0.1-0.1c0,0,0,0-0.1,0c-0.3,0-0.6,0-0.9,0c0,0,0,0-0.1,0c0,0-0.1,0-0.1-0.1c0,0,0,0,0,0c0-0.2,0-0.5,0-0.7
						c0-0.1,0-0.1,0-0.2c0-0.3,0.2-0.4,0.4-0.4c0.1,0,0.2,0,0.3,0c0.1,0,0.3,0,0.4,0c0.1,0,0.1,0,0.1-0.1c0-0.3,0-0.6,0-0.9
						c0-0.1,0-0.1-0.1-0.1c-0.3,0-0.6,0-0.9,0c-0.2,0-0.4,0-0.5,0.1c-0.5,0.2-0.7,0.5-0.8,1c-0.1,0.2-0.1,0.4-0.1,0.6
						c0,0.3,0,0.6,0,0.8c0,0.1,0,0.1-0.1,0.1c-0.1,0-0.3,0-0.4,0c-0.1,0-0.3,0-0.4,0c-0.1,0-0.1,0-0.1,0.1c0,0,0,0,0,0
						c0,0.3,0,0.7,0,1c0,0,0,0,0,0.1c0,0,0,0.1,0.1,0.1c0,0,0,0,0.1,0c0.3,0,0.5,0,0.8,0c0.1,0,0.1,0,0.1,0.1c0,1,0,1.9,0,2.9
						c0,0,0,0.1,0,0.1c0,0,0,0.1,0,0.1c0,0,0,0,0.1,0c0.3,0,0.5,0,0.8,0c0.1,0,0.2,0,0.3,0c0.1,0,0.1,0,0.1-0.1c0,0,0,0,0-0.1
						C528.6,301,528.6,300.5,528.6,300.1z"/>
				</g>
				<g>
					<path class="st0" d="M528.1,302.8c-0.6,0-1.1,0-1.7,0c-0.4,0-0.8,0-1.2,0c-0.3,0-0.7,0-1-0.1c-0.2,0-0.4-0.1-0.6-0.1
						c-0.5-0.1-0.8-0.4-1-0.9c-0.1-0.3-0.2-0.6-0.2-0.9c0-0.4-0.1-0.8-0.1-1.2c0-0.7,0-1.4,0-2.2c0-0.3,0-0.7,0.1-1
						c0-0.3,0.1-0.6,0.3-0.9c0.2-0.4,0.5-0.6,1-0.7c0.2,0,0.4-0.1,0.6-0.1c0.5,0,1,0,1.5-0.1c0.2,0,0.5,0,0.7,0c0.5,0,1.1,0,1.6,0
						c0.4,0,0.8,0,1.2,0c0.4,0,0.9,0,1.3,0c0.4,0,0.9,0,1.3,0.1c0.2,0,0.5,0,0.7,0.1c0.4,0.2,0.7,0.5,0.8,0.9
						c0.1,0.3,0.2,0.6,0.2,0.9c0,0.4,0.1,0.9,0.1,1.3c0,0.7,0,1.4,0,2.1c0,0.4-0.1,0.8-0.1,1.2c0,0.3-0.1,0.5-0.2,0.7
						c-0.2,0.4-0.5,0.7-1,0.8c-0.2,0-0.4,0.1-0.6,0.1c-0.5,0-1,0-1.6,0.1c-0.3,0-0.6,0-0.8,0C528.9,302.7,528.4,302.8,528.1,302.8z
						 M526.8,300.1c1-0.5,2-1.1,3.1-1.6c-1-0.6-2-1.1-3.1-1.7C526.8,298,526.8,299,526.8,300.1z"/>
				</g>
				<g>
					<path class="st17" d="M526.8,300.1c0-1.1,0-2.2,0-3.3c1,0.6,2,1.1,3.1,1.7C528.9,299.1,527.9,299.6,526.8,300.1z"/>
				</g>
			</g>
		</g>
	</g>
</g>
<g id="Calque_2">
	<g>
		<g>
			<polygon class="st18" points="305,164.3 305.4,164.4 305.8,164.6 305.9,165 306,165.4 305.7,165.7 305.4,165.9 305,165.8 
				304.6,165.7 304.5,165.3 304.4,164.9 304.7,164.6 			"/>
			<path class="st19" d="M288.2,119.7L287,120l0.6,2.6l1.3-0.3l1.3-0.3l-0.6-2.6L288.2,119.7z M289.5,121.6l-0.8,0.2l-0.8,0.2
				l-0.4-1.7l0.8-0.2l0.8-0.2L289.5,121.6z"/>
			<polygon class="st20" points="306.5,181 308,180.7 307.7,179.1 306.1,179.4 			"/>
			<polygon class="st20" points="324.8,109.6 325.8,109.4 325.6,108.2 324.5,108.5 			"/>
			<polygon class="st21" points="275.5,139.4 277.9,138.8 277.3,136.4 274.9,136.9 			"/>
			<polygon class="st21" points="248.9,135.9 251.2,135.4 250.7,132.9 248.3,133.5 			"/>
			<polygon class="st21" points="290.1,94.9 291.8,94.5 291.4,92.8 289.7,93.2 			"/>
			<polygon class="st21" points="257.5,103.6 259.2,103.2 258.8,101.4 257.1,101.8 			"/>
			<polygon class="st22" points="250,122.5 250.5,123.1 251.1,123.8 250.3,123.9 249.5,124.1 249.8,123.3 			"/>
			<polygon class="st22" points="253.6,109.8 254.7,111 255.8,112.2 254.2,112.6 252.7,112.9 253.1,111.4 			"/>
			<polygon class="st22" points="316.7,100.4 317.4,101.2 318.1,102 317.1,102.2 316.1,102.4 316.4,101.4 			"/>
			<polygon class="st22" points="283,156.2 283.8,157.1 284.6,158 283.4,158.3 282.3,158.6 282.6,157.4 			"/>
			<polygon class="st22" points="254.6,165.7 255.2,166.4 255.8,167.1 254.9,167.3 254,167.5 254.3,166.6 			"/>
			<polygon class="st22" points="272.1,182.2 272.9,183.1 273.7,184 272.6,184.3 271.4,184.6 271.7,183.4 			"/>
			<path class="st23" d="M273.1,135c0.2,0.7-0.3,1.4-1,1.6c-0.7,0.2-1.4-0.3-1.5-1c-0.2-0.7,0.3-1.4,1-1.6S272.9,134.3,273.1,135z"
				/>
			<ellipse class="st23" cx="273.4" cy="98.9" rx="1.5" ry="1.5"/>
			<path class="st23" d="M300.8,90c0.2,0.7-0.3,1.5-1,1.6c-0.7,0.2-1.4-0.3-1.6-1c-0.2-0.7,0.3-1.5,1-1.6
				C299.9,88.8,300.6,89.3,300.8,90z"/>
			<path class="st23" d="M311.5,95.9c0.2,0.8-0.3,1.7-1.1,1.9s-1.6-0.3-1.8-1.2c-0.2-0.8,0.3-1.7,1.1-1.9
				C310.5,94.6,311.3,95.1,311.5,95.9z"/>
			<path class="st23" d="M310.8,103.7c0,0.2-0.1,0.3-0.2,0.4c-0.2,0-0.3-0.1-0.4-0.2c0-0.2,0.1-0.3,0.2-0.4
				C310.6,103.4,310.7,103.5,310.8,103.7z"/>
			<ellipse class="st23" cx="316.1" cy="110.5" rx="1.3" ry="1.4"/>
			<path class="st23" d="M314.4,120c0.1,0.4-0.2,0.9-0.6,1c-0.4,0.1-0.8-0.2-0.9-0.6c-0.1-0.4,0.2-0.9,0.6-1S314.3,119.5,314.4,120z
				"/>
			<path class="st23" d="M246.5,130.7c0.1,0.4-0.1,0.7-0.5,0.8c-0.3,0.1-0.7-0.1-0.8-0.5c-0.1-0.4,0.1-0.7,0.5-0.8
				C246.1,130.2,246.4,130.4,246.5,130.7z"/>
			<ellipse class="st23" cx="262.4" cy="171.4" rx="0.7" ry="0.7"/>
			<ellipse class="st23" cx="251" cy="163.1" rx="0.6" ry="0.6"/>
			<path class="st23" d="M276,148.8c0.1,0.5-0.2,0.9-0.6,1.1s-0.9-0.2-1-0.7s0.2-0.9,0.6-1.1S275.9,148.3,276,148.8z"/>
			<path class="st23" d="M288.5,167.5c0.1,0.4-0.1,0.7-0.5,0.8c-0.4,0.1-0.7-0.1-0.8-0.5c-0.1-0.4,0.1-0.7,0.5-0.8
				C288.1,166.9,288.4,167.2,288.5,167.5z"/>
			<path class="st23" d="M293.3,171.2c0.1,0.3-0.1,0.7-0.5,0.7c-0.3,0.1-0.7-0.1-0.7-0.5c-0.1-0.3,0.1-0.7,0.5-0.7
				S293.3,170.8,293.3,171.2z"/>
			<path class="st23" d="M308.4,168.6c0.1,0.5-0.2,1.1-0.7,1.2s-1-0.2-1.1-0.7c-0.1-0.5,0.2-1.1,0.7-1.2
				C307.8,167.8,308.3,168.1,308.4,168.6z"/>
			<path class="st23" d="M281.6,182.8c0.1,0.3-0.1,0.7-0.5,0.7c-0.3,0.1-0.6-0.1-0.7-0.5c-0.1-0.3,0.1-0.7,0.5-0.7
				C281.2,182.2,281.5,182.5,281.6,182.8z"/>
			<g>
				<path class="st24" d="M315.1,168.9c-0.5,0.4-3.3,3.6-10.4,2.3c-7.1-1.3-7.9-5.7-9.4-4.3c-1.5,1.3-0.1,3.1,1.1,4.3
					c1.2,1.2,4.4,2.2,0.8,2.3c-3.6,0.1-6.5,1-12.6-4.1c-6.1-5.1-6.1-9.9-7.7-9.3c-1.5,0.5,1.1,3.7-0.3,4.3c-1,0.4-2.8-3.1-4.6-6.9
					c-4.7-9.7,1.7-14.8-0.5-16.3c-2.2-1.5-2.7,4.2-3.8,4c-1.1-0.1-2.2-5.3,1.5-12.1c3.7-6.8,8.6-9.6,15.2-9.9c6.6-0.2,14.7,6.4,17,4
					c2.3-2.4,0.5-8.9-5.3-11.5c-5.8-2.6-35.5,2.8-35.2,18.7c0.3,15.9,3.9,30.3,12.9,36.5c9.1,6.2,22.7,7.6,30.5,5.5
					C312.2,174.2,315.1,168.9,315.1,168.9L315.1,168.9z"/>
				<path class="st18" d="M299.4,111c1.3,0.9-9-3.4-8.9-5.6c0.1-2.1,19.5,2.2,18-0.5c-1.6-2.7-10.8-4.6-9.8-5.2
					c1-0.5,9.4,1.7,6.3-1.4c-3.1-3.1-15.6-2.4-26.9,2.7c-11.3,5.1-14.4,10.3-14.3,7.6c0.2-2.7,5.4-7.1,2.5-7.3
					c-2.8-0.2-11.3,15.7-13.3,27.1c-2,11.4,1.1,19-0.5,18c-1.5-1-1.2-8.5-3.8-6.4c-5.1,5.1,6.8,28.6,22.9,36.7
					c1.7,0.9-3.2,0.1-3.2,1.8c0,1.8,4.5,2,18.2,2.9c13.6,0.8,23.6-7,23.6-7s-17.9,4.7-28.3,1.3c-10.4-3.4-16.3-10.6-21.7-25.4
					c-5.4-14.9,2.8-31.3,13.7-35.7C285,110.1,299.4,111,299.4,111L299.4,111z"/>
				<path class="st25" d="M315.1,168.9c-15.4,11.2-38.1,7.1-47.8-11.5c-9-17.3-2.5-47.7,35.6-34.6c6.4,2.2,7.7,0.1,4.9-3.6
					c-2.8-3.8,7.4,1.1,7.5-3c0-4.1-1.5-6.7-13-10.5c-35.8-12.1-58,24.1-42.8,56C269.7,183.1,304,187.2,315.1,168.9L315.1,168.9z"/>
				<path class="st25" d="M315.1,168.9c-12.5,5.1-13.4,1.9-14.3,2.6c-1,0.7-1,2,0.4,2.7c1.4,0.7-6.4,1.2-9.2,0.7
					c-2.8-0.5-7.6-2-10-5c-2.4-3-1.6-4.9-3.5-3.9c-1.9,1,1.6,3-0.9,3.3c-2.5,0.4-5.1-2-8.2-7.9c-3-5.9,0.7-12.2-1.7-13.5
					c-2.4-1.3-1.6,6.6-3.5,3.4c-1.9-3.3-2.5-10.2,0-15.3c2.5-5.1,7.3-4.7,6.5-7.1c-0.8-2.4-2-0.3-2.6-0.1c-0.7,0.2,1.3-3.4,5.2-5.5
					s5.9-1.8,11.4-1c5.5,0.7,8.1-2.8,3.6-4.5c-4.5-1.7-20-1.5-25.2,5.5c-5.2,7-5.4,15.2-3.1,25.3c2.3,10.2,10.8,20.9,17.5,24.2
					c6.7,3.4,14.6,5.1,22.2,4.3C307.2,176.4,315.1,168.9,315.1,168.9L315.1,168.9z"/>
				<path class="st18" d="M301.1,179.2c0,0-6.9,1.5-14.3-1.2c-3.8-1.4-3.4-4.2-5.2-4.1c-1.8,0.1-1.3,2.2-0.2,3.7
					c1.2,1.5-7.3,0.1-11.5-5.2c-4.2-5.3-0.9-7.4-3.5-8.9c-2.6-1.6,1,6.9-1.7,4.1c-2.7-2.8-6.1-9.4-7.3-16.8
					c-1.2-7.4,5.4-10.9,2.3-13.7c-3.1-2.8-2.6,6.4-4.2,6c-1.6-0.4-1.3-9.8,3.3-16.8c4.6-7,11.2-5.6,9.4-10c-1.9-4.4-5.9-3.8-8.8,0.6
					c-2.9,4.4-4.2,8.7-4.9,14.7c-0.7,6-1.1,10.9,0.4,18.4c1.5,7.5,2.7,11.2,6.2,15.8c3.5,4.7,7.9,8.7,11.3,10.4
					C284.7,182.2,293.8,181.5,301.1,179.2L301.1,179.2z"/>
			</g>
			<path class="st26" d="M276.9,117.5c2.7-0.2,5.3,0.1,7.9,0.6c0.8,0.1,1.6,0.3,2.4,0c0.8-0.3,1.3-1.2,1-2c-0.3-0.7-1.3-1-1.5-1.8
				c-0.2-0.6,0.3-1.2,0.8-1.5c0.6-0.3,1.2-0.2,1.8-0.2c5.9,0.6,11.5,4.1,17.5,3.4c0.7-0.1,1.4-0.2,1.9-0.7c0.7-0.7,0.7-1.9,0.2-2.8
				c-0.5-0.9-1.3-1.5-2.1-2c-5.8-3.7-13.3-4.4-19.6-1.8c-0.4,0.2-1.1,0.3-1.2-0.2c-0.1-0.5,0.4-0.8,0.7-1.2c0.4-0.6-0.1-1.5-0.8-1.7
				c-0.7-0.2-1.4,0-2.1,0.3c-1.6,0.7-2.9,1.8-4,3.2c-0.5,0.6-0.9,1.3-1.6,1.8s-1.5,0.7-2.2,0.3c-0.3-0.2-0.5-0.4-0.8-0.5
				c-0.5-0.1-1,0.4-1.3,0.9c-1.3,1.9-2.5,3.7-3.8,5.6c-0.4,0.6-0.8,1.3-1,2.1c-0.1,0.2-0.2,0.7,0.1,0.9c0.2,0.2,0.5,0.1,0.7,0
				c0.7-0.4,1.3-0.9,2-1.2c0.7-0.4,1.5-0.6,2.3-0.8C275.1,117.7,276,117.6,276.9,117.5z"/>
			<path class="st26" d="M263.3,153.1c0.2,0.7,0.7,1.5,1.4,1.3c0.3-0.1,0.5-0.3,0.8-0.4c0.6-0.2,1.3,0.3,1.4,1s-0.1,1.3-0.3,2
				c-0.5,1.3-1.1,2.6-1.7,3.9c-0.2,0.3-0.3,0.7-0.7,0.8c-0.6,0.2-1-0.5-1.3-1c-2.4-5.6-3.2-11.9-2.3-17.9c0.1-0.7,0.4-2,1.4-1.7
				c0.6,0.2,0.1,1.4,0.1,1.8c-0.3,2.2,0,4.5,0.3,6.7C262.6,150.7,262.9,151.9,263.3,153.1z"/>
			<path class="st26" d="M277.8,173.1c0.3,0.5,0.4,1.3-0.1,1.7c-0.3,0.3-0.7,0.3-1.1,0.2c-0.9-0.2-1.6-0.8-2.2-1.4
				c-0.8-0.8-1.4-1.6-2-2.6c-0.3-0.5-0.6-0.9-0.8-1.4c-0.1-0.2-0.3-0.5-0.2-0.7c0.3-0.3,1.3,0.3,1.6,0.5c0.8,0.5,1.4,1.1,2.1,1.7
				c0.5,0.4,1,0.7,1.5,1C277,172.4,277.5,172.7,277.8,173.1z"/>
			<path class="st26" d="M305,174.8c-1.9,0.5-3.9,0.6-5.9,0.9c-0.7,0.1-1.6,0.4-1.7,1.1c-0.1,0.5,0.3,0.9,0.7,1.1
				c0.4,0.2,0.9,0.2,1.4,0.1c2-0.2,4-0.8,5.8-1.8c0.9-0.5,1.8-1.1,2.5-1.8c0.3-0.3,0.8-0.6,1-1c0-0.1,0.2-0.3,0.1-0.4
				c-0.1-0.1-0.4,0.2-0.5,0.3C307.4,174.1,306.2,174.5,305,174.8z"/>
			<path class="st26" d="M259.6,132.2c0.3,0.2,0.7,0,1-0.3c0.2-0.3,0.3-0.7,0.4-1c0.2-1,0.4-2,0.9-2.9c0.4-1,1.1-1.7,2-2.2
				c0.4-0.2,0.4-0.7-0.1-0.7c-0.5,0-1,0.3-1.5,0.6c-0.6,0.3-1.2,0.6-1.6,1.1c-0.5,0.6-0.8,1.4-1,2.1c-0.2,0.6-0.4,1.3-0.4,2
				C259.1,131.3,259.1,132,259.6,132.2z"/>
			<path class="st27" d="M256.5,122.6c-0.1,0.6-0.2,1.5,0.4,1.8c0.3,0.2,0.8,0,1.1-0.2c0.3-0.3,0.5-0.6,0.7-0.9c1.2-2.1,2.9-3.8,5-5
				c0.3-0.2,0.6-0.4,0.8-0.7s0.2-0.8,0-1c-0.6-0.6-1.7,0.7-2.4,0.2c-0.4-0.3-0.3-1-0.1-1.4c0.3-0.5,0.6-1,0.8-1.5
				c0.2-0.4,0.2-1,0-1.4c-0.2-0.4-0.7-0.6-1.2-0.5c-0.3,0.1-0.7,0.2-0.9,0.5c-0.2,0.2-0.4,0.5-0.5,0.8c-0.5,0.9-1,1.8-1.5,2.8
				c-0.5,1-0.9,2-1.2,3.1c-0.4,1-0.7,2.1-0.9,3.2C256.5,122.4,256.5,122.5,256.5,122.6z"/>
			<path class="st27" d="M255.2,151.2c-0.1-0.2-0.2-0.5-0.3-0.7c-0.3-0.3-0.8-0.4-1.1-0.1c-0.3,0.3-0.4,0.8-0.2,1.2
				c-1.3-0.6-2.3-1.7-3-2.9c-0.7-1.2-1.2-2.6-1.6-4c-0.4,0.1-0.6,0.6-0.6,1c0,0.4,0.2,0.8,0.3,1.2c0.9,2.1,1.8,4.2,3.2,5.9
				c0.8,0.9,1.6,1.6,2.3,2.5c1.1,1.6,1.6,3.5,2.6,5.2c0.6,1.1,1.4,2.1,2.4,2.9c0.3,0.2,0.6,0.4,0.9,0.3c0.3-0.1,0.4-0.4,0.4-0.7
				s-0.2-0.6-0.3-0.8c-0.4-0.7-0.8-1.4-1.2-2.1c-0.4-0.7-0.8-1.4-1.3-2.1c-0.2-0.4-0.4-0.7-0.6-1.1c-0.2-0.3-0.2-0.4-0.2-0.7
				c-0.1-0.4-0.2-0.7-0.3-1.1c-0.1-0.4-0.2-0.8-0.4-1.2C255.7,153,255.4,152.1,255.2,151.2z"/>
			<path class="st27" d="M277.9,179.9c0.3,0,0.6,0,0.7-0.2c0.1-0.2,0.1-0.5,0-0.7s-0.4-0.3-0.6-0.4c-0.9-0.4-1.8-0.5-2.8-0.6
				c-0.5,0-1,0-1.5,0c-0.4,0-0.8,0-1.2,0.2c-0.3,0.1-0.6,0.3-0.8,0.5c-0.1,0.1-0.4,0.3-0.3,0.5c0,0.1,0.2,0.1,0.2,0.1
				c0.3,0,0.5,0,0.8,0.1c0.6,0,1.1,0.1,1.7,0.1c1.1,0.1,2.2,0.2,3.3,0.3C277.6,179.8,277.7,179.9,277.9,179.9z"/>
			<path class="st28" d="M297,122.1c1,0.3,2,0.7,2.7,1.5c0.3,0.3,0.5,0.6,0.6,1c0.1,0.4,0,0.8-0.3,1.1c-0.4,0.4-1,0.3-1.5,0.2
				c-2.2-0.6-4.1-2.3-6.4-2.3c-0.2,0-0.4,0-0.6-0.1c-0.2-0.1-0.3-0.3-0.3-0.5c0.1-0.3,0.5-0.3,0.8-0.3c1.2,0.2,2.3,0.4,3.5,0.6
				c0-0.4-0.4-0.6-0.7-0.7c-0.3-0.1-0.7,0-1-0.2c-0.2-0.1-0.4-0.5-0.2-0.6c0.2-0.1,0.5-0.1,0.8-0.1c0.4,0,0.8,0.1,1.2,0.1
				C296,121.9,296.5,122,297,122.1z"/>
			<path class="st28" d="M271.6,159.2c0.6,1.1,1.4,2.2,2.2,3.2c0.1,0.2,0.2,0.3,0.3,0.5c0,0.2,0,0.4-0.2,0.5c-0.2,0.1-0.4,0-0.6-0.1
				c-0.6-0.4-1.2-1-1.7-1.6c-0.5-0.6-0.9-1.3-1.1-2.1c-0.3-0.7-0.5-1.5-0.5-2.3c0-0.2,0-0.4,0-0.6c0-0.2,0-0.4,0.1-0.6
				c0.2-0.2,0.5-0.1,0.6,0.1c0.1,0.2,0.1,0.5,0.1,0.7c0.1,0.2,0.1,0.5,0.2,0.7c0.2,0.5,0.3,0.9,0.6,1.3
				C271.5,159,271.5,159.1,271.6,159.2z"/>
		</g>
		<g id="txt_1_">
			<path class="st17" d="M305.6,134.3c0-0.8,0.6-1.4,1.3-1.5c1.4-0.2,3-0.3,4.6-0.3c3.3,0,5.4,0.6,6.9,2c1.2,1.1,1.9,2.8,1.9,4.6
				c0,3.2-2,5.4-4.5,6.2v0.1c1.8,0.7,2.9,2.4,3.5,4.9c0.4,1.9,0.8,3.5,1.1,4.7c0.3,1-0.4,2-1.5,2l0,0c-0.7,0-1.2-0.4-1.4-1.1
				c-0.3-1.1-0.7-2.7-1.2-4.8c-0.7-3.4-2-4.6-4.7-4.8h-1.4c-0.8,0-1.5,0.7-1.5,1.6v7.5c0,0.9-0.7,1.6-1.5,1.6h0
				c-0.8,0-1.5-0.7-1.5-1.6V134.3z M308.7,142.5c0,0.9,0.7,1.6,1.5,1.6h1.6c3.3,0,5.3-1.9,5.3-4.6c0-3.2-2.2-4.5-5.5-4.6
				c-0.6,0-1.2,0-1.7,0.1c-0.8,0.1-1.4,0.7-1.4,1.6V142.5z"/>
			<path class="st17" d="M335.6,145.6h-6.7c-0.7,0-1.3,0.6-1.3,1.3v6.2c0,0.7,0.6,1.3,1.3,1.3h7.7c0.7,0,1.3,0.6,1.3,1.3v0
				c0,0.7-0.6,1.3-1.3,1.3h-10.8c-0.7,0-1.3-0.6-1.3-1.3v-21.8c0-0.7,0.6-1.3,1.3-1.3h10.3c0.7,0,1.3,0.6,1.3,1.3v0
				c0,0.7-0.6,1.3-1.3,1.3h-7.2c-0.7,0-1.3,0.6-1.3,1.3v5.1c0,0.7,0.6,1.3,1.3,1.3h6.7c0.7,0,1.3,0.6,1.3,1.3l0,0
				C336.8,145,336.3,145.6,335.6,145.6z"/>
			<path class="st17" d="M345.4,150.4l-1.8,5.6c-0.2,0.6-0.8,1.1-1.4,1.1l0,0c-1,0-1.7-1-1.4-2l7-21.4c0.2-0.6,0.8-1,1.4-1h1.6
				c0.6,0,1.2,0.4,1.4,1l7.1,21.4c0.3,1-0.4,2-1.4,2h-0.1c-0.6,0-1.2-0.4-1.4-1l-1.8-5.6c-0.2-0.6-0.8-1-1.4-1h-6.3
				C346.1,149.4,345.6,149.8,345.4,150.4z M351.4,146.9c1,0,1.7-1,1.4-2l-1.6-5c-0.5-1.6-0.9-3-1.2-4.5h-0.1
				c-0.4,1.5-0.7,2.9-1.2,4.4l-1.7,5c-0.3,1,0.4,2,1.4,2H351.4z"/>
			<path class="st17" d="M363.4,155.6v-21.5c0-0.8,0.6-1.5,1.4-1.5h1.1c0.5,0,1,0.3,1.2,0.7l7.2,11.7c1.8,2.9,3.1,5.4,4.3,7.9l0.1,0
				c-0.3-3.3-0.4-6.2-0.4-10.1v-8.7c0-0.8,0.6-1.5,1.4-1.5h0c0.8,0,1.4,0.7,1.4,1.5v21.5c0,0.8-0.6,1.5-1.4,1.5h-0.9
				c-0.5,0-1-0.3-1.2-0.7l-7.1-11.7c-1.7-2.7-3.2-5.5-4.4-8.2l-0.1,0c0.2,3.1,0.2,6,0.2,10.1v9c0,0.8-0.6,1.5-1.4,1.5l0,0
				C364,157.1,363.4,156.4,363.4,155.6z"/>
			<path class="st17" d="M387.8,132.6h10.2c0.7,0,1.3,0.6,1.3,1.3v0c0,0.7-0.6,1.3-1.3,1.3h-7.2c-0.7,0-1.3,0.6-1.3,1.3v5.5
				c0,0.7,0.6,1.3,1.3,1.3h6.4c0.7,0,1.3,0.6,1.3,1.3v0c0,0.7-0.6,1.3-1.3,1.3h-6.4c-0.7,0-1.3,0.6-1.3,1.3v8.5
				c0,0.7-0.6,1.3-1.3,1.3h-0.5c-0.7,0-1.3-0.6-1.3-1.3v-21.8C386.5,133.2,387.1,132.6,387.8,132.6z"/>
			<path class="st17" d="M423.9,144.6c0,8.4-5,12.9-11,12.9c-6.3,0-10.7-5-10.7-12.4c0-7.8,4.7-12.8,11-12.8
				C419.8,132.2,423.9,137.3,423.9,144.6z M405.5,145c0,5.2,2.7,9.9,7.6,9.9c4.9,0,7.6-4.6,7.6-10.2c0-4.9-2.5-9.9-7.6-9.9
				C408.1,134.8,405.5,139.6,405.5,145z"/>
			<path class="st17" d="M302.8,155.1c0.2,0.9-0.3,1.8-1.2,2.1c-1.4,0.5-3.4,0.9-5.7,0.9c-7.6,0-12.6-5.2-12.6-13
				c0-7.9,5.3-13.5,13.6-13.5c1.8,0,3.4,0.3,4.7,0.7c0.9,0.3,1.5,1.3,1.2,2.2l0,0.1c-0.3,1-1.3,1.5-2.2,1.2c-1-0.3-2.2-0.5-3.7-0.5
				c-5.8,0-8.9,4.3-8.9,9.6c0,5.9,3.8,9.5,8.8,9.5c1.6,0,2.8-0.2,3.8-0.6C301.5,153.5,302.5,154.1,302.8,155.1L302.8,155.1z"/>
		</g>
		<g>
			<g>
				<path class="st17" d="M312.6,141.7c-1.2,0-2.2-1-2.2-2.2c0-1.2,1-2.2,2.2-2.2c1.2,0,2.2,1,2.2,2.2
					C314.7,140.7,313.8,141.7,312.6,141.7z M312.6,137.4c-1.1,0-2.1,1-2.1,2.1c0,1.2,0.9,2.1,2.1,2.1c1.1,0,2.1-1,2.1-2.1
					C314.6,138.3,313.7,137.4,312.6,137.4z"/>
			</g>
			<g>
				<g>
					<g>
						<path class="st17" d="M312.6,136.7c0,0.1,0,0.1,0,0.2c0,0.1,0,0.3,0,0.4c0,0.2,0,0.4,0,0.6c0,0.2,0,0.5,0,0.7
							c0,0.3,0,0.5,0,0.8c0,0.3,0,0.5,0,0.8c0,0.3,0,0.5,0,0.8c0,0.2,0,0.4,0,0.6c0,0.2,0,0.3,0,0.5c0,0.1,0,0.1,0,0.2c0,0,0,0,0,0
							c0,0.1,0.2,0.1,0.2,0c0-0.1,0-0.1,0-0.2c0-0.1,0-0.3,0-0.4c0-0.2,0-0.4,0-0.6c0-0.2,0-0.5,0-0.7c0-0.3,0-0.5,0-0.8
							c0-0.3,0-0.5,0-0.8c0-0.3,0-0.5,0-0.8c0-0.2,0-0.4,0-0.6c0-0.2,0-0.3,0-0.5c0-0.1,0-0.1,0-0.2c0,0,0,0,0,0
							C312.7,136.5,312.6,136.5,312.6,136.7L312.6,136.7z"/>
					</g>
				</g>
				<g>
					<g>
						<path class="st17" d="M315.4,139.4c0,0-0.1,0-0.1,0c-0.1,0-0.3,0-0.4,0c-0.2,0-0.4,0-0.6,0c-0.2,0-0.5,0-0.7,0
							c-0.3,0-0.5,0-0.8,0c-0.3,0-0.5,0-0.8,0c-0.2,0-0.5,0-0.7,0c-0.2,0-0.4,0-0.6,0c-0.1,0-0.3,0-0.4,0c-0.1,0-0.1,0-0.2,0
							c0,0,0,0,0,0c-0.1,0-0.1,0.2,0,0.2c0,0,0.1,0,0.1,0c0.1,0,0.3,0,0.4,0c0.2,0,0.4,0,0.6,0c0.2,0,0.5,0,0.7,0c0.3,0,0.5,0,0.8,0
							c0.3,0,0.5,0,0.8,0c0.2,0,0.5,0,0.7,0c0.2,0,0.4,0,0.6,0c0.1,0,0.3,0,0.4,0c0.1,0,0.1,0,0.2,0c0,0,0,0,0,0
							C315.5,139.6,315.5,139.4,315.4,139.4L315.4,139.4z"/>
					</g>
				</g>
			</g>
		</g>
		<g>
			<g class="st15">
				<g class="st16">
					<g>
						<path class="st0" d="M415.5,149.3c-0.1-1.5,0.3-2,0.8-2.6c0.2-0.3,0.5-0.6,0.8-1.2c0.9-1.7,1.5-3,0.2-5.7
							c-1.3-2.6-4.1-2.5-4.2-2.5l0,0l0,0c-0.1,0-2.8-0.1-4.2,2.5c-1.4,2.7-0.7,4,0.2,5.7l0.2,0.3l1.3-1.5l0.2,0.2
							c0,0,0.3,0.4,0.6,0.8c0.3,0.4,0.7,0.6,0.7,0.6l0.2,0.2l-2.7,2.8l-0.3-0.3l2.3-2.4c-0.2-0.1-0.4-0.3-0.6-0.5
							c-0.2-0.2-0.4-0.4-0.5-0.6l-1.3,1.5l-0.5-0.8c-0.9-1.7-1.7-3.2-0.2-6.2c1.4-2.8,4.4-2.7,4.6-2.7c0.2,0,3.2,0,4.6,2.7
							c1.5,2.9,0.7,4.5-0.2,6.2c-0.3,0.6-0.6,1-0.8,1.3c-0.4,0.6-0.7,0.9-0.7,2.3L415.5,149.3z"/>
					</g>
				</g>
				<g class="st16">
					<polygon class="st0" points="415.8,150.2 410.1,150.2 410.1,148.8 410.5,148.8 410.5,149.7 415.8,149.7 					"/>
				</g>
				<g class="st16">
					<path class="st0" d="M416,141.4c-0.2,0.2-0.5,0.2-0.7,0c-0.2-0.2-0.2-0.5,0-0.7c0.2-0.2,0.5-0.2,0.7,0
						C416.1,140.9,416.1,141.2,416,141.4z"/>
					<rect x="410.4" y="150.7" class="st0" width="5.5" height="0.8"/>
					<polygon class="st0" points="413.8,153.2 412.4,153.2 411.5,152 414.8,152 					"/>
				</g>
			</g>
			<g>
				<g>
					<g>
						<path class="st17" d="M415.5,149.3c-0.1-1.5,0.3-2,0.8-2.6c0.2-0.3,0.5-0.6,0.8-1.2c0.9-1.7,1.5-3,0.2-5.7
							c-1.3-2.6-4.1-2.5-4.2-2.5l0,0l0,0c-0.1,0-2.8-0.1-4.2,2.5c-1.4,2.7-0.7,4,0.2,5.7l0.2,0.3l1.3-1.5l0.2,0.2
							c0,0,0.3,0.4,0.6,0.8c0.3,0.4,0.7,0.6,0.7,0.6l0.2,0.2l-2.7,2.8l-0.3-0.3l2.3-2.4c-0.2-0.1-0.4-0.3-0.6-0.5
							c-0.2-0.2-0.4-0.4-0.5-0.6l-1.3,1.5l-0.5-0.8c-0.9-1.7-1.7-3.2-0.2-6.2c1.4-2.8,4.4-2.7,4.6-2.7c0.2,0,3.2,0,4.6,2.7
							c1.5,2.9,0.7,4.5-0.2,6.2c-0.3,0.6-0.6,1-0.8,1.3c-0.4,0.6-0.7,0.9-0.7,2.3L415.5,149.3z"/>
					</g>
				</g>
				<g>
					<polygon class="st17" points="415.8,150.2 410.1,150.2 410.1,148.8 410.5,148.8 410.5,149.7 415.8,149.7 					"/>
				</g>
				<g>
					<path class="st17" d="M416,141.4c-0.2,0.2-0.5,0.2-0.7,0c-0.2-0.2-0.2-0.5,0-0.7c0.2-0.2,0.5-0.2,0.7,0
						C416.1,140.9,416.1,141.2,416,141.4z"/>
					<rect x="410.4" y="150.7" class="st17" width="5.5" height="0.8"/>
					<polygon class="st17" points="413.8,153.2 412.4,153.2 411.5,152 414.8,152 					"/>
				</g>
			</g>
			<path class="st29" d="M415,141.8l-1.1,1.2c0.1,0.1,0,0.3-0.1,0.4c-0.1,0.1-0.3,0.1-0.4,0c-0.1-0.1-0.1-0.3,0-0.5
				c0.1-0.1,0.2-0.1,0.3-0.1l1.1-1.2c-0.6,0.3-1.9,1-3.1,0.8c0,0-0.2,1.1-0.8,2c0,0,0.3,0.4,0.6,0.8c0.4,0.4,0.8,0.7,0.8,0.7
				c0.8-0.6,1.9-0.8,1.9-0.8C414.1,143.7,414.7,142.4,415,141.8z"/>
		</g>
		<g>
			<g>
				<line class="st17" x1="374.4" y1="153.6" x2="368.6" y2="153.6"/>
				<rect x="368.6" y="153.5" class="st17" width="5.8" height="0.1"/>
			</g>
			<g>
				<path class="st17" d="M374.4,153.8c0.1,0,0.2-0.1,0.2-0.2s-0.1-0.2-0.2-0.2c-0.1,0-0.2,0.1-0.2,0.2S374.3,153.8,374.4,153.8z"/>
				<path class="st17" d="M368.5,153.8c0.1,0,0.2-0.1,0.2-0.2s-0.1-0.2-0.2-0.2c-0.1,0-0.2,0.1-0.2,0.2S368.4,153.8,368.5,153.8z"/>
			</g>
			<g>
				<path class="st17" d="M371.5,153.5c1.5,0,2.8,1.3,2.8,2.8h-0.2c0-1.5-1.2-2.7-2.6-2.7c-1.4,0-2.6,1.2-2.6,2.7h-0.2
					C368.7,154.8,369.9,153.5,371.5,153.5z"/>
			</g>
			<g>
				<path class="st17" d="M368.7,156.1h0.1c0.1,0,0.2,0.1,0.2,0.2v0.1c0,0.1-0.1,0.2-0.2,0.2h-0.1c-0.1,0-0.2-0.1-0.2-0.2v-0.1
					C368.5,156.2,368.6,156.1,368.7,156.1z"/>
				<path class="st17" d="M374.1,156.1h0.1c0.1,0,0.2,0.1,0.2,0.2v0.1c0,0.1-0.1,0.2-0.2,0.2h-0.1c-0.1,0-0.2-0.1-0.2-0.2v-0.1
					C374,156.2,374,156.1,374.1,156.1z"/>
			</g>
			<path class="st17" d="M371.4,153.3h0.1c0.1,0,0.2,0.1,0.2,0.2v0.1c0,0.1-0.1,0.2-0.2,0.2h-0.1c-0.1,0-0.2-0.1-0.2-0.2v-0.1
				C371.2,153.4,371.3,153.3,371.4,153.3z"/>
		</g>
		<g>
			<path class="st30" d="M349.7,124.6v-4.9c-0.8,1.9-1.9,3.5-3.2,5.1c1,0.7,1.5,1.6,1.6,2.6l1.9,0l1.9,0c0-1,0.5-1.9,1.6-2.6
				c-1.3-1.5-2.4-3.2-3.2-5.1l0,4.9c0.2,0.1,0.3,0.2,0.3,0.4c0,0.3-0.2,0.5-0.5,0.5c-0.3,0-0.5-0.2-0.5-0.5
				C349.5,124.8,349.6,124.7,349.7,124.6L349.7,124.6z"/>
			<rect x="348" y="127.7" class="st30" width="3.9" height="1"/>
			<path class="st30" d="M348,128.9h3.9v2.8h0c0,0,0,0,0,0c0,0.2-1.2,0-2,0s-1.9,0.2-1.9,0c0,0,0,0,0,0l0,0V128.9z"/>
		</g>
	</g>
	<g>
		<g>
			<path class="st17" d="M598.8,103.4l-2-7.2h1.1l0.9,3.6c0.2,0.9,0.4,1.8,0.6,2.5h0c0.1-0.7,0.4-1.6,0.6-2.5l1-3.6h1l0.9,3.7
				c0.2,0.9,0.4,1.7,0.5,2.5h0c0.2-0.8,0.4-1.6,0.6-2.5l1-3.6h1l-2.2,7.2h-1l-1-3.7c-0.2-0.9-0.4-1.6-0.5-2.3h0
				c-0.1,0.7-0.3,1.4-0.6,2.3l-1.1,3.7H598.8z"/>
			<path class="st17" d="M611.3,100.1h-3v2.6h3.4v0.8h-4.4v-7.2h4.2V97h-3.2v2.3h3V100.1z"/>
			<path class="st17" d="M621.9,100.3c-0.1-1-0.1-2.2-0.1-3.1h0c-0.3,0.8-0.6,1.7-1,2.7l-1.4,3.5h-0.8l-1.3-3.4
				c-0.4-1-0.7-1.9-0.9-2.8h0c0,0.9-0.1,2.1-0.1,3.2l-0.2,3.1h-1l0.5-7.2h1.3l1.3,3.5c0.3,0.9,0.6,1.7,0.8,2.4h0
				c0.2-0.7,0.5-1.5,0.8-2.4l1.4-3.5h1.3l0.5,7.2h-1L621.9,100.3z"/>
			<path class="st17" d="M625.7,101.2l-0.8,2.3h-1l2.6-7.2h1.2l2.6,7.2h-1.1l-0.8-2.3H625.7z M628.3,100.4l-0.8-2.1
				c-0.2-0.5-0.3-0.9-0.4-1.3h0c-0.1,0.4-0.2,0.9-0.4,1.3l-0.8,2.1H628.3z"/>
			<path class="st17" d="M631.5,96.2h1v3.5h0c0.2-0.3,0.4-0.5,0.6-0.8l2.4-2.7h1.2l-2.8,3.1l3,4.1h-1.2l-2.6-3.5l-0.7,0.8v2.7h-1
				V96.2z"/>
			<path class="st17" d="M641.8,100.1h-3v2.6h3.4v0.8h-4.4v-7.2h4.2V97h-3.2v2.3h3V100.1z"/>
			<path class="st17" d="M647.1,103.4v-3.1l-2.5-4.1h1.1l1.1,2c0.3,0.5,0.5,1,0.8,1.5h0c0.2-0.5,0.5-0.9,0.8-1.5l1.1-2h1.1l-2.6,4.1
				v3.1H647.1z"/>
			<path class="st17" d="M657.8,99.8c0,2.5-1.6,3.8-3.6,3.8c-2,0-3.5-1.5-3.5-3.7c0-2.3,1.5-3.8,3.6-3.8
				C656.4,96.1,657.8,97.6,657.8,99.8z M651.8,99.9c0,1.5,0.9,2.9,2.5,2.9c1.6,0,2.5-1.4,2.5-3c0-1.4-0.8-2.9-2.5-2.9
				C652.6,96.9,651.8,98.3,651.8,99.9z"/>
			<path class="st17" d="M660.1,96.2v4.3c0,1.6,0.8,2.3,1.8,2.3c1.2,0,1.9-0.7,1.9-2.3v-4.3h1v4.2c0,2.2-1.3,3.1-2.9,3.1
				c-1.6,0-2.8-0.8-2.8-3.1v-4.2H660.1z"/>
			<path class="st17" d="M666.6,96.3c0.5-0.1,1.2-0.1,1.9-0.1c1.1,0,1.8,0.2,2.2,0.6c0.4,0.3,0.6,0.8,0.6,1.4c0,0.9-0.6,1.6-1.5,1.8
				v0c0.6,0.2,1,0.7,1.1,1.5c0.3,1,0.4,1.7,0.6,2h-1c-0.1-0.2-0.3-0.8-0.5-1.7c-0.2-1-0.6-1.4-1.6-1.4h-0.9v3.1h-1V96.3z
				 M667.6,99.6h1c1.1,0,1.8-0.5,1.8-1.4c0-0.9-0.7-1.3-1.8-1.3c-0.5,0-0.8,0-1,0.1V99.6z"/>
		</g>
		<g>
			<path class="st17" d="M558.2,119.4v10.2h-1.4v-10.2H558.2z"/>
			<path class="st23" d="M560.7,129.7v-10.2h1.6l3.5,5.2c0.8,1.2,1.5,2.3,2,3.3l0,0c-0.1-1.4-0.2-2.6-0.2-4.2v-4.3h1.3v10.2h-1.4
				l-3.5-5.2c-0.8-1.1-1.5-2.3-2.1-3.4l0,0c0.1,1.3,0.1,2.5,0.1,4.2v4.4H560.7z"/>
			<path class="st23" d="M571.5,119.4h5.9v1.1h-4.5v3.4h4.2v1.1h-4.2v4.6h-1.4V119.4z"/>
			<path class="st23" d="M588.9,124.4c0,3.5-2.3,5.4-5.1,5.4c-2.9,0-5-2.1-5-5.2c0-3.2,2.2-5.4,5.1-5.4
				C586.9,119.3,588.9,121.4,588.9,124.4z M580.3,124.6c0,2.2,1.3,4.1,3.5,4.1c2.3,0,3.5-1.9,3.5-4.2c0-2-1.1-4.2-3.5-4.2
				C581.5,120.3,580.3,122.4,580.3,124.6z"/>
			<path class="st17" d="M590.7,119.6c0.7-0.1,1.8-0.2,2.7-0.2c1.5,0,2.5,0.3,3.2,0.8c0.6,0.5,0.9,1.2,0.9,1.9
				c0,1.3-0.9,2.2-2.1,2.6v0c0.9,0.3,1.4,1,1.6,2.1c0.4,1.4,0.6,2.4,0.9,2.8h-1.5c-0.2-0.3-0.4-1.2-0.7-2.4c-0.3-1.4-0.9-1.9-2.2-2
				h-1.3v4.4h-1.4V119.6z M592.2,124.2h1.5c1.5,0,2.5-0.8,2.5-1.9c0-1.3-1-1.9-2.5-1.9c-0.7,0-1.2,0.1-1.4,0.1V124.2z"/>
			<path class="st17" d="M608.8,125.2c-0.1-1.4-0.2-3.1-0.2-4.4h0c-0.4,1.2-0.8,2.5-1.4,3.9l-1.9,5h-1.1l-1.8-4.9
				c-0.5-1.4-1-2.8-1.3-4h0c0,1.3-0.1,3-0.2,4.5l-0.3,4.4h-1.4l0.8-10.2h1.8l1.9,4.9c0.5,1.3,0.8,2.4,1.1,3.4h0
				c0.3-1,0.7-2.2,1.2-3.4l2-4.9h1.8l0.7,10.2h-1.4L608.8,125.2z"/>
			<path class="st17" d="M614.3,126.4l-1.1,3.2h-1.5l3.7-10.2h1.7l3.8,10.2h-1.5l-1.2-3.2H614.3z M617.9,125.4l-1.1-2.9
				c-0.2-0.7-0.4-1.3-0.6-1.9h0c-0.2,0.6-0.3,1.2-0.6,1.8l-1.1,3H617.9z"/>
			<path class="st17" d="M623.4,120.6H620v-1.1h8.2v1.1h-3.4v9.1h-1.4V120.6z"/>
			<path class="st17" d="M630.8,119.4v10.2h-1.4v-10.2H630.8z"/>
			<path class="st17" d="M642.8,124.4c0,3.5-2.3,5.4-5.1,5.4c-2.9,0-5-2.1-5-5.2c0-3.2,2.2-5.4,5.1-5.4
				C640.8,119.3,642.8,121.4,642.8,124.4z M634.2,124.6c0,2.2,1.3,4.1,3.5,4.1c2.3,0,3.5-1.9,3.5-4.2c0-2-1.1-4.2-3.5-4.2
				C635.4,120.3,634.2,122.4,634.2,124.6z"/>
			<path class="st17" d="M644.6,129.7v-10.2h1.6l3.5,5.2c0.8,1.2,1.5,2.3,2,3.3l0,0c-0.1-1.4-0.2-2.6-0.2-4.2v-4.3h1.3v10.2h-1.4
				l-3.5-5.2c-0.8-1.1-1.5-2.3-2.1-3.4l0,0c0.1,1.3,0.1,2.5,0.1,4.2v4.4H644.6z"/>
		</g>
		<g>
			<path class="st17" d="M579.7,148.1c-0.1-1.2-0.1-2.6-0.1-3.7h0c-0.3,1-0.7,2.1-1.2,3.2l-1.6,4.1h-0.9l-1.5-4
				c-0.4-1.2-0.8-2.3-1.1-3.3h0c0,1.1-0.1,2.5-0.2,3.7l-0.2,3.6h-1.1l0.6-8.5h1.5l1.6,4.1c0.4,1,0.7,2,0.9,2.9h0
				c0.2-0.9,0.6-1.8,1-2.9l1.6-4.1h1.5l0.6,8.5H580L579.7,148.1z"/>
			<path class="st17" d="M590.8,147.5c0,2.9-1.9,4.5-4.2,4.5c-2.4,0-4.1-1.7-4.1-4.3c0-2.7,1.8-4.5,4.2-4.5
				C589.1,143.2,590.8,145,590.8,147.5z M583.7,147.7c0,1.8,1.1,3.4,2.9,3.4c1.9,0,2.9-1.6,2.9-3.5c0-1.7-0.9-3.4-2.9-3.4
				C584.6,144.1,583.7,145.8,583.7,147.7z"/>
			<path class="st17" d="M592.3,143.5c0.6-0.1,1.5-0.2,2.3-0.2c1.3,0,2.1,0.2,2.6,0.7c0.5,0.4,0.7,1,0.7,1.6c0,1.1-0.8,1.9-1.7,2.2
				v0c0.7,0.2,1.1,0.8,1.3,1.7c0.3,1.2,0.5,2,0.7,2.3H597c-0.1-0.2-0.4-1-0.6-2c-0.3-1.2-0.8-1.6-1.8-1.6h-1.1v3.7h-1.2V143.5z
				 M593.5,147.3h1.2c1.3,0,2.1-0.6,2.1-1.6c0-1.1-0.9-1.6-2.1-1.6c-0.6,0-1,0.1-1.2,0.1V147.3z"/>
			<path class="st17" d="M604.3,147.9h-3.6v3.1h4v0.9h-5.1v-8.5h4.9v0.9h-3.8v2.7h3.6V147.9z"/>
			<path class="st23" d="M615.5,151.6c-0.4,0.2-1.3,0.4-2.4,0.4c-2.6,0-4.5-1.5-4.5-4.3c0-2.7,1.9-4.5,4.8-4.5
				c1.1,0,1.9,0.2,2.2,0.4l-0.3,0.9c-0.4-0.2-1.1-0.4-1.8-0.4c-2.1,0-3.6,1.3-3.6,3.5c0,2.1,1.3,3.4,3.5,3.4c0.7,0,1.5-0.1,1.9-0.4
				L615.5,151.6z"/>
			<path class="st23" d="M617,143.5c0.6-0.1,1.5-0.2,2.3-0.2c1.3,0,2.1,0.2,2.6,0.7c0.5,0.4,0.7,1,0.7,1.6c0,1.1-0.8,1.9-1.7,2.2v0
				c0.7,0.2,1.1,0.8,1.3,1.7c0.3,1.2,0.5,2,0.7,2.3h-1.2c-0.1-0.2-0.4-1-0.6-2c-0.3-1.2-0.8-1.6-1.8-1.6h-1.1v3.7H617V143.5z
				 M618.2,147.3h1.2c1.3,0,2.1-0.6,2.1-1.6c0-1.1-0.9-1.6-2.1-1.6c-0.6,0-1,0.1-1.2,0.1V147.3z"/>
			<path class="st23" d="M629.1,147.9h-3.6v3.1h4v0.9h-5.1v-8.5h4.9v0.9h-3.8v2.7h3.6V147.9z"/>
			<path class="st23" d="M632.5,149.2l-0.9,2.7h-1.2l3.1-8.5h1.4l3.1,8.5h-1.3l-1-2.7H632.5z M635.5,148.3l-0.9-2.4
				c-0.2-0.6-0.3-1.1-0.5-1.5h0c-0.1,0.5-0.3,1-0.5,1.5l-0.9,2.5H635.5z"/>
			<path class="st17" d="M640,144.3h-2.8v-0.9h6.8v0.9h-2.8v7.5H640V144.3z"/>
			<path class="st17" d="M646.2,143.4v8.5H645v-8.5H646.2z"/>
			<path class="st17" d="M650.3,151.8l-3-8.5h1.3l1.4,4.2c0.4,1.1,0.7,2.2,1,3.2h0c0.3-1,0.6-2.1,1-3.2l1.5-4.2h1.3l-3.3,8.5H650.3z
				"/>
			<path class="st17" d="M660.6,147.9H657v3.1h4v0.9h-5.1v-8.5h4.9v0.9H657v2.7h3.6V147.9z"/>
		</g>
	</g>
</g>
</svg>
